G04 #@! TF.FileFunction,Copper,L1,Top,Signal*
%FSLAX46Y46*%
G04 Gerber Fmt 4.6, Leading zero omitted, Abs format (unit mm)*
G04 Created by KiCad (PCBNEW 4.0.4-stable) date Monday, August 28, 2017 'PMt' 10:13:35 PM*
%MOMM*%
%LPD*%
G01*
G04 APERTURE LIST*
%ADD10C,0.100000*%
%ADD11R,2.500000X2.500000*%
%ADD12C,2.500000*%
%ADD13R,1.727200X1.727200*%
%ADD14O,1.727200X1.727200*%
%ADD15C,11.000000*%
%ADD16C,0.685800*%
%ADD17C,0.381000*%
%ADD18C,2.000000*%
%ADD19C,1.500000*%
%ADD20C,0.254000*%
G04 APERTURE END LIST*
D10*
D11*
X88000000Y-117050000D03*
D12*
X93000000Y-117050000D03*
D13*
X120590000Y-103620000D03*
D14*
X118050000Y-103620000D03*
X120590000Y-101080000D03*
X118050000Y-101080000D03*
X120590000Y-98540000D03*
X118050000Y-98540000D03*
D13*
X112660000Y-98540000D03*
D14*
X115200000Y-98540000D03*
X112660000Y-101080000D03*
X115200000Y-101080000D03*
X112660000Y-103620000D03*
X115200000Y-103620000D03*
X112660000Y-106160000D03*
X115200000Y-106160000D03*
X112660000Y-108700000D03*
X115200000Y-108700000D03*
X112660000Y-111240000D03*
X115200000Y-111240000D03*
X112660000Y-113780000D03*
X115200000Y-113780000D03*
X112660000Y-116320000D03*
X115200000Y-116320000D03*
X112660000Y-118860000D03*
X115200000Y-118860000D03*
D15*
X90475000Y-85200000D03*
X109525000Y-85200000D03*
D16*
X91000000Y-120350000D03*
X89050000Y-120350000D03*
D17*
X89050000Y-120350000D02*
X91000000Y-120350000D01*
D18*
X118050000Y-103620000D02*
X116518686Y-103620000D01*
X116518686Y-103620000D02*
X115200000Y-102301314D01*
X118050000Y-103620000D02*
X116380000Y-103620000D01*
X116380000Y-103620000D02*
X115200000Y-104800000D01*
D19*
X115200000Y-118860000D02*
X115200000Y-116320000D01*
X115200000Y-113780000D02*
X115200000Y-116320000D01*
D18*
X115200000Y-102301314D02*
X115200000Y-101080000D01*
X115200000Y-106160000D02*
X115200000Y-104800000D01*
X115200000Y-104800000D02*
X115200000Y-103620000D01*
X115200000Y-101080000D02*
X115200000Y-98540000D01*
X115200000Y-103620000D02*
X115200000Y-101080000D01*
X115200000Y-103620000D02*
X118050000Y-103620000D01*
X115200000Y-108700000D02*
X115200000Y-106160000D01*
X115200000Y-111240000D02*
X115200000Y-108700000D01*
X115200000Y-113780000D02*
X115200000Y-111240000D01*
D20*
G36*
X121615457Y-78073669D02*
X121783660Y-78210853D01*
X121922013Y-78378094D01*
X121973000Y-78472393D01*
X121973000Y-121527685D01*
X121926332Y-121615454D01*
X121789149Y-121783658D01*
X121621908Y-121922011D01*
X121527607Y-121973000D01*
X78472315Y-121973000D01*
X78384546Y-121926332D01*
X78216342Y-121789149D01*
X78077989Y-121621908D01*
X78027000Y-121527607D01*
X78027000Y-119435402D01*
X78542102Y-119435402D01*
X78620162Y-119860721D01*
X78779348Y-120262778D01*
X79013595Y-120626258D01*
X79313981Y-120937317D01*
X79669064Y-121184106D01*
X80065321Y-121357226D01*
X80487656Y-121450083D01*
X80919984Y-121459139D01*
X81345837Y-121384049D01*
X81748995Y-121227675D01*
X82114102Y-120995971D01*
X82427250Y-120697764D01*
X82629633Y-120410868D01*
X88325148Y-120410868D01*
X88350775Y-120550499D01*
X88403036Y-120682494D01*
X88479939Y-120801825D01*
X88578556Y-120903945D01*
X88695129Y-120984966D01*
X88825220Y-121041801D01*
X88963873Y-121072286D01*
X89105806Y-121075259D01*
X89245613Y-121050607D01*
X89377970Y-120999270D01*
X89497834Y-120923201D01*
X89499620Y-120921500D01*
X90553814Y-120921500D01*
X90645129Y-120984966D01*
X90775220Y-121041801D01*
X90913873Y-121072286D01*
X91055806Y-121075259D01*
X91195613Y-121050607D01*
X91327970Y-120999270D01*
X91447834Y-120923201D01*
X91550640Y-120825300D01*
X91632473Y-120709295D01*
X91690215Y-120579604D01*
X91721667Y-120441168D01*
X91723931Y-120279018D01*
X91696357Y-120139757D01*
X91642259Y-120008505D01*
X91563697Y-119890260D01*
X91463664Y-119789526D01*
X91345970Y-119710141D01*
X91215099Y-119655128D01*
X91076034Y-119626582D01*
X90934074Y-119625591D01*
X90794624Y-119652192D01*
X90662997Y-119705373D01*
X90551247Y-119778500D01*
X89497317Y-119778500D01*
X89395970Y-119710141D01*
X89265099Y-119655128D01*
X89126034Y-119626582D01*
X88984074Y-119625591D01*
X88844624Y-119652192D01*
X88712997Y-119705373D01*
X88594207Y-119783107D01*
X88492777Y-119882434D01*
X88412572Y-119999571D01*
X88356646Y-120130055D01*
X88327130Y-120268917D01*
X88325148Y-120410868D01*
X82629633Y-120410868D01*
X82676513Y-120344412D01*
X82852395Y-119949374D01*
X82948198Y-119527697D01*
X82955094Y-119033789D01*
X82871103Y-118609601D01*
X82706320Y-118209806D01*
X82467020Y-117849632D01*
X82162321Y-117542798D01*
X81803826Y-117300990D01*
X81405191Y-117133419D01*
X80981600Y-117046469D01*
X80549188Y-117043450D01*
X80124425Y-117124478D01*
X79723489Y-117286466D01*
X79361653Y-117523245D01*
X79052699Y-117825795D01*
X78808394Y-118182593D01*
X78638045Y-118580048D01*
X78548139Y-119003022D01*
X78542102Y-119435402D01*
X78027000Y-119435402D01*
X78027000Y-115800000D01*
X86367157Y-115800000D01*
X86367157Y-118300000D01*
X86371995Y-118360673D01*
X86403864Y-118463580D01*
X86463140Y-118553535D01*
X86545130Y-118623415D01*
X86643342Y-118667686D01*
X86750000Y-118682843D01*
X89250000Y-118682843D01*
X89310673Y-118678005D01*
X89413580Y-118646136D01*
X89503535Y-118586860D01*
X89567199Y-118512163D01*
X92065338Y-118512163D01*
X92210227Y-118771613D01*
X92561273Y-118892610D01*
X92929178Y-118942796D01*
X93299805Y-118920244D01*
X93561959Y-118851311D01*
X111409408Y-118851311D01*
X111431423Y-119093215D01*
X111500005Y-119326235D01*
X111612541Y-119541497D01*
X111764745Y-119730801D01*
X111950820Y-119886936D01*
X112163678Y-120003956D01*
X112395211Y-120077403D01*
X112636601Y-120104479D01*
X112653978Y-120104600D01*
X112666022Y-120104600D01*
X112907766Y-120080897D01*
X113140302Y-120010690D01*
X113354773Y-119896654D01*
X113543010Y-119743132D01*
X113697842Y-119555971D01*
X113813373Y-119342302D01*
X113885201Y-119110262D01*
X113910592Y-118868689D01*
X113888577Y-118626785D01*
X113819995Y-118393765D01*
X113707459Y-118178503D01*
X113555255Y-117989199D01*
X113369180Y-117833064D01*
X113156322Y-117716044D01*
X112924789Y-117642597D01*
X112683399Y-117615521D01*
X112666022Y-117615400D01*
X112653978Y-117615400D01*
X112412234Y-117639103D01*
X112179698Y-117709310D01*
X111965227Y-117823346D01*
X111776990Y-117976868D01*
X111622158Y-118164029D01*
X111506627Y-118377698D01*
X111434799Y-118609738D01*
X111409408Y-118851311D01*
X93561959Y-118851311D01*
X93658910Y-118825818D01*
X93789773Y-118771613D01*
X93934662Y-118512163D01*
X93000000Y-117577502D01*
X92065338Y-118512163D01*
X89567199Y-118512163D01*
X89573415Y-118504870D01*
X89617686Y-118406658D01*
X89632843Y-118300000D01*
X89632843Y-116979178D01*
X91107204Y-116979178D01*
X91129756Y-117349805D01*
X91224182Y-117708910D01*
X91278387Y-117839773D01*
X91537837Y-117984662D01*
X92472498Y-117050000D01*
X93527502Y-117050000D01*
X94462163Y-117984662D01*
X94721613Y-117839773D01*
X94842610Y-117488727D01*
X94892796Y-117120822D01*
X94870244Y-116750195D01*
X94775818Y-116391090D01*
X94742773Y-116311311D01*
X111409408Y-116311311D01*
X111431423Y-116553215D01*
X111500005Y-116786235D01*
X111612541Y-117001497D01*
X111764745Y-117190801D01*
X111950820Y-117346936D01*
X112163678Y-117463956D01*
X112395211Y-117537403D01*
X112636601Y-117564479D01*
X112653978Y-117564600D01*
X112666022Y-117564600D01*
X112907766Y-117540897D01*
X113140302Y-117470690D01*
X113354773Y-117356654D01*
X113543010Y-117203132D01*
X113697842Y-117015971D01*
X113813373Y-116802302D01*
X113885201Y-116570262D01*
X113910592Y-116328689D01*
X113888577Y-116086785D01*
X113819995Y-115853765D01*
X113707459Y-115638503D01*
X113555255Y-115449199D01*
X113369180Y-115293064D01*
X113156322Y-115176044D01*
X112924789Y-115102597D01*
X112683399Y-115075521D01*
X112666022Y-115075400D01*
X112653978Y-115075400D01*
X112412234Y-115099103D01*
X112179698Y-115169310D01*
X111965227Y-115283346D01*
X111776990Y-115436868D01*
X111622158Y-115624029D01*
X111506627Y-115837698D01*
X111434799Y-116069738D01*
X111409408Y-116311311D01*
X94742773Y-116311311D01*
X94721613Y-116260227D01*
X94462163Y-116115338D01*
X93527502Y-117050000D01*
X92472498Y-117050000D01*
X91537837Y-116115338D01*
X91278387Y-116260227D01*
X91157390Y-116611273D01*
X91107204Y-116979178D01*
X89632843Y-116979178D01*
X89632843Y-115800000D01*
X89628005Y-115739327D01*
X89596136Y-115636420D01*
X89564123Y-115587837D01*
X92065338Y-115587837D01*
X93000000Y-116522498D01*
X93934662Y-115587837D01*
X93789773Y-115328387D01*
X93438727Y-115207390D01*
X93070822Y-115157204D01*
X92700195Y-115179756D01*
X92341090Y-115274182D01*
X92210227Y-115328387D01*
X92065338Y-115587837D01*
X89564123Y-115587837D01*
X89536860Y-115546465D01*
X89454870Y-115476585D01*
X89356658Y-115432314D01*
X89250000Y-115417157D01*
X86750000Y-115417157D01*
X86689327Y-115421995D01*
X86586420Y-115453864D01*
X86496465Y-115513140D01*
X86426585Y-115595130D01*
X86382314Y-115693342D01*
X86367157Y-115800000D01*
X78027000Y-115800000D01*
X78027000Y-101071311D01*
X111409408Y-101071311D01*
X111431423Y-101313215D01*
X111500005Y-101546235D01*
X111612541Y-101761497D01*
X111764745Y-101950801D01*
X111950820Y-102106936D01*
X112163678Y-102223956D01*
X112395211Y-102297403D01*
X112636601Y-102324479D01*
X112653978Y-102324600D01*
X112666022Y-102324600D01*
X112907766Y-102300897D01*
X113140302Y-102230690D01*
X113354773Y-102116654D01*
X113543010Y-101963132D01*
X113697842Y-101775971D01*
X113813373Y-101562302D01*
X113819000Y-101544124D01*
X113819000Y-103151862D01*
X113707459Y-102938503D01*
X113555255Y-102749199D01*
X113369180Y-102593064D01*
X113156322Y-102476044D01*
X112924789Y-102402597D01*
X112683399Y-102375521D01*
X112666022Y-102375400D01*
X112653978Y-102375400D01*
X112412234Y-102399103D01*
X112179698Y-102469310D01*
X111965227Y-102583346D01*
X111776990Y-102736868D01*
X111622158Y-102924029D01*
X111506627Y-103137698D01*
X111434799Y-103369738D01*
X111409408Y-103611311D01*
X111431423Y-103853215D01*
X111500005Y-104086235D01*
X111612541Y-104301497D01*
X111764745Y-104490801D01*
X111950820Y-104646936D01*
X112163678Y-104763956D01*
X112395211Y-104837403D01*
X112636601Y-104864479D01*
X112653978Y-104864600D01*
X112666022Y-104864600D01*
X112907766Y-104840897D01*
X113140302Y-104770690D01*
X113354773Y-104656654D01*
X113543010Y-104503132D01*
X113697842Y-104315971D01*
X113813373Y-104102302D01*
X113819000Y-104084124D01*
X113819000Y-105691862D01*
X113707459Y-105478503D01*
X113555255Y-105289199D01*
X113369180Y-105133064D01*
X113156322Y-105016044D01*
X112924789Y-104942597D01*
X112683399Y-104915521D01*
X112666022Y-104915400D01*
X112653978Y-104915400D01*
X112412234Y-104939103D01*
X112179698Y-105009310D01*
X111965227Y-105123346D01*
X111776990Y-105276868D01*
X111622158Y-105464029D01*
X111506627Y-105677698D01*
X111434799Y-105909738D01*
X111409408Y-106151311D01*
X111431423Y-106393215D01*
X111500005Y-106626235D01*
X111612541Y-106841497D01*
X111764745Y-107030801D01*
X111950820Y-107186936D01*
X112163678Y-107303956D01*
X112395211Y-107377403D01*
X112636601Y-107404479D01*
X112653978Y-107404600D01*
X112666022Y-107404600D01*
X112907766Y-107380897D01*
X113140302Y-107310690D01*
X113354773Y-107196654D01*
X113543010Y-107043132D01*
X113697842Y-106855971D01*
X113813373Y-106642302D01*
X113819000Y-106624124D01*
X113819000Y-108231862D01*
X113707459Y-108018503D01*
X113555255Y-107829199D01*
X113369180Y-107673064D01*
X113156322Y-107556044D01*
X112924789Y-107482597D01*
X112683399Y-107455521D01*
X112666022Y-107455400D01*
X112653978Y-107455400D01*
X112412234Y-107479103D01*
X112179698Y-107549310D01*
X111965227Y-107663346D01*
X111776990Y-107816868D01*
X111622158Y-108004029D01*
X111506627Y-108217698D01*
X111434799Y-108449738D01*
X111409408Y-108691311D01*
X111431423Y-108933215D01*
X111500005Y-109166235D01*
X111612541Y-109381497D01*
X111764745Y-109570801D01*
X111950820Y-109726936D01*
X112163678Y-109843956D01*
X112395211Y-109917403D01*
X112636601Y-109944479D01*
X112653978Y-109944600D01*
X112666022Y-109944600D01*
X112907766Y-109920897D01*
X113140302Y-109850690D01*
X113354773Y-109736654D01*
X113543010Y-109583132D01*
X113697842Y-109395971D01*
X113813373Y-109182302D01*
X113819000Y-109164124D01*
X113819000Y-110771862D01*
X113707459Y-110558503D01*
X113555255Y-110369199D01*
X113369180Y-110213064D01*
X113156322Y-110096044D01*
X112924789Y-110022597D01*
X112683399Y-109995521D01*
X112666022Y-109995400D01*
X112653978Y-109995400D01*
X112412234Y-110019103D01*
X112179698Y-110089310D01*
X111965227Y-110203346D01*
X111776990Y-110356868D01*
X111622158Y-110544029D01*
X111506627Y-110757698D01*
X111434799Y-110989738D01*
X111409408Y-111231311D01*
X111431423Y-111473215D01*
X111500005Y-111706235D01*
X111612541Y-111921497D01*
X111764745Y-112110801D01*
X111950820Y-112266936D01*
X112163678Y-112383956D01*
X112395211Y-112457403D01*
X112636601Y-112484479D01*
X112653978Y-112484600D01*
X112666022Y-112484600D01*
X112907766Y-112460897D01*
X113140302Y-112390690D01*
X113354773Y-112276654D01*
X113543010Y-112123132D01*
X113697842Y-111935971D01*
X113813373Y-111722302D01*
X113819000Y-111704124D01*
X113819000Y-113311862D01*
X113707459Y-113098503D01*
X113555255Y-112909199D01*
X113369180Y-112753064D01*
X113156322Y-112636044D01*
X112924789Y-112562597D01*
X112683399Y-112535521D01*
X112666022Y-112535400D01*
X112653978Y-112535400D01*
X112412234Y-112559103D01*
X112179698Y-112629310D01*
X111965227Y-112743346D01*
X111776990Y-112896868D01*
X111622158Y-113084029D01*
X111506627Y-113297698D01*
X111434799Y-113529738D01*
X111409408Y-113771311D01*
X111431423Y-114013215D01*
X111500005Y-114246235D01*
X111612541Y-114461497D01*
X111764745Y-114650801D01*
X111950820Y-114806936D01*
X112163678Y-114923956D01*
X112395211Y-114997403D01*
X112636601Y-115024479D01*
X112653978Y-115024600D01*
X112666022Y-115024600D01*
X112907766Y-115000897D01*
X113140302Y-114930690D01*
X113354773Y-114816654D01*
X113543010Y-114663132D01*
X113697842Y-114475971D01*
X113813373Y-114262302D01*
X113862254Y-114104391D01*
X113923202Y-114306258D01*
X114049736Y-114544234D01*
X114069000Y-114567854D01*
X114069000Y-115796320D01*
X114046627Y-115837698D01*
X113974799Y-116069738D01*
X113949408Y-116311311D01*
X113971423Y-116553215D01*
X114040005Y-116786235D01*
X114069000Y-116841697D01*
X114069000Y-118336320D01*
X114046627Y-118377698D01*
X113974799Y-118609738D01*
X113949408Y-118851311D01*
X113971423Y-119093215D01*
X114040005Y-119326235D01*
X114152541Y-119541497D01*
X114304745Y-119730801D01*
X114490820Y-119886936D01*
X114703678Y-120003956D01*
X114935211Y-120077403D01*
X115176601Y-120104479D01*
X115193978Y-120104600D01*
X115206022Y-120104600D01*
X115447766Y-120080897D01*
X115680302Y-120010690D01*
X115894773Y-119896654D01*
X116083010Y-119743132D01*
X116237842Y-119555971D01*
X116353373Y-119342302D01*
X116425201Y-119110262D01*
X116450592Y-118868689D01*
X116428577Y-118626785D01*
X116359995Y-118393765D01*
X116331000Y-118338303D01*
X116331000Y-116843680D01*
X116353373Y-116802302D01*
X116425201Y-116570262D01*
X116450592Y-116328689D01*
X116428577Y-116086785D01*
X116359995Y-115853765D01*
X116331000Y-115798303D01*
X116331000Y-114570327D01*
X116339482Y-114560219D01*
X116469326Y-114324034D01*
X116550822Y-114067126D01*
X116580865Y-113799282D01*
X116581000Y-113780000D01*
X116581000Y-105372028D01*
X116952028Y-105001000D01*
X118050000Y-105001000D01*
X118318238Y-104974699D01*
X118576258Y-104896798D01*
X118814234Y-104770264D01*
X119023100Y-104599917D01*
X119194901Y-104392245D01*
X119323093Y-104155159D01*
X119343557Y-104089050D01*
X119343557Y-104483600D01*
X119348395Y-104544273D01*
X119380264Y-104647180D01*
X119439540Y-104737135D01*
X119521530Y-104807015D01*
X119619742Y-104851286D01*
X119726400Y-104866443D01*
X121453600Y-104866443D01*
X121514273Y-104861605D01*
X121617180Y-104829736D01*
X121707135Y-104770460D01*
X121777015Y-104688470D01*
X121821286Y-104590258D01*
X121836443Y-104483600D01*
X121836443Y-102756400D01*
X121831605Y-102695727D01*
X121799736Y-102592820D01*
X121740460Y-102502865D01*
X121658470Y-102432985D01*
X121560258Y-102388714D01*
X121453600Y-102373557D01*
X119726400Y-102373557D01*
X119665727Y-102378395D01*
X119562820Y-102410264D01*
X119472865Y-102469540D01*
X119402985Y-102551530D01*
X119358714Y-102649742D01*
X119343557Y-102756400D01*
X119343557Y-103147232D01*
X119330441Y-103102668D01*
X119205572Y-102863815D01*
X119036687Y-102653765D01*
X118830219Y-102480518D01*
X118594034Y-102350674D01*
X118369163Y-102279341D01*
X118530302Y-102230690D01*
X118744773Y-102116654D01*
X118933010Y-101963132D01*
X119087842Y-101775971D01*
X119203373Y-101562302D01*
X119275201Y-101330262D01*
X119300592Y-101088689D01*
X119299011Y-101071311D01*
X119339408Y-101071311D01*
X119361423Y-101313215D01*
X119430005Y-101546235D01*
X119542541Y-101761497D01*
X119694745Y-101950801D01*
X119880820Y-102106936D01*
X120093678Y-102223956D01*
X120325211Y-102297403D01*
X120566601Y-102324479D01*
X120583978Y-102324600D01*
X120596022Y-102324600D01*
X120837766Y-102300897D01*
X121070302Y-102230690D01*
X121284773Y-102116654D01*
X121473010Y-101963132D01*
X121627842Y-101775971D01*
X121743373Y-101562302D01*
X121815201Y-101330262D01*
X121840592Y-101088689D01*
X121818577Y-100846785D01*
X121749995Y-100613765D01*
X121637459Y-100398503D01*
X121485255Y-100209199D01*
X121299180Y-100053064D01*
X121086322Y-99936044D01*
X120854789Y-99862597D01*
X120613399Y-99835521D01*
X120596022Y-99835400D01*
X120583978Y-99835400D01*
X120342234Y-99859103D01*
X120109698Y-99929310D01*
X119895227Y-100043346D01*
X119706990Y-100196868D01*
X119552158Y-100384029D01*
X119436627Y-100597698D01*
X119364799Y-100829738D01*
X119339408Y-101071311D01*
X119299011Y-101071311D01*
X119278577Y-100846785D01*
X119209995Y-100613765D01*
X119097459Y-100398503D01*
X118945255Y-100209199D01*
X118759180Y-100053064D01*
X118546322Y-99936044D01*
X118314789Y-99862597D01*
X118073399Y-99835521D01*
X118056022Y-99835400D01*
X118043978Y-99835400D01*
X117802234Y-99859103D01*
X117569698Y-99929310D01*
X117355227Y-100043346D01*
X117166990Y-100196868D01*
X117012158Y-100384029D01*
X116896627Y-100597698D01*
X116824799Y-100829738D01*
X116799408Y-101071311D01*
X116821423Y-101313215D01*
X116890005Y-101546235D01*
X117002541Y-101761497D01*
X117154745Y-101950801D01*
X117340820Y-102106936D01*
X117553678Y-102223956D01*
X117601102Y-102239000D01*
X117090715Y-102239000D01*
X116581000Y-101729286D01*
X116581000Y-98540000D01*
X116580149Y-98531311D01*
X116799408Y-98531311D01*
X116821423Y-98773215D01*
X116890005Y-99006235D01*
X117002541Y-99221497D01*
X117154745Y-99410801D01*
X117340820Y-99566936D01*
X117553678Y-99683956D01*
X117785211Y-99757403D01*
X118026601Y-99784479D01*
X118043978Y-99784600D01*
X118056022Y-99784600D01*
X118297766Y-99760897D01*
X118530302Y-99690690D01*
X118744773Y-99576654D01*
X118933010Y-99423132D01*
X119087842Y-99235971D01*
X119203373Y-99022302D01*
X119275201Y-98790262D01*
X119300592Y-98548689D01*
X119299011Y-98531311D01*
X119339408Y-98531311D01*
X119361423Y-98773215D01*
X119430005Y-99006235D01*
X119542541Y-99221497D01*
X119694745Y-99410801D01*
X119880820Y-99566936D01*
X120093678Y-99683956D01*
X120325211Y-99757403D01*
X120566601Y-99784479D01*
X120583978Y-99784600D01*
X120596022Y-99784600D01*
X120837766Y-99760897D01*
X121070302Y-99690690D01*
X121284773Y-99576654D01*
X121473010Y-99423132D01*
X121627842Y-99235971D01*
X121743373Y-99022302D01*
X121815201Y-98790262D01*
X121840592Y-98548689D01*
X121818577Y-98306785D01*
X121749995Y-98073765D01*
X121637459Y-97858503D01*
X121485255Y-97669199D01*
X121299180Y-97513064D01*
X121086322Y-97396044D01*
X120854789Y-97322597D01*
X120613399Y-97295521D01*
X120596022Y-97295400D01*
X120583978Y-97295400D01*
X120342234Y-97319103D01*
X120109698Y-97389310D01*
X119895227Y-97503346D01*
X119706990Y-97656868D01*
X119552158Y-97844029D01*
X119436627Y-98057698D01*
X119364799Y-98289738D01*
X119339408Y-98531311D01*
X119299011Y-98531311D01*
X119278577Y-98306785D01*
X119209995Y-98073765D01*
X119097459Y-97858503D01*
X118945255Y-97669199D01*
X118759180Y-97513064D01*
X118546322Y-97396044D01*
X118314789Y-97322597D01*
X118073399Y-97295521D01*
X118056022Y-97295400D01*
X118043978Y-97295400D01*
X117802234Y-97319103D01*
X117569698Y-97389310D01*
X117355227Y-97503346D01*
X117166990Y-97656868D01*
X117012158Y-97844029D01*
X116896627Y-98057698D01*
X116824799Y-98289738D01*
X116799408Y-98531311D01*
X116580149Y-98531311D01*
X116554699Y-98271762D01*
X116476798Y-98013742D01*
X116350264Y-97775766D01*
X116179917Y-97566900D01*
X115972245Y-97395099D01*
X115735159Y-97266907D01*
X115477689Y-97187207D01*
X115209641Y-97159034D01*
X114941226Y-97183461D01*
X114682668Y-97259559D01*
X114443815Y-97384428D01*
X114233765Y-97553313D01*
X114060518Y-97759781D01*
X113930674Y-97995966D01*
X113906443Y-98072352D01*
X113906443Y-97676400D01*
X113901605Y-97615727D01*
X113869736Y-97512820D01*
X113810460Y-97422865D01*
X113728470Y-97352985D01*
X113630258Y-97308714D01*
X113523600Y-97293557D01*
X111796400Y-97293557D01*
X111735727Y-97298395D01*
X111632820Y-97330264D01*
X111542865Y-97389540D01*
X111472985Y-97471530D01*
X111428714Y-97569742D01*
X111413557Y-97676400D01*
X111413557Y-99403600D01*
X111418395Y-99464273D01*
X111450264Y-99567180D01*
X111509540Y-99657135D01*
X111591530Y-99727015D01*
X111689742Y-99771286D01*
X111796400Y-99786443D01*
X113523600Y-99786443D01*
X113584273Y-99781605D01*
X113687180Y-99749736D01*
X113777135Y-99690460D01*
X113819000Y-99641340D01*
X113819000Y-100611862D01*
X113707459Y-100398503D01*
X113555255Y-100209199D01*
X113369180Y-100053064D01*
X113156322Y-99936044D01*
X112924789Y-99862597D01*
X112683399Y-99835521D01*
X112666022Y-99835400D01*
X112653978Y-99835400D01*
X112412234Y-99859103D01*
X112179698Y-99929310D01*
X111965227Y-100043346D01*
X111776990Y-100196868D01*
X111622158Y-100384029D01*
X111506627Y-100597698D01*
X111434799Y-100829738D01*
X111409408Y-101071311D01*
X78027000Y-101071311D01*
X78027000Y-85736196D01*
X84089617Y-85736196D01*
X84315373Y-86966244D01*
X84775748Y-88129018D01*
X85453205Y-89180226D01*
X86321941Y-90079828D01*
X87348866Y-90793559D01*
X88494864Y-91294233D01*
X89716284Y-91562780D01*
X90966604Y-91588970D01*
X92198199Y-91371807D01*
X93364158Y-90919561D01*
X94420070Y-90249459D01*
X95325715Y-89387025D01*
X96046598Y-88365108D01*
X96555261Y-87222634D01*
X96832328Y-86003117D01*
X96836055Y-85736196D01*
X103139617Y-85736196D01*
X103365373Y-86966244D01*
X103825748Y-88129018D01*
X104503205Y-89180226D01*
X105371941Y-90079828D01*
X106398866Y-90793559D01*
X107544864Y-91294233D01*
X108766284Y-91562780D01*
X110016604Y-91588970D01*
X111248199Y-91371807D01*
X112414158Y-90919561D01*
X113470070Y-90249459D01*
X114375715Y-89387025D01*
X115096598Y-88365108D01*
X115605261Y-87222634D01*
X115882328Y-86003117D01*
X115902274Y-84574703D01*
X115659365Y-83347926D01*
X115182801Y-82191694D01*
X114490733Y-81150047D01*
X114277582Y-80935402D01*
X117042102Y-80935402D01*
X117120162Y-81360721D01*
X117279348Y-81762778D01*
X117513595Y-82126258D01*
X117813981Y-82437317D01*
X118169064Y-82684106D01*
X118565321Y-82857226D01*
X118987656Y-82950083D01*
X119419984Y-82959139D01*
X119845837Y-82884049D01*
X120248995Y-82727675D01*
X120614102Y-82495971D01*
X120927250Y-82197764D01*
X121176513Y-81844412D01*
X121352395Y-81449374D01*
X121448198Y-81027697D01*
X121455094Y-80533789D01*
X121371103Y-80109601D01*
X121206320Y-79709806D01*
X120967020Y-79349632D01*
X120662321Y-79042798D01*
X120303826Y-78800990D01*
X119905191Y-78633419D01*
X119481600Y-78546469D01*
X119049188Y-78543450D01*
X118624425Y-78624478D01*
X118223489Y-78786466D01*
X117861653Y-79023245D01*
X117552699Y-79325795D01*
X117308394Y-79682593D01*
X117138045Y-80080048D01*
X117048139Y-80503022D01*
X117042102Y-80935402D01*
X114277582Y-80935402D01*
X113609521Y-80262662D01*
X112572731Y-79563339D01*
X111419855Y-79078714D01*
X110194803Y-78827247D01*
X108944239Y-78818516D01*
X107715797Y-79052854D01*
X106556266Y-79521335D01*
X105509813Y-80206115D01*
X104616298Y-81081110D01*
X103909753Y-82112992D01*
X103417091Y-83262457D01*
X103157078Y-84485723D01*
X103139617Y-85736196D01*
X96836055Y-85736196D01*
X96852274Y-84574703D01*
X96609365Y-83347926D01*
X96132801Y-82191694D01*
X95440733Y-81150047D01*
X94559521Y-80262662D01*
X93522731Y-79563339D01*
X92369855Y-79078714D01*
X91144803Y-78827247D01*
X89894239Y-78818516D01*
X88665797Y-79052854D01*
X87506266Y-79521335D01*
X86459813Y-80206115D01*
X85566298Y-81081110D01*
X84859753Y-82112992D01*
X84367091Y-83262457D01*
X84107078Y-84485723D01*
X84089617Y-85736196D01*
X78027000Y-85736196D01*
X78027000Y-78477237D01*
X78076287Y-78384541D01*
X78213471Y-78216338D01*
X78380712Y-78077985D01*
X78475007Y-78027000D01*
X121527685Y-78027000D01*
X121615457Y-78073669D01*
X121615457Y-78073669D01*
G37*
X121615457Y-78073669D02*
X121783660Y-78210853D01*
X121922013Y-78378094D01*
X121973000Y-78472393D01*
X121973000Y-121527685D01*
X121926332Y-121615454D01*
X121789149Y-121783658D01*
X121621908Y-121922011D01*
X121527607Y-121973000D01*
X78472315Y-121973000D01*
X78384546Y-121926332D01*
X78216342Y-121789149D01*
X78077989Y-121621908D01*
X78027000Y-121527607D01*
X78027000Y-119435402D01*
X78542102Y-119435402D01*
X78620162Y-119860721D01*
X78779348Y-120262778D01*
X79013595Y-120626258D01*
X79313981Y-120937317D01*
X79669064Y-121184106D01*
X80065321Y-121357226D01*
X80487656Y-121450083D01*
X80919984Y-121459139D01*
X81345837Y-121384049D01*
X81748995Y-121227675D01*
X82114102Y-120995971D01*
X82427250Y-120697764D01*
X82629633Y-120410868D01*
X88325148Y-120410868D01*
X88350775Y-120550499D01*
X88403036Y-120682494D01*
X88479939Y-120801825D01*
X88578556Y-120903945D01*
X88695129Y-120984966D01*
X88825220Y-121041801D01*
X88963873Y-121072286D01*
X89105806Y-121075259D01*
X89245613Y-121050607D01*
X89377970Y-120999270D01*
X89497834Y-120923201D01*
X89499620Y-120921500D01*
X90553814Y-120921500D01*
X90645129Y-120984966D01*
X90775220Y-121041801D01*
X90913873Y-121072286D01*
X91055806Y-121075259D01*
X91195613Y-121050607D01*
X91327970Y-120999270D01*
X91447834Y-120923201D01*
X91550640Y-120825300D01*
X91632473Y-120709295D01*
X91690215Y-120579604D01*
X91721667Y-120441168D01*
X91723931Y-120279018D01*
X91696357Y-120139757D01*
X91642259Y-120008505D01*
X91563697Y-119890260D01*
X91463664Y-119789526D01*
X91345970Y-119710141D01*
X91215099Y-119655128D01*
X91076034Y-119626582D01*
X90934074Y-119625591D01*
X90794624Y-119652192D01*
X90662997Y-119705373D01*
X90551247Y-119778500D01*
X89497317Y-119778500D01*
X89395970Y-119710141D01*
X89265099Y-119655128D01*
X89126034Y-119626582D01*
X88984074Y-119625591D01*
X88844624Y-119652192D01*
X88712997Y-119705373D01*
X88594207Y-119783107D01*
X88492777Y-119882434D01*
X88412572Y-119999571D01*
X88356646Y-120130055D01*
X88327130Y-120268917D01*
X88325148Y-120410868D01*
X82629633Y-120410868D01*
X82676513Y-120344412D01*
X82852395Y-119949374D01*
X82948198Y-119527697D01*
X82955094Y-119033789D01*
X82871103Y-118609601D01*
X82706320Y-118209806D01*
X82467020Y-117849632D01*
X82162321Y-117542798D01*
X81803826Y-117300990D01*
X81405191Y-117133419D01*
X80981600Y-117046469D01*
X80549188Y-117043450D01*
X80124425Y-117124478D01*
X79723489Y-117286466D01*
X79361653Y-117523245D01*
X79052699Y-117825795D01*
X78808394Y-118182593D01*
X78638045Y-118580048D01*
X78548139Y-119003022D01*
X78542102Y-119435402D01*
X78027000Y-119435402D01*
X78027000Y-115800000D01*
X86367157Y-115800000D01*
X86367157Y-118300000D01*
X86371995Y-118360673D01*
X86403864Y-118463580D01*
X86463140Y-118553535D01*
X86545130Y-118623415D01*
X86643342Y-118667686D01*
X86750000Y-118682843D01*
X89250000Y-118682843D01*
X89310673Y-118678005D01*
X89413580Y-118646136D01*
X89503535Y-118586860D01*
X89567199Y-118512163D01*
X92065338Y-118512163D01*
X92210227Y-118771613D01*
X92561273Y-118892610D01*
X92929178Y-118942796D01*
X93299805Y-118920244D01*
X93561959Y-118851311D01*
X111409408Y-118851311D01*
X111431423Y-119093215D01*
X111500005Y-119326235D01*
X111612541Y-119541497D01*
X111764745Y-119730801D01*
X111950820Y-119886936D01*
X112163678Y-120003956D01*
X112395211Y-120077403D01*
X112636601Y-120104479D01*
X112653978Y-120104600D01*
X112666022Y-120104600D01*
X112907766Y-120080897D01*
X113140302Y-120010690D01*
X113354773Y-119896654D01*
X113543010Y-119743132D01*
X113697842Y-119555971D01*
X113813373Y-119342302D01*
X113885201Y-119110262D01*
X113910592Y-118868689D01*
X113888577Y-118626785D01*
X113819995Y-118393765D01*
X113707459Y-118178503D01*
X113555255Y-117989199D01*
X113369180Y-117833064D01*
X113156322Y-117716044D01*
X112924789Y-117642597D01*
X112683399Y-117615521D01*
X112666022Y-117615400D01*
X112653978Y-117615400D01*
X112412234Y-117639103D01*
X112179698Y-117709310D01*
X111965227Y-117823346D01*
X111776990Y-117976868D01*
X111622158Y-118164029D01*
X111506627Y-118377698D01*
X111434799Y-118609738D01*
X111409408Y-118851311D01*
X93561959Y-118851311D01*
X93658910Y-118825818D01*
X93789773Y-118771613D01*
X93934662Y-118512163D01*
X93000000Y-117577502D01*
X92065338Y-118512163D01*
X89567199Y-118512163D01*
X89573415Y-118504870D01*
X89617686Y-118406658D01*
X89632843Y-118300000D01*
X89632843Y-116979178D01*
X91107204Y-116979178D01*
X91129756Y-117349805D01*
X91224182Y-117708910D01*
X91278387Y-117839773D01*
X91537837Y-117984662D01*
X92472498Y-117050000D01*
X93527502Y-117050000D01*
X94462163Y-117984662D01*
X94721613Y-117839773D01*
X94842610Y-117488727D01*
X94892796Y-117120822D01*
X94870244Y-116750195D01*
X94775818Y-116391090D01*
X94742773Y-116311311D01*
X111409408Y-116311311D01*
X111431423Y-116553215D01*
X111500005Y-116786235D01*
X111612541Y-117001497D01*
X111764745Y-117190801D01*
X111950820Y-117346936D01*
X112163678Y-117463956D01*
X112395211Y-117537403D01*
X112636601Y-117564479D01*
X112653978Y-117564600D01*
X112666022Y-117564600D01*
X112907766Y-117540897D01*
X113140302Y-117470690D01*
X113354773Y-117356654D01*
X113543010Y-117203132D01*
X113697842Y-117015971D01*
X113813373Y-116802302D01*
X113885201Y-116570262D01*
X113910592Y-116328689D01*
X113888577Y-116086785D01*
X113819995Y-115853765D01*
X113707459Y-115638503D01*
X113555255Y-115449199D01*
X113369180Y-115293064D01*
X113156322Y-115176044D01*
X112924789Y-115102597D01*
X112683399Y-115075521D01*
X112666022Y-115075400D01*
X112653978Y-115075400D01*
X112412234Y-115099103D01*
X112179698Y-115169310D01*
X111965227Y-115283346D01*
X111776990Y-115436868D01*
X111622158Y-115624029D01*
X111506627Y-115837698D01*
X111434799Y-116069738D01*
X111409408Y-116311311D01*
X94742773Y-116311311D01*
X94721613Y-116260227D01*
X94462163Y-116115338D01*
X93527502Y-117050000D01*
X92472498Y-117050000D01*
X91537837Y-116115338D01*
X91278387Y-116260227D01*
X91157390Y-116611273D01*
X91107204Y-116979178D01*
X89632843Y-116979178D01*
X89632843Y-115800000D01*
X89628005Y-115739327D01*
X89596136Y-115636420D01*
X89564123Y-115587837D01*
X92065338Y-115587837D01*
X93000000Y-116522498D01*
X93934662Y-115587837D01*
X93789773Y-115328387D01*
X93438727Y-115207390D01*
X93070822Y-115157204D01*
X92700195Y-115179756D01*
X92341090Y-115274182D01*
X92210227Y-115328387D01*
X92065338Y-115587837D01*
X89564123Y-115587837D01*
X89536860Y-115546465D01*
X89454870Y-115476585D01*
X89356658Y-115432314D01*
X89250000Y-115417157D01*
X86750000Y-115417157D01*
X86689327Y-115421995D01*
X86586420Y-115453864D01*
X86496465Y-115513140D01*
X86426585Y-115595130D01*
X86382314Y-115693342D01*
X86367157Y-115800000D01*
X78027000Y-115800000D01*
X78027000Y-101071311D01*
X111409408Y-101071311D01*
X111431423Y-101313215D01*
X111500005Y-101546235D01*
X111612541Y-101761497D01*
X111764745Y-101950801D01*
X111950820Y-102106936D01*
X112163678Y-102223956D01*
X112395211Y-102297403D01*
X112636601Y-102324479D01*
X112653978Y-102324600D01*
X112666022Y-102324600D01*
X112907766Y-102300897D01*
X113140302Y-102230690D01*
X113354773Y-102116654D01*
X113543010Y-101963132D01*
X113697842Y-101775971D01*
X113813373Y-101562302D01*
X113819000Y-101544124D01*
X113819000Y-103151862D01*
X113707459Y-102938503D01*
X113555255Y-102749199D01*
X113369180Y-102593064D01*
X113156322Y-102476044D01*
X112924789Y-102402597D01*
X112683399Y-102375521D01*
X112666022Y-102375400D01*
X112653978Y-102375400D01*
X112412234Y-102399103D01*
X112179698Y-102469310D01*
X111965227Y-102583346D01*
X111776990Y-102736868D01*
X111622158Y-102924029D01*
X111506627Y-103137698D01*
X111434799Y-103369738D01*
X111409408Y-103611311D01*
X111431423Y-103853215D01*
X111500005Y-104086235D01*
X111612541Y-104301497D01*
X111764745Y-104490801D01*
X111950820Y-104646936D01*
X112163678Y-104763956D01*
X112395211Y-104837403D01*
X112636601Y-104864479D01*
X112653978Y-104864600D01*
X112666022Y-104864600D01*
X112907766Y-104840897D01*
X113140302Y-104770690D01*
X113354773Y-104656654D01*
X113543010Y-104503132D01*
X113697842Y-104315971D01*
X113813373Y-104102302D01*
X113819000Y-104084124D01*
X113819000Y-105691862D01*
X113707459Y-105478503D01*
X113555255Y-105289199D01*
X113369180Y-105133064D01*
X113156322Y-105016044D01*
X112924789Y-104942597D01*
X112683399Y-104915521D01*
X112666022Y-104915400D01*
X112653978Y-104915400D01*
X112412234Y-104939103D01*
X112179698Y-105009310D01*
X111965227Y-105123346D01*
X111776990Y-105276868D01*
X111622158Y-105464029D01*
X111506627Y-105677698D01*
X111434799Y-105909738D01*
X111409408Y-106151311D01*
X111431423Y-106393215D01*
X111500005Y-106626235D01*
X111612541Y-106841497D01*
X111764745Y-107030801D01*
X111950820Y-107186936D01*
X112163678Y-107303956D01*
X112395211Y-107377403D01*
X112636601Y-107404479D01*
X112653978Y-107404600D01*
X112666022Y-107404600D01*
X112907766Y-107380897D01*
X113140302Y-107310690D01*
X113354773Y-107196654D01*
X113543010Y-107043132D01*
X113697842Y-106855971D01*
X113813373Y-106642302D01*
X113819000Y-106624124D01*
X113819000Y-108231862D01*
X113707459Y-108018503D01*
X113555255Y-107829199D01*
X113369180Y-107673064D01*
X113156322Y-107556044D01*
X112924789Y-107482597D01*
X112683399Y-107455521D01*
X112666022Y-107455400D01*
X112653978Y-107455400D01*
X112412234Y-107479103D01*
X112179698Y-107549310D01*
X111965227Y-107663346D01*
X111776990Y-107816868D01*
X111622158Y-108004029D01*
X111506627Y-108217698D01*
X111434799Y-108449738D01*
X111409408Y-108691311D01*
X111431423Y-108933215D01*
X111500005Y-109166235D01*
X111612541Y-109381497D01*
X111764745Y-109570801D01*
X111950820Y-109726936D01*
X112163678Y-109843956D01*
X112395211Y-109917403D01*
X112636601Y-109944479D01*
X112653978Y-109944600D01*
X112666022Y-109944600D01*
X112907766Y-109920897D01*
X113140302Y-109850690D01*
X113354773Y-109736654D01*
X113543010Y-109583132D01*
X113697842Y-109395971D01*
X113813373Y-109182302D01*
X113819000Y-109164124D01*
X113819000Y-110771862D01*
X113707459Y-110558503D01*
X113555255Y-110369199D01*
X113369180Y-110213064D01*
X113156322Y-110096044D01*
X112924789Y-110022597D01*
X112683399Y-109995521D01*
X112666022Y-109995400D01*
X112653978Y-109995400D01*
X112412234Y-110019103D01*
X112179698Y-110089310D01*
X111965227Y-110203346D01*
X111776990Y-110356868D01*
X111622158Y-110544029D01*
X111506627Y-110757698D01*
X111434799Y-110989738D01*
X111409408Y-111231311D01*
X111431423Y-111473215D01*
X111500005Y-111706235D01*
X111612541Y-111921497D01*
X111764745Y-112110801D01*
X111950820Y-112266936D01*
X112163678Y-112383956D01*
X112395211Y-112457403D01*
X112636601Y-112484479D01*
X112653978Y-112484600D01*
X112666022Y-112484600D01*
X112907766Y-112460897D01*
X113140302Y-112390690D01*
X113354773Y-112276654D01*
X113543010Y-112123132D01*
X113697842Y-111935971D01*
X113813373Y-111722302D01*
X113819000Y-111704124D01*
X113819000Y-113311862D01*
X113707459Y-113098503D01*
X113555255Y-112909199D01*
X113369180Y-112753064D01*
X113156322Y-112636044D01*
X112924789Y-112562597D01*
X112683399Y-112535521D01*
X112666022Y-112535400D01*
X112653978Y-112535400D01*
X112412234Y-112559103D01*
X112179698Y-112629310D01*
X111965227Y-112743346D01*
X111776990Y-112896868D01*
X111622158Y-113084029D01*
X111506627Y-113297698D01*
X111434799Y-113529738D01*
X111409408Y-113771311D01*
X111431423Y-114013215D01*
X111500005Y-114246235D01*
X111612541Y-114461497D01*
X111764745Y-114650801D01*
X111950820Y-114806936D01*
X112163678Y-114923956D01*
X112395211Y-114997403D01*
X112636601Y-115024479D01*
X112653978Y-115024600D01*
X112666022Y-115024600D01*
X112907766Y-115000897D01*
X113140302Y-114930690D01*
X113354773Y-114816654D01*
X113543010Y-114663132D01*
X113697842Y-114475971D01*
X113813373Y-114262302D01*
X113862254Y-114104391D01*
X113923202Y-114306258D01*
X114049736Y-114544234D01*
X114069000Y-114567854D01*
X114069000Y-115796320D01*
X114046627Y-115837698D01*
X113974799Y-116069738D01*
X113949408Y-116311311D01*
X113971423Y-116553215D01*
X114040005Y-116786235D01*
X114069000Y-116841697D01*
X114069000Y-118336320D01*
X114046627Y-118377698D01*
X113974799Y-118609738D01*
X113949408Y-118851311D01*
X113971423Y-119093215D01*
X114040005Y-119326235D01*
X114152541Y-119541497D01*
X114304745Y-119730801D01*
X114490820Y-119886936D01*
X114703678Y-120003956D01*
X114935211Y-120077403D01*
X115176601Y-120104479D01*
X115193978Y-120104600D01*
X115206022Y-120104600D01*
X115447766Y-120080897D01*
X115680302Y-120010690D01*
X115894773Y-119896654D01*
X116083010Y-119743132D01*
X116237842Y-119555971D01*
X116353373Y-119342302D01*
X116425201Y-119110262D01*
X116450592Y-118868689D01*
X116428577Y-118626785D01*
X116359995Y-118393765D01*
X116331000Y-118338303D01*
X116331000Y-116843680D01*
X116353373Y-116802302D01*
X116425201Y-116570262D01*
X116450592Y-116328689D01*
X116428577Y-116086785D01*
X116359995Y-115853765D01*
X116331000Y-115798303D01*
X116331000Y-114570327D01*
X116339482Y-114560219D01*
X116469326Y-114324034D01*
X116550822Y-114067126D01*
X116580865Y-113799282D01*
X116581000Y-113780000D01*
X116581000Y-105372028D01*
X116952028Y-105001000D01*
X118050000Y-105001000D01*
X118318238Y-104974699D01*
X118576258Y-104896798D01*
X118814234Y-104770264D01*
X119023100Y-104599917D01*
X119194901Y-104392245D01*
X119323093Y-104155159D01*
X119343557Y-104089050D01*
X119343557Y-104483600D01*
X119348395Y-104544273D01*
X119380264Y-104647180D01*
X119439540Y-104737135D01*
X119521530Y-104807015D01*
X119619742Y-104851286D01*
X119726400Y-104866443D01*
X121453600Y-104866443D01*
X121514273Y-104861605D01*
X121617180Y-104829736D01*
X121707135Y-104770460D01*
X121777015Y-104688470D01*
X121821286Y-104590258D01*
X121836443Y-104483600D01*
X121836443Y-102756400D01*
X121831605Y-102695727D01*
X121799736Y-102592820D01*
X121740460Y-102502865D01*
X121658470Y-102432985D01*
X121560258Y-102388714D01*
X121453600Y-102373557D01*
X119726400Y-102373557D01*
X119665727Y-102378395D01*
X119562820Y-102410264D01*
X119472865Y-102469540D01*
X119402985Y-102551530D01*
X119358714Y-102649742D01*
X119343557Y-102756400D01*
X119343557Y-103147232D01*
X119330441Y-103102668D01*
X119205572Y-102863815D01*
X119036687Y-102653765D01*
X118830219Y-102480518D01*
X118594034Y-102350674D01*
X118369163Y-102279341D01*
X118530302Y-102230690D01*
X118744773Y-102116654D01*
X118933010Y-101963132D01*
X119087842Y-101775971D01*
X119203373Y-101562302D01*
X119275201Y-101330262D01*
X119300592Y-101088689D01*
X119299011Y-101071311D01*
X119339408Y-101071311D01*
X119361423Y-101313215D01*
X119430005Y-101546235D01*
X119542541Y-101761497D01*
X119694745Y-101950801D01*
X119880820Y-102106936D01*
X120093678Y-102223956D01*
X120325211Y-102297403D01*
X120566601Y-102324479D01*
X120583978Y-102324600D01*
X120596022Y-102324600D01*
X120837766Y-102300897D01*
X121070302Y-102230690D01*
X121284773Y-102116654D01*
X121473010Y-101963132D01*
X121627842Y-101775971D01*
X121743373Y-101562302D01*
X121815201Y-101330262D01*
X121840592Y-101088689D01*
X121818577Y-100846785D01*
X121749995Y-100613765D01*
X121637459Y-100398503D01*
X121485255Y-100209199D01*
X121299180Y-100053064D01*
X121086322Y-99936044D01*
X120854789Y-99862597D01*
X120613399Y-99835521D01*
X120596022Y-99835400D01*
X120583978Y-99835400D01*
X120342234Y-99859103D01*
X120109698Y-99929310D01*
X119895227Y-100043346D01*
X119706990Y-100196868D01*
X119552158Y-100384029D01*
X119436627Y-100597698D01*
X119364799Y-100829738D01*
X119339408Y-101071311D01*
X119299011Y-101071311D01*
X119278577Y-100846785D01*
X119209995Y-100613765D01*
X119097459Y-100398503D01*
X118945255Y-100209199D01*
X118759180Y-100053064D01*
X118546322Y-99936044D01*
X118314789Y-99862597D01*
X118073399Y-99835521D01*
X118056022Y-99835400D01*
X118043978Y-99835400D01*
X117802234Y-99859103D01*
X117569698Y-99929310D01*
X117355227Y-100043346D01*
X117166990Y-100196868D01*
X117012158Y-100384029D01*
X116896627Y-100597698D01*
X116824799Y-100829738D01*
X116799408Y-101071311D01*
X116821423Y-101313215D01*
X116890005Y-101546235D01*
X117002541Y-101761497D01*
X117154745Y-101950801D01*
X117340820Y-102106936D01*
X117553678Y-102223956D01*
X117601102Y-102239000D01*
X117090715Y-102239000D01*
X116581000Y-101729286D01*
X116581000Y-98540000D01*
X116580149Y-98531311D01*
X116799408Y-98531311D01*
X116821423Y-98773215D01*
X116890005Y-99006235D01*
X117002541Y-99221497D01*
X117154745Y-99410801D01*
X117340820Y-99566936D01*
X117553678Y-99683956D01*
X117785211Y-99757403D01*
X118026601Y-99784479D01*
X118043978Y-99784600D01*
X118056022Y-99784600D01*
X118297766Y-99760897D01*
X118530302Y-99690690D01*
X118744773Y-99576654D01*
X118933010Y-99423132D01*
X119087842Y-99235971D01*
X119203373Y-99022302D01*
X119275201Y-98790262D01*
X119300592Y-98548689D01*
X119299011Y-98531311D01*
X119339408Y-98531311D01*
X119361423Y-98773215D01*
X119430005Y-99006235D01*
X119542541Y-99221497D01*
X119694745Y-99410801D01*
X119880820Y-99566936D01*
X120093678Y-99683956D01*
X120325211Y-99757403D01*
X120566601Y-99784479D01*
X120583978Y-99784600D01*
X120596022Y-99784600D01*
X120837766Y-99760897D01*
X121070302Y-99690690D01*
X121284773Y-99576654D01*
X121473010Y-99423132D01*
X121627842Y-99235971D01*
X121743373Y-99022302D01*
X121815201Y-98790262D01*
X121840592Y-98548689D01*
X121818577Y-98306785D01*
X121749995Y-98073765D01*
X121637459Y-97858503D01*
X121485255Y-97669199D01*
X121299180Y-97513064D01*
X121086322Y-97396044D01*
X120854789Y-97322597D01*
X120613399Y-97295521D01*
X120596022Y-97295400D01*
X120583978Y-97295400D01*
X120342234Y-97319103D01*
X120109698Y-97389310D01*
X119895227Y-97503346D01*
X119706990Y-97656868D01*
X119552158Y-97844029D01*
X119436627Y-98057698D01*
X119364799Y-98289738D01*
X119339408Y-98531311D01*
X119299011Y-98531311D01*
X119278577Y-98306785D01*
X119209995Y-98073765D01*
X119097459Y-97858503D01*
X118945255Y-97669199D01*
X118759180Y-97513064D01*
X118546322Y-97396044D01*
X118314789Y-97322597D01*
X118073399Y-97295521D01*
X118056022Y-97295400D01*
X118043978Y-97295400D01*
X117802234Y-97319103D01*
X117569698Y-97389310D01*
X117355227Y-97503346D01*
X117166990Y-97656868D01*
X117012158Y-97844029D01*
X116896627Y-98057698D01*
X116824799Y-98289738D01*
X116799408Y-98531311D01*
X116580149Y-98531311D01*
X116554699Y-98271762D01*
X116476798Y-98013742D01*
X116350264Y-97775766D01*
X116179917Y-97566900D01*
X115972245Y-97395099D01*
X115735159Y-97266907D01*
X115477689Y-97187207D01*
X115209641Y-97159034D01*
X114941226Y-97183461D01*
X114682668Y-97259559D01*
X114443815Y-97384428D01*
X114233765Y-97553313D01*
X114060518Y-97759781D01*
X113930674Y-97995966D01*
X113906443Y-98072352D01*
X113906443Y-97676400D01*
X113901605Y-97615727D01*
X113869736Y-97512820D01*
X113810460Y-97422865D01*
X113728470Y-97352985D01*
X113630258Y-97308714D01*
X113523600Y-97293557D01*
X111796400Y-97293557D01*
X111735727Y-97298395D01*
X111632820Y-97330264D01*
X111542865Y-97389540D01*
X111472985Y-97471530D01*
X111428714Y-97569742D01*
X111413557Y-97676400D01*
X111413557Y-99403600D01*
X111418395Y-99464273D01*
X111450264Y-99567180D01*
X111509540Y-99657135D01*
X111591530Y-99727015D01*
X111689742Y-99771286D01*
X111796400Y-99786443D01*
X113523600Y-99786443D01*
X113584273Y-99781605D01*
X113687180Y-99749736D01*
X113777135Y-99690460D01*
X113819000Y-99641340D01*
X113819000Y-100611862D01*
X113707459Y-100398503D01*
X113555255Y-100209199D01*
X113369180Y-100053064D01*
X113156322Y-99936044D01*
X112924789Y-99862597D01*
X112683399Y-99835521D01*
X112666022Y-99835400D01*
X112653978Y-99835400D01*
X112412234Y-99859103D01*
X112179698Y-99929310D01*
X111965227Y-100043346D01*
X111776990Y-100196868D01*
X111622158Y-100384029D01*
X111506627Y-100597698D01*
X111434799Y-100829738D01*
X111409408Y-101071311D01*
X78027000Y-101071311D01*
X78027000Y-85736196D01*
X84089617Y-85736196D01*
X84315373Y-86966244D01*
X84775748Y-88129018D01*
X85453205Y-89180226D01*
X86321941Y-90079828D01*
X87348866Y-90793559D01*
X88494864Y-91294233D01*
X89716284Y-91562780D01*
X90966604Y-91588970D01*
X92198199Y-91371807D01*
X93364158Y-90919561D01*
X94420070Y-90249459D01*
X95325715Y-89387025D01*
X96046598Y-88365108D01*
X96555261Y-87222634D01*
X96832328Y-86003117D01*
X96836055Y-85736196D01*
X103139617Y-85736196D01*
X103365373Y-86966244D01*
X103825748Y-88129018D01*
X104503205Y-89180226D01*
X105371941Y-90079828D01*
X106398866Y-90793559D01*
X107544864Y-91294233D01*
X108766284Y-91562780D01*
X110016604Y-91588970D01*
X111248199Y-91371807D01*
X112414158Y-90919561D01*
X113470070Y-90249459D01*
X114375715Y-89387025D01*
X115096598Y-88365108D01*
X115605261Y-87222634D01*
X115882328Y-86003117D01*
X115902274Y-84574703D01*
X115659365Y-83347926D01*
X115182801Y-82191694D01*
X114490733Y-81150047D01*
X114277582Y-80935402D01*
X117042102Y-80935402D01*
X117120162Y-81360721D01*
X117279348Y-81762778D01*
X117513595Y-82126258D01*
X117813981Y-82437317D01*
X118169064Y-82684106D01*
X118565321Y-82857226D01*
X118987656Y-82950083D01*
X119419984Y-82959139D01*
X119845837Y-82884049D01*
X120248995Y-82727675D01*
X120614102Y-82495971D01*
X120927250Y-82197764D01*
X121176513Y-81844412D01*
X121352395Y-81449374D01*
X121448198Y-81027697D01*
X121455094Y-80533789D01*
X121371103Y-80109601D01*
X121206320Y-79709806D01*
X120967020Y-79349632D01*
X120662321Y-79042798D01*
X120303826Y-78800990D01*
X119905191Y-78633419D01*
X119481600Y-78546469D01*
X119049188Y-78543450D01*
X118624425Y-78624478D01*
X118223489Y-78786466D01*
X117861653Y-79023245D01*
X117552699Y-79325795D01*
X117308394Y-79682593D01*
X117138045Y-80080048D01*
X117048139Y-80503022D01*
X117042102Y-80935402D01*
X114277582Y-80935402D01*
X113609521Y-80262662D01*
X112572731Y-79563339D01*
X111419855Y-79078714D01*
X110194803Y-78827247D01*
X108944239Y-78818516D01*
X107715797Y-79052854D01*
X106556266Y-79521335D01*
X105509813Y-80206115D01*
X104616298Y-81081110D01*
X103909753Y-82112992D01*
X103417091Y-83262457D01*
X103157078Y-84485723D01*
X103139617Y-85736196D01*
X96836055Y-85736196D01*
X96852274Y-84574703D01*
X96609365Y-83347926D01*
X96132801Y-82191694D01*
X95440733Y-81150047D01*
X94559521Y-80262662D01*
X93522731Y-79563339D01*
X92369855Y-79078714D01*
X91144803Y-78827247D01*
X89894239Y-78818516D01*
X88665797Y-79052854D01*
X87506266Y-79521335D01*
X86459813Y-80206115D01*
X85566298Y-81081110D01*
X84859753Y-82112992D01*
X84367091Y-83262457D01*
X84107078Y-84485723D01*
X84089617Y-85736196D01*
X78027000Y-85736196D01*
X78027000Y-78477237D01*
X78076287Y-78384541D01*
X78213471Y-78216338D01*
X78380712Y-78077985D01*
X78475007Y-78027000D01*
X121527685Y-78027000D01*
X121615457Y-78073669D01*
M02*
