G04 #@! TF.FileFunction,Legend,Bot*
%FSLAX46Y46*%
G04 Gerber Fmt 4.6, Leading zero omitted, Abs format (unit mm)*
G04 Created by KiCad (PCBNEW 4.0.4-stable) date Monday, August 28, 2017 'PMt' 10:13:35 PM*
%MOMM*%
%LPD*%
G01*
G04 APERTURE LIST*
%ADD10C,0.100000*%
%ADD11C,0.150000*%
%ADD12C,0.300000*%
%ADD13C,0.010000*%
%ADD14C,0.120000*%
G04 APERTURE END LIST*
D10*
D11*
X80083333Y-78573810D02*
X80035714Y-78526190D01*
X79892857Y-78430952D01*
X79797619Y-78383333D01*
X79654762Y-78335714D01*
X79416667Y-78288095D01*
X79226190Y-78288095D01*
X78988095Y-78335714D01*
X78845238Y-78383333D01*
X78750000Y-78430952D01*
X78607143Y-78526190D01*
X78559524Y-78573810D01*
X79654762Y-79383334D02*
X79702381Y-79288096D01*
X79702381Y-79097619D01*
X79654762Y-79002381D01*
X79607143Y-78954762D01*
X79511905Y-78907143D01*
X79226190Y-78907143D01*
X79130952Y-78954762D01*
X79083333Y-79002381D01*
X79035714Y-79097619D01*
X79035714Y-79288096D01*
X79083333Y-79383334D01*
X80083333Y-79716667D02*
X80035714Y-79764286D01*
X79892857Y-79859524D01*
X79797619Y-79907143D01*
X79654762Y-79954762D01*
X79416667Y-80002381D01*
X79226190Y-80002381D01*
X78988095Y-79954762D01*
X78845238Y-79907143D01*
X78750000Y-79859524D01*
X78607143Y-79764286D01*
X78559524Y-79716667D01*
X78797619Y-80430953D02*
X78750000Y-80478572D01*
X78702381Y-80573810D01*
X78702381Y-80811906D01*
X78750000Y-80907144D01*
X78797619Y-80954763D01*
X78892857Y-81002382D01*
X78988095Y-81002382D01*
X79130952Y-80954763D01*
X79702381Y-80383334D01*
X79702381Y-81002382D01*
X78702381Y-81621429D02*
X78702381Y-81716668D01*
X78750000Y-81811906D01*
X78797619Y-81859525D01*
X78892857Y-81907144D01*
X79083333Y-81954763D01*
X79321429Y-81954763D01*
X79511905Y-81907144D01*
X79607143Y-81859525D01*
X79654762Y-81811906D01*
X79702381Y-81716668D01*
X79702381Y-81621429D01*
X79654762Y-81526191D01*
X79607143Y-81478572D01*
X79511905Y-81430953D01*
X79321429Y-81383334D01*
X79083333Y-81383334D01*
X78892857Y-81430953D01*
X78797619Y-81478572D01*
X78750000Y-81526191D01*
X78702381Y-81621429D01*
X79702381Y-82907144D02*
X79702381Y-82335715D01*
X79702381Y-82621429D02*
X78702381Y-82621429D01*
X78845238Y-82526191D01*
X78940476Y-82430953D01*
X78988095Y-82335715D01*
X78702381Y-83240477D02*
X78702381Y-83907144D01*
X79702381Y-83478572D01*
X79702381Y-85050001D02*
X78702381Y-85050001D01*
X79416667Y-85383335D01*
X78702381Y-85716668D01*
X79702381Y-85716668D01*
X79702381Y-86621430D02*
X79178571Y-86621430D01*
X79083333Y-86573811D01*
X79035714Y-86478573D01*
X79035714Y-86288096D01*
X79083333Y-86192858D01*
X79654762Y-86621430D02*
X79702381Y-86526192D01*
X79702381Y-86288096D01*
X79654762Y-86192858D01*
X79559524Y-86145239D01*
X79464286Y-86145239D01*
X79369048Y-86192858D01*
X79321429Y-86288096D01*
X79321429Y-86526192D01*
X79273810Y-86621430D01*
X79035714Y-86954763D02*
X79035714Y-87335715D01*
X78702381Y-87097620D02*
X79559524Y-87097620D01*
X79654762Y-87145239D01*
X79702381Y-87240477D01*
X79702381Y-87335715D01*
X79035714Y-87526192D02*
X79035714Y-87907144D01*
X78702381Y-87669049D02*
X79559524Y-87669049D01*
X79654762Y-87716668D01*
X79702381Y-87811906D01*
X79702381Y-87907144D01*
X79702381Y-88240478D02*
X78702381Y-88240478D01*
X79702381Y-88669050D02*
X79178571Y-88669050D01*
X79083333Y-88621431D01*
X79035714Y-88526193D01*
X79035714Y-88383335D01*
X79083333Y-88288097D01*
X79130952Y-88240478D01*
X79654762Y-89526193D02*
X79702381Y-89430955D01*
X79702381Y-89240478D01*
X79654762Y-89145240D01*
X79559524Y-89097621D01*
X79178571Y-89097621D01*
X79083333Y-89145240D01*
X79035714Y-89240478D01*
X79035714Y-89430955D01*
X79083333Y-89526193D01*
X79178571Y-89573812D01*
X79273810Y-89573812D01*
X79369048Y-89097621D01*
X79035714Y-89907145D02*
X79702381Y-90097621D01*
X79226190Y-90288098D01*
X79702381Y-90478574D01*
X79035714Y-90669050D01*
X79178571Y-92145241D02*
X79226190Y-92288098D01*
X79273810Y-92335717D01*
X79369048Y-92383336D01*
X79511905Y-92383336D01*
X79607143Y-92335717D01*
X79654762Y-92288098D01*
X79702381Y-92192860D01*
X79702381Y-91811907D01*
X78702381Y-91811907D01*
X78702381Y-92145241D01*
X78750000Y-92240479D01*
X78797619Y-92288098D01*
X78892857Y-92335717D01*
X78988095Y-92335717D01*
X79083333Y-92288098D01*
X79130952Y-92240479D01*
X79178571Y-92145241D01*
X79178571Y-91811907D01*
X79702381Y-92954764D02*
X79654762Y-92859526D01*
X79559524Y-92811907D01*
X78702381Y-92811907D01*
X79654762Y-93716670D02*
X79702381Y-93621432D01*
X79702381Y-93430955D01*
X79654762Y-93335717D01*
X79559524Y-93288098D01*
X79178571Y-93288098D01*
X79083333Y-93335717D01*
X79035714Y-93430955D01*
X79035714Y-93621432D01*
X79083333Y-93716670D01*
X79178571Y-93764289D01*
X79273810Y-93764289D01*
X79369048Y-93288098D01*
X79654762Y-94145241D02*
X79702381Y-94240479D01*
X79702381Y-94430955D01*
X79654762Y-94526194D01*
X79559524Y-94573813D01*
X79511905Y-94573813D01*
X79416667Y-94526194D01*
X79369048Y-94430955D01*
X79369048Y-94288098D01*
X79321429Y-94192860D01*
X79226190Y-94145241D01*
X79178571Y-94145241D01*
X79083333Y-94192860D01*
X79035714Y-94288098D01*
X79035714Y-94430955D01*
X79083333Y-94526194D01*
X79654762Y-94954765D02*
X79702381Y-95050003D01*
X79702381Y-95240479D01*
X79654762Y-95335718D01*
X79559524Y-95383337D01*
X79511905Y-95383337D01*
X79416667Y-95335718D01*
X79369048Y-95240479D01*
X79369048Y-95097622D01*
X79321429Y-95002384D01*
X79226190Y-94954765D01*
X79178571Y-94954765D01*
X79083333Y-95002384D01*
X79035714Y-95097622D01*
X79035714Y-95240479D01*
X79083333Y-95335718D01*
X79702381Y-95811908D02*
X79035714Y-95811908D01*
X78702381Y-95811908D02*
X78750000Y-95764289D01*
X78797619Y-95811908D01*
X78750000Y-95859527D01*
X78702381Y-95811908D01*
X78797619Y-95811908D01*
X79035714Y-96288098D02*
X79702381Y-96288098D01*
X79130952Y-96288098D02*
X79083333Y-96335717D01*
X79035714Y-96430955D01*
X79035714Y-96573813D01*
X79083333Y-96669051D01*
X79178571Y-96716670D01*
X79702381Y-96716670D01*
X79035714Y-97621432D02*
X79845238Y-97621432D01*
X79940476Y-97573813D01*
X79988095Y-97526194D01*
X80035714Y-97430955D01*
X80035714Y-97288098D01*
X79988095Y-97192860D01*
X79654762Y-97621432D02*
X79702381Y-97526194D01*
X79702381Y-97335717D01*
X79654762Y-97240479D01*
X79607143Y-97192860D01*
X79511905Y-97145241D01*
X79226190Y-97145241D01*
X79130952Y-97192860D01*
X79083333Y-97240479D01*
X79035714Y-97335717D01*
X79035714Y-97526194D01*
X79083333Y-97621432D01*
X79654762Y-98478575D02*
X79702381Y-98383337D01*
X79702381Y-98192860D01*
X79654762Y-98097622D01*
X79559524Y-98050003D01*
X79178571Y-98050003D01*
X79083333Y-98097622D01*
X79035714Y-98192860D01*
X79035714Y-98383337D01*
X79083333Y-98478575D01*
X79178571Y-98526194D01*
X79273810Y-98526194D01*
X79369048Y-98050003D01*
X79702381Y-98954765D02*
X79035714Y-98954765D01*
X79226190Y-98954765D02*
X79130952Y-99002384D01*
X79083333Y-99050003D01*
X79035714Y-99145241D01*
X79035714Y-99240480D01*
X83235714Y-78292857D02*
X83902381Y-78530952D01*
X83235714Y-78769048D01*
X82902381Y-79340476D02*
X82902381Y-79435715D01*
X82950000Y-79530953D01*
X82997619Y-79578572D01*
X83092857Y-79626191D01*
X83283333Y-79673810D01*
X83521429Y-79673810D01*
X83711905Y-79626191D01*
X83807143Y-79578572D01*
X83854762Y-79530953D01*
X83902381Y-79435715D01*
X83902381Y-79340476D01*
X83854762Y-79245238D01*
X83807143Y-79197619D01*
X83711905Y-79150000D01*
X83521429Y-79102381D01*
X83283333Y-79102381D01*
X83092857Y-79150000D01*
X82997619Y-79197619D01*
X82950000Y-79245238D01*
X82902381Y-79340476D01*
X83807143Y-80102381D02*
X83854762Y-80150000D01*
X83902381Y-80102381D01*
X83854762Y-80054762D01*
X83807143Y-80102381D01*
X83902381Y-80102381D01*
X82997619Y-80530952D02*
X82950000Y-80578571D01*
X82902381Y-80673809D01*
X82902381Y-80911905D01*
X82950000Y-81007143D01*
X82997619Y-81054762D01*
X83092857Y-81102381D01*
X83188095Y-81102381D01*
X83330952Y-81054762D01*
X83902381Y-80483333D01*
X83902381Y-81102381D01*
X80997619Y-78340476D02*
X80950000Y-78388095D01*
X80902381Y-78483333D01*
X80902381Y-78721429D01*
X80950000Y-78816667D01*
X80997619Y-78864286D01*
X81092857Y-78911905D01*
X81188095Y-78911905D01*
X81330952Y-78864286D01*
X81902381Y-78292857D01*
X81902381Y-78911905D01*
X81235714Y-79769048D02*
X81902381Y-79769048D01*
X80854762Y-79530952D02*
X81569048Y-79292857D01*
X81569048Y-79911905D01*
X80854762Y-81007143D02*
X82140476Y-80150000D01*
X81235714Y-81769048D02*
X81902381Y-81769048D01*
X80854762Y-81530952D02*
X81569048Y-81292857D01*
X81569048Y-81911905D01*
X80854762Y-83007143D02*
X82140476Y-82150000D01*
X80997619Y-83292857D02*
X80950000Y-83340476D01*
X80902381Y-83435714D01*
X80902381Y-83673810D01*
X80950000Y-83769048D01*
X80997619Y-83816667D01*
X81092857Y-83864286D01*
X81188095Y-83864286D01*
X81330952Y-83816667D01*
X81902381Y-83245238D01*
X81902381Y-83864286D01*
X80902381Y-84483333D02*
X80902381Y-84578572D01*
X80950000Y-84673810D01*
X80997619Y-84721429D01*
X81092857Y-84769048D01*
X81283333Y-84816667D01*
X81521429Y-84816667D01*
X81711905Y-84769048D01*
X81807143Y-84721429D01*
X81854762Y-84673810D01*
X81902381Y-84578572D01*
X81902381Y-84483333D01*
X81854762Y-84388095D01*
X81807143Y-84340476D01*
X81711905Y-84292857D01*
X81521429Y-84245238D01*
X81283333Y-84245238D01*
X81092857Y-84292857D01*
X80997619Y-84340476D01*
X80950000Y-84388095D01*
X80902381Y-84483333D01*
X81902381Y-85769048D02*
X81902381Y-85197619D01*
X81902381Y-85483333D02*
X80902381Y-85483333D01*
X81045238Y-85388095D01*
X81140476Y-85292857D01*
X81188095Y-85197619D01*
X80902381Y-86102381D02*
X80902381Y-86769048D01*
X81902381Y-86340476D01*
D12*
X104238095Y-79642857D02*
X105761905Y-79642857D01*
X94238095Y-79642857D02*
X95761905Y-79642857D01*
X95000000Y-80404762D02*
X95000000Y-78880952D01*
D11*
X116875000Y-117900000D02*
G75*
G03X116875000Y-117900000I-125000J0D01*
G01*
X101625000Y-86300000D02*
G75*
G03X101625000Y-86300000I-125000J0D01*
G01*
D13*
G36*
X118838069Y-94707360D02*
X118778870Y-94763384D01*
X118693778Y-94865119D01*
X118683401Y-94936075D01*
X118701963Y-94966584D01*
X118802591Y-95020182D01*
X118951218Y-95032374D01*
X119103195Y-95003448D01*
X119181591Y-94963494D01*
X119243053Y-94910862D01*
X119243205Y-94862221D01*
X119177810Y-94782475D01*
X119157045Y-94760294D01*
X119041972Y-94658608D01*
X118945939Y-94640880D01*
X118838069Y-94707360D01*
X118838069Y-94707360D01*
G37*
X118838069Y-94707360D02*
X118778870Y-94763384D01*
X118693778Y-94865119D01*
X118683401Y-94936075D01*
X118701963Y-94966584D01*
X118802591Y-95020182D01*
X118951218Y-95032374D01*
X119103195Y-95003448D01*
X119181591Y-94963494D01*
X119243053Y-94910862D01*
X119243205Y-94862221D01*
X119177810Y-94782475D01*
X119157045Y-94760294D01*
X119041972Y-94658608D01*
X118945939Y-94640880D01*
X118838069Y-94707360D01*
G36*
X119778814Y-94680648D02*
X119663767Y-94737908D01*
X119540840Y-94816283D01*
X119444312Y-94894086D01*
X119408285Y-94946700D01*
X119450536Y-94974611D01*
X119554252Y-94982551D01*
X119681593Y-94972039D01*
X119794724Y-94944592D01*
X119826300Y-94929930D01*
X119896079Y-94849853D01*
X119912110Y-94750161D01*
X119870114Y-94675268D01*
X119851700Y-94666186D01*
X119778814Y-94680648D01*
X119778814Y-94680648D01*
G37*
X119778814Y-94680648D02*
X119663767Y-94737908D01*
X119540840Y-94816283D01*
X119444312Y-94894086D01*
X119408285Y-94946700D01*
X119450536Y-94974611D01*
X119554252Y-94982551D01*
X119681593Y-94972039D01*
X119794724Y-94944592D01*
X119826300Y-94929930D01*
X119896079Y-94849853D01*
X119912110Y-94750161D01*
X119870114Y-94675268D01*
X119851700Y-94666186D01*
X119778814Y-94680648D01*
G36*
X118063822Y-94681142D02*
X118054425Y-94690204D01*
X118007337Y-94785786D01*
X118011848Y-94843774D01*
X118082163Y-94916712D01*
X118203627Y-94966665D01*
X118335934Y-94985084D01*
X118438779Y-94963420D01*
X118463907Y-94939651D01*
X118444300Y-94885019D01*
X118362535Y-94798903D01*
X118309797Y-94755674D01*
X118191966Y-94673317D01*
X118119946Y-94651029D01*
X118063822Y-94681142D01*
X118063822Y-94681142D01*
G37*
X118063822Y-94681142D02*
X118054425Y-94690204D01*
X118007337Y-94785786D01*
X118011848Y-94843774D01*
X118082163Y-94916712D01*
X118203627Y-94966665D01*
X118335934Y-94985084D01*
X118438779Y-94963420D01*
X118463907Y-94939651D01*
X118444300Y-94885019D01*
X118362535Y-94798903D01*
X118309797Y-94755674D01*
X118191966Y-94673317D01*
X118119946Y-94651029D01*
X118063822Y-94681142D01*
G36*
X120315450Y-94264117D02*
X120197487Y-94346803D01*
X120189009Y-94353373D01*
X120066732Y-94447629D01*
X119976618Y-94515716D01*
X119954379Y-94531814D01*
X119939142Y-94594374D01*
X119963543Y-94695776D01*
X120010837Y-94790343D01*
X120064278Y-94832398D01*
X120064576Y-94832400D01*
X120129872Y-94801315D01*
X120237532Y-94722604D01*
X120294433Y-94674737D01*
X120426975Y-94531941D01*
X120469952Y-94406683D01*
X120429172Y-94281476D01*
X120426484Y-94277173D01*
X120384057Y-94243386D01*
X120315450Y-94264117D01*
X120315450Y-94264117D01*
G37*
X120315450Y-94264117D02*
X120197487Y-94346803D01*
X120189009Y-94353373D01*
X120066732Y-94447629D01*
X119976618Y-94515716D01*
X119954379Y-94531814D01*
X119939142Y-94594374D01*
X119963543Y-94695776D01*
X120010837Y-94790343D01*
X120064278Y-94832398D01*
X120064576Y-94832400D01*
X120129872Y-94801315D01*
X120237532Y-94722604D01*
X120294433Y-94674737D01*
X120426975Y-94531941D01*
X120469952Y-94406683D01*
X120429172Y-94281476D01*
X120426484Y-94277173D01*
X120384057Y-94243386D01*
X120315450Y-94264117D01*
G36*
X118391959Y-94205364D02*
X118298432Y-94289889D01*
X118246396Y-94341963D01*
X118081661Y-94511926D01*
X118249131Y-94637662D01*
X118398070Y-94745431D01*
X118496153Y-94793943D01*
X118572983Y-94785977D01*
X118658164Y-94724314D01*
X118706243Y-94680586D01*
X118873800Y-94525813D01*
X118674837Y-94348906D01*
X118556902Y-94249098D01*
X118470188Y-94184947D01*
X118443502Y-94172000D01*
X118391959Y-94205364D01*
X118391959Y-94205364D01*
G37*
X118391959Y-94205364D02*
X118298432Y-94289889D01*
X118246396Y-94341963D01*
X118081661Y-94511926D01*
X118249131Y-94637662D01*
X118398070Y-94745431D01*
X118496153Y-94793943D01*
X118572983Y-94785977D01*
X118658164Y-94724314D01*
X118706243Y-94680586D01*
X118873800Y-94525813D01*
X118674837Y-94348906D01*
X118556902Y-94249098D01*
X118470188Y-94184947D01*
X118443502Y-94172000D01*
X118391959Y-94205364D01*
G36*
X117482142Y-94273986D02*
X117470782Y-94337100D01*
X117473748Y-94502897D01*
X117514025Y-94609915D01*
X117594903Y-94689975D01*
X117747248Y-94785372D01*
X117855285Y-94794482D01*
X117928401Y-94717268D01*
X117940740Y-94688673D01*
X117963861Y-94599771D01*
X117941221Y-94526581D01*
X117858185Y-94437265D01*
X117802488Y-94387900D01*
X117643477Y-94267143D01*
X117538063Y-94229381D01*
X117482142Y-94273986D01*
X117482142Y-94273986D01*
G37*
X117482142Y-94273986D02*
X117470782Y-94337100D01*
X117473748Y-94502897D01*
X117514025Y-94609915D01*
X117594903Y-94689975D01*
X117747248Y-94785372D01*
X117855285Y-94794482D01*
X117928401Y-94717268D01*
X117940740Y-94688673D01*
X117963861Y-94599771D01*
X117941221Y-94526581D01*
X117858185Y-94437265D01*
X117802488Y-94387900D01*
X117643477Y-94267143D01*
X117538063Y-94229381D01*
X117482142Y-94273986D01*
G36*
X119435664Y-94248402D02*
X119309608Y-94311669D01*
X119182002Y-94392285D01*
X119085325Y-94469938D01*
X119051600Y-94520576D01*
X119091664Y-94595928D01*
X119186764Y-94683676D01*
X119299267Y-94754568D01*
X119385075Y-94779773D01*
X119490156Y-94747485D01*
X119613305Y-94671400D01*
X119623100Y-94663564D01*
X119716568Y-94567291D01*
X119760646Y-94482905D01*
X119761185Y-94474891D01*
X119719026Y-94350918D01*
X119622710Y-94253986D01*
X119527693Y-94222800D01*
X119435664Y-94248402D01*
X119435664Y-94248402D01*
G37*
X119435664Y-94248402D02*
X119309608Y-94311669D01*
X119182002Y-94392285D01*
X119085325Y-94469938D01*
X119051600Y-94520576D01*
X119091664Y-94595928D01*
X119186764Y-94683676D01*
X119299267Y-94754568D01*
X119385075Y-94779773D01*
X119490156Y-94747485D01*
X119613305Y-94671400D01*
X119623100Y-94663564D01*
X119716568Y-94567291D01*
X119760646Y-94482905D01*
X119761185Y-94474891D01*
X119719026Y-94350918D01*
X119622710Y-94253986D01*
X119527693Y-94222800D01*
X119435664Y-94248402D01*
G36*
X120044570Y-93723341D02*
X119974572Y-93782238D01*
X119840142Y-93893128D01*
X119703725Y-93981387D01*
X119700742Y-93982940D01*
X119562484Y-94054305D01*
X119717837Y-94265552D01*
X119811871Y-94385065D01*
X119883478Y-94461047D01*
X119906895Y-94475529D01*
X119959178Y-94442620D01*
X120059812Y-94358729D01*
X120156439Y-94270551D01*
X120276116Y-94153941D01*
X120333370Y-94075975D01*
X120340085Y-94006012D01*
X120308148Y-93913410D01*
X120301323Y-93897023D01*
X120221965Y-93745674D01*
X120141473Y-93689568D01*
X120044570Y-93723341D01*
X120044570Y-93723341D01*
G37*
X120044570Y-93723341D02*
X119974572Y-93782238D01*
X119840142Y-93893128D01*
X119703725Y-93981387D01*
X119700742Y-93982940D01*
X119562484Y-94054305D01*
X119717837Y-94265552D01*
X119811871Y-94385065D01*
X119883478Y-94461047D01*
X119906895Y-94475529D01*
X119959178Y-94442620D01*
X120059812Y-94358729D01*
X120156439Y-94270551D01*
X120276116Y-94153941D01*
X120333370Y-94075975D01*
X120340085Y-94006012D01*
X120308148Y-93913410D01*
X120301323Y-93897023D01*
X120221965Y-93745674D01*
X120141473Y-93689568D01*
X120044570Y-93723341D01*
G36*
X118913972Y-93699051D02*
X118803449Y-93782276D01*
X118701424Y-93869942D01*
X118578703Y-93983749D01*
X118521443Y-94054405D01*
X118519471Y-94106598D01*
X118562613Y-94165016D01*
X118574424Y-94178142D01*
X118690330Y-94289042D01*
X118801489Y-94377867D01*
X118896362Y-94437209D01*
X118968921Y-94439770D01*
X119070770Y-94385881D01*
X119080889Y-94379658D01*
X119217836Y-94279966D01*
X119327346Y-94177978D01*
X119380152Y-94112175D01*
X119388775Y-94058343D01*
X119344464Y-93988955D01*
X119238468Y-93876487D01*
X119228136Y-93865905D01*
X119110386Y-93754782D01*
X119015860Y-93682351D01*
X118977791Y-93666083D01*
X118913972Y-93699051D01*
X118913972Y-93699051D01*
G37*
X118913972Y-93699051D02*
X118803449Y-93782276D01*
X118701424Y-93869942D01*
X118578703Y-93983749D01*
X118521443Y-94054405D01*
X118519471Y-94106598D01*
X118562613Y-94165016D01*
X118574424Y-94178142D01*
X118690330Y-94289042D01*
X118801489Y-94377867D01*
X118896362Y-94437209D01*
X118968921Y-94439770D01*
X119070770Y-94385881D01*
X119080889Y-94379658D01*
X119217836Y-94279966D01*
X119327346Y-94177978D01*
X119380152Y-94112175D01*
X119388775Y-94058343D01*
X119344464Y-93988955D01*
X119238468Y-93876487D01*
X119228136Y-93865905D01*
X119110386Y-93754782D01*
X119015860Y-93682351D01*
X118977791Y-93666083D01*
X118913972Y-93699051D01*
G36*
X117775330Y-93703346D02*
X117697213Y-93803628D01*
X117648981Y-93876102D01*
X117515087Y-94088204D01*
X117686444Y-94232941D01*
X117844902Y-94362200D01*
X117950676Y-94427056D01*
X118026794Y-94430853D01*
X118096283Y-94376939D01*
X118157351Y-94301367D01*
X118239214Y-94183187D01*
X118285639Y-94095127D01*
X118289600Y-94077747D01*
X118253506Y-94020269D01*
X118163570Y-93926387D01*
X118047310Y-93820552D01*
X117932245Y-93727211D01*
X117845895Y-93670813D01*
X117823894Y-93664000D01*
X117775330Y-93703346D01*
X117775330Y-93703346D01*
G37*
X117775330Y-93703346D02*
X117697213Y-93803628D01*
X117648981Y-93876102D01*
X117515087Y-94088204D01*
X117686444Y-94232941D01*
X117844902Y-94362200D01*
X117950676Y-94427056D01*
X118026794Y-94430853D01*
X118096283Y-94376939D01*
X118157351Y-94301367D01*
X118239214Y-94183187D01*
X118285639Y-94095127D01*
X118289600Y-94077747D01*
X118253506Y-94020269D01*
X118163570Y-93926387D01*
X118047310Y-93820552D01*
X117932245Y-93727211D01*
X117845895Y-93670813D01*
X117823894Y-93664000D01*
X117775330Y-93703346D01*
G36*
X120832212Y-93690411D02*
X120829358Y-93702100D01*
X120797564Y-93758657D01*
X120716851Y-93860181D01*
X120659499Y-93924859D01*
X120552203Y-94058952D01*
X120510275Y-94169853D01*
X120513107Y-94267759D01*
X120538724Y-94382431D01*
X120581139Y-94415851D01*
X120657181Y-94368710D01*
X120749701Y-94277461D01*
X120827013Y-94165198D01*
X120888086Y-94020916D01*
X120926716Y-93872342D01*
X120936696Y-93747201D01*
X120911822Y-93673218D01*
X120887007Y-93664000D01*
X120832212Y-93690411D01*
X120832212Y-93690411D01*
G37*
X120832212Y-93690411D02*
X120829358Y-93702100D01*
X120797564Y-93758657D01*
X120716851Y-93860181D01*
X120659499Y-93924859D01*
X120552203Y-94058952D01*
X120510275Y-94169853D01*
X120513107Y-94267759D01*
X120538724Y-94382431D01*
X120581139Y-94415851D01*
X120657181Y-94368710D01*
X120749701Y-94277461D01*
X120827013Y-94165198D01*
X120888086Y-94020916D01*
X120926716Y-93872342D01*
X120936696Y-93747201D01*
X120911822Y-93673218D01*
X120887007Y-93664000D01*
X120832212Y-93690411D01*
G36*
X117017461Y-93796627D02*
X116990099Y-93972158D01*
X117050902Y-94144190D01*
X117161812Y-94286300D01*
X117266940Y-94388997D01*
X117334068Y-94422208D01*
X117387173Y-94396948D01*
X117392134Y-94392133D01*
X117433373Y-94284877D01*
X117409780Y-94133714D01*
X117328824Y-93966116D01*
X117247355Y-93859574D01*
X117068709Y-93661834D01*
X117017461Y-93796627D01*
X117017461Y-93796627D01*
G37*
X117017461Y-93796627D02*
X116990099Y-93972158D01*
X117050902Y-94144190D01*
X117161812Y-94286300D01*
X117266940Y-94388997D01*
X117334068Y-94422208D01*
X117387173Y-94396948D01*
X117392134Y-94392133D01*
X117433373Y-94284877D01*
X117409780Y-94133714D01*
X117328824Y-93966116D01*
X117247355Y-93859574D01*
X117068709Y-93661834D01*
X117017461Y-93796627D01*
G36*
X120626117Y-93060987D02*
X120482440Y-93188119D01*
X120439169Y-93234093D01*
X120213281Y-93480116D01*
X120300688Y-93673950D01*
X120386524Y-93842889D01*
X120461277Y-93919240D01*
X120543987Y-93907444D01*
X120653691Y-93811947D01*
X120696011Y-93766204D01*
X120815181Y-93618668D01*
X120869264Y-93491503D01*
X120870192Y-93340877D01*
X120847777Y-93208783D01*
X120801492Y-93071771D01*
X120730036Y-93022355D01*
X120626117Y-93060987D01*
X120626117Y-93060987D01*
G37*
X120626117Y-93060987D02*
X120482440Y-93188119D01*
X120439169Y-93234093D01*
X120213281Y-93480116D01*
X120300688Y-93673950D01*
X120386524Y-93842889D01*
X120461277Y-93919240D01*
X120543987Y-93907444D01*
X120653691Y-93811947D01*
X120696011Y-93766204D01*
X120815181Y-93618668D01*
X120869264Y-93491503D01*
X120870192Y-93340877D01*
X120847777Y-93208783D01*
X120801492Y-93071771D01*
X120730036Y-93022355D01*
X120626117Y-93060987D01*
G36*
X118259478Y-93040638D02*
X118150218Y-93136344D01*
X118063061Y-93233002D01*
X117875083Y-93462404D01*
X118087072Y-93715602D01*
X118205462Y-93846113D01*
X118305809Y-93937533D01*
X118362368Y-93968800D01*
X118432643Y-93933551D01*
X118533792Y-93845038D01*
X118573538Y-93802755D01*
X118716273Y-93641928D01*
X118797478Y-93534885D01*
X118820141Y-93456928D01*
X118787248Y-93383354D01*
X118701787Y-93289465D01*
X118642840Y-93229794D01*
X118512706Y-93110335D01*
X118398750Y-93028359D01*
X118335943Y-93003600D01*
X118259478Y-93040638D01*
X118259478Y-93040638D01*
G37*
X118259478Y-93040638D02*
X118150218Y-93136344D01*
X118063061Y-93233002D01*
X117875083Y-93462404D01*
X118087072Y-93715602D01*
X118205462Y-93846113D01*
X118305809Y-93937533D01*
X118362368Y-93968800D01*
X118432643Y-93933551D01*
X118533792Y-93845038D01*
X118573538Y-93802755D01*
X118716273Y-93641928D01*
X118797478Y-93534885D01*
X118820141Y-93456928D01*
X118787248Y-93383354D01*
X118701787Y-93289465D01*
X118642840Y-93229794D01*
X118512706Y-93110335D01*
X118398750Y-93028359D01*
X118335943Y-93003600D01*
X118259478Y-93040638D01*
G36*
X119411381Y-93177282D02*
X119280819Y-93297135D01*
X119172342Y-93381146D01*
X119113356Y-93410000D01*
X119060197Y-93427887D01*
X119070186Y-93488365D01*
X119147473Y-93601657D01*
X119233359Y-93705656D01*
X119383664Y-93855553D01*
X119511855Y-93914430D01*
X119634618Y-93881109D01*
X119768641Y-93754413D01*
X119839848Y-93662845D01*
X120027148Y-93407691D01*
X119837399Y-93176128D01*
X119647651Y-92944565D01*
X119411381Y-93177282D01*
X119411381Y-93177282D01*
G37*
X119411381Y-93177282D02*
X119280819Y-93297135D01*
X119172342Y-93381146D01*
X119113356Y-93410000D01*
X119060197Y-93427887D01*
X119070186Y-93488365D01*
X119147473Y-93601657D01*
X119233359Y-93705656D01*
X119383664Y-93855553D01*
X119511855Y-93914430D01*
X119634618Y-93881109D01*
X119768641Y-93754413D01*
X119839848Y-93662845D01*
X120027148Y-93407691D01*
X119837399Y-93176128D01*
X119647651Y-92944565D01*
X119411381Y-93177282D01*
G36*
X117190934Y-92996344D02*
X117138782Y-93108249D01*
X117100471Y-93207529D01*
X117049486Y-93362741D01*
X117036537Y-93460107D01*
X117060133Y-93535376D01*
X117085125Y-93575829D01*
X117186860Y-93709947D01*
X117295578Y-93827580D01*
X117386218Y-93903282D01*
X117422137Y-93918000D01*
X117478922Y-93879987D01*
X117539836Y-93803700D01*
X117629239Y-93645871D01*
X117654241Y-93519756D01*
X117611267Y-93393832D01*
X117496739Y-93236575D01*
X117472163Y-93207144D01*
X117357973Y-93077218D01*
X117268556Y-92985550D01*
X117224884Y-92952800D01*
X117190934Y-92996344D01*
X117190934Y-92996344D01*
G37*
X117190934Y-92996344D02*
X117138782Y-93108249D01*
X117100471Y-93207529D01*
X117049486Y-93362741D01*
X117036537Y-93460107D01*
X117060133Y-93535376D01*
X117085125Y-93575829D01*
X117186860Y-93709947D01*
X117295578Y-93827580D01*
X117386218Y-93903282D01*
X117422137Y-93918000D01*
X117478922Y-93879987D01*
X117539836Y-93803700D01*
X117629239Y-93645871D01*
X117654241Y-93519756D01*
X117611267Y-93393832D01*
X117496739Y-93236575D01*
X117472163Y-93207144D01*
X117357973Y-93077218D01*
X117268556Y-92985550D01*
X117224884Y-92952800D01*
X117190934Y-92996344D01*
G36*
X121219639Y-93112325D02*
X121161395Y-93213245D01*
X121115139Y-93308400D01*
X121032257Y-93511914D01*
X120988653Y-93679123D01*
X120983332Y-93797415D01*
X121015304Y-93854174D01*
X121083575Y-93836785D01*
X121151812Y-93774426D01*
X121220204Y-93651219D01*
X121272094Y-93474573D01*
X121298130Y-93290223D01*
X121288962Y-93143902D01*
X121283981Y-93128087D01*
X121256921Y-93087763D01*
X121219639Y-93112325D01*
X121219639Y-93112325D01*
G37*
X121219639Y-93112325D02*
X121161395Y-93213245D01*
X121115139Y-93308400D01*
X121032257Y-93511914D01*
X120988653Y-93679123D01*
X120983332Y-93797415D01*
X121015304Y-93854174D01*
X121083575Y-93836785D01*
X121151812Y-93774426D01*
X121220204Y-93651219D01*
X121272094Y-93474573D01*
X121298130Y-93290223D01*
X121288962Y-93143902D01*
X121283981Y-93128087D01*
X121256921Y-93087763D01*
X121219639Y-93112325D01*
G36*
X116618047Y-93096281D02*
X116606175Y-93204697D01*
X116625139Y-93353800D01*
X116669212Y-93517745D01*
X116732665Y-93670688D01*
X116809771Y-93786782D01*
X116833931Y-93809920D01*
X116887862Y-93844170D01*
X116911698Y-93814392D01*
X116916957Y-93702953D01*
X116916885Y-93682920D01*
X116898389Y-93534170D01*
X116852230Y-93367366D01*
X116790193Y-93212087D01*
X116724061Y-93097910D01*
X116666484Y-93054400D01*
X116618047Y-93096281D01*
X116618047Y-93096281D01*
G37*
X116618047Y-93096281D02*
X116606175Y-93204697D01*
X116625139Y-93353800D01*
X116669212Y-93517745D01*
X116732665Y-93670688D01*
X116809771Y-93786782D01*
X116833931Y-93809920D01*
X116887862Y-93844170D01*
X116911698Y-93814392D01*
X116916957Y-93702953D01*
X116916885Y-93682920D01*
X116898389Y-93534170D01*
X116852230Y-93367366D01*
X116790193Y-93212087D01*
X116724061Y-93097910D01*
X116666484Y-93054400D01*
X116618047Y-93096281D01*
G36*
X118923562Y-92177287D02*
X118823631Y-92274110D01*
X118703437Y-92410369D01*
X118696000Y-92419400D01*
X118573727Y-92557617D01*
X118468430Y-92657446D01*
X118401932Y-92698325D01*
X118399852Y-92698454D01*
X118394405Y-92731751D01*
X118442977Y-92817685D01*
X118528916Y-92935903D01*
X118635564Y-93066053D01*
X118746268Y-93187782D01*
X118844372Y-93280738D01*
X118911934Y-93324218D01*
X118992844Y-93306047D01*
X119114522Y-93212048D01*
X119273387Y-93048562D01*
X119545906Y-92747419D01*
X119369819Y-92558009D01*
X119249414Y-92422212D01*
X119147729Y-92296940D01*
X119116824Y-92254300D01*
X119040364Y-92169371D01*
X118982258Y-92140345D01*
X118923562Y-92177287D01*
X118923562Y-92177287D01*
G37*
X118923562Y-92177287D02*
X118823631Y-92274110D01*
X118703437Y-92410369D01*
X118696000Y-92419400D01*
X118573727Y-92557617D01*
X118468430Y-92657446D01*
X118401932Y-92698325D01*
X118399852Y-92698454D01*
X118394405Y-92731751D01*
X118442977Y-92817685D01*
X118528916Y-92935903D01*
X118635564Y-93066053D01*
X118746268Y-93187782D01*
X118844372Y-93280738D01*
X118911934Y-93324218D01*
X118992844Y-93306047D01*
X119114522Y-93212048D01*
X119273387Y-93048562D01*
X119545906Y-92747419D01*
X119369819Y-92558009D01*
X119249414Y-92422212D01*
X119147729Y-92296940D01*
X119116824Y-92254300D01*
X119040364Y-92169371D01*
X118982258Y-92140345D01*
X118923562Y-92177287D01*
G36*
X120778002Y-92771778D02*
X120858485Y-93014091D01*
X120924547Y-93189190D01*
X120980481Y-93274095D01*
X121035495Y-93278354D01*
X121076758Y-93240444D01*
X121164177Y-93093417D01*
X121239082Y-92898518D01*
X121282500Y-92709267D01*
X121286800Y-92648000D01*
X121266461Y-92495264D01*
X121216624Y-92325328D01*
X121207920Y-92303549D01*
X121129040Y-92114762D01*
X120778002Y-92771778D01*
X120778002Y-92771778D01*
G37*
X120778002Y-92771778D02*
X120858485Y-93014091D01*
X120924547Y-93189190D01*
X120980481Y-93274095D01*
X121035495Y-93278354D01*
X121076758Y-93240444D01*
X121164177Y-93093417D01*
X121239082Y-92898518D01*
X121282500Y-92709267D01*
X121286800Y-92648000D01*
X121266461Y-92495264D01*
X121216624Y-92325328D01*
X121207920Y-92303549D01*
X121129040Y-92114762D01*
X120778002Y-92771778D01*
G36*
X120230151Y-92172258D02*
X120174943Y-92231678D01*
X120129894Y-92288758D01*
X120003768Y-92440349D01*
X119872926Y-92587638D01*
X119853610Y-92608256D01*
X119715819Y-92753596D01*
X119893271Y-93030998D01*
X120020274Y-93207182D01*
X120127936Y-93290953D01*
X120233226Y-93282628D01*
X120353114Y-93182522D01*
X120467099Y-93041700D01*
X120666949Y-92775000D01*
X120518663Y-92521000D01*
X120405330Y-92327301D01*
X120329818Y-92210794D01*
X120276600Y-92162205D01*
X120230151Y-92172258D01*
X120230151Y-92172258D01*
G37*
X120230151Y-92172258D02*
X120174943Y-92231678D01*
X120129894Y-92288758D01*
X120003768Y-92440349D01*
X119872926Y-92587638D01*
X119853610Y-92608256D01*
X119715819Y-92753596D01*
X119893271Y-93030998D01*
X120020274Y-93207182D01*
X120127936Y-93290953D01*
X120233226Y-93282628D01*
X120353114Y-93182522D01*
X120467099Y-93041700D01*
X120666949Y-92775000D01*
X120518663Y-92521000D01*
X120405330Y-92327301D01*
X120329818Y-92210794D01*
X120276600Y-92162205D01*
X120230151Y-92172258D01*
G36*
X117628884Y-92230550D02*
X117549291Y-92326582D01*
X117546889Y-92330500D01*
X117453499Y-92478486D01*
X117364106Y-92612998D01*
X117301440Y-92716676D01*
X117298065Y-92791923D01*
X117351814Y-92891214D01*
X117352565Y-92892398D01*
X117463387Y-93046238D01*
X117584185Y-93182233D01*
X117692266Y-93277191D01*
X117759601Y-93308400D01*
X117818171Y-93270450D01*
X117915203Y-93170610D01*
X118030427Y-93029894D01*
X118038473Y-93019291D01*
X118142767Y-92868832D01*
X118199503Y-92760341D01*
X118199657Y-92711206D01*
X118198590Y-92710796D01*
X118139369Y-92661934D01*
X118044825Y-92554843D01*
X117956688Y-92441104D01*
X117848472Y-92308427D01*
X117753752Y-92217676D01*
X117702245Y-92190800D01*
X117628884Y-92230550D01*
X117628884Y-92230550D01*
G37*
X117628884Y-92230550D02*
X117549291Y-92326582D01*
X117546889Y-92330500D01*
X117453499Y-92478486D01*
X117364106Y-92612998D01*
X117301440Y-92716676D01*
X117298065Y-92791923D01*
X117351814Y-92891214D01*
X117352565Y-92892398D01*
X117463387Y-93046238D01*
X117584185Y-93182233D01*
X117692266Y-93277191D01*
X117759601Y-93308400D01*
X117818171Y-93270450D01*
X117915203Y-93170610D01*
X118030427Y-93029894D01*
X118038473Y-93019291D01*
X118142767Y-92868832D01*
X118199503Y-92760341D01*
X118199657Y-92711206D01*
X118198590Y-92710796D01*
X118139369Y-92661934D01*
X118044825Y-92554843D01*
X117956688Y-92441104D01*
X117848472Y-92308427D01*
X117753752Y-92217676D01*
X117702245Y-92190800D01*
X117628884Y-92230550D01*
G36*
X116777752Y-92185073D02*
X116735603Y-92299425D01*
X116695340Y-92451756D01*
X116665087Y-92610766D01*
X116652965Y-92745153D01*
X116653127Y-92758553D01*
X116677540Y-92865334D01*
X116735158Y-93004916D01*
X116809366Y-93146043D01*
X116883554Y-93257460D01*
X116941106Y-93307911D01*
X116945379Y-93308400D01*
X116980854Y-93267111D01*
X117014386Y-93194100D01*
X117085943Y-92967857D01*
X117102130Y-92785198D01*
X117061609Y-92603668D01*
X116990566Y-92437196D01*
X116912867Y-92284990D01*
X116848703Y-92177820D01*
X116813662Y-92140000D01*
X116777752Y-92185073D01*
X116777752Y-92185073D01*
G37*
X116777752Y-92185073D02*
X116735603Y-92299425D01*
X116695340Y-92451756D01*
X116665087Y-92610766D01*
X116652965Y-92745153D01*
X116653127Y-92758553D01*
X116677540Y-92865334D01*
X116735158Y-93004916D01*
X116809366Y-93146043D01*
X116883554Y-93257460D01*
X116941106Y-93307911D01*
X116945379Y-93308400D01*
X116980854Y-93267111D01*
X117014386Y-93194100D01*
X117085943Y-92967857D01*
X117102130Y-92785198D01*
X117061609Y-92603668D01*
X116990566Y-92437196D01*
X116912867Y-92284990D01*
X116848703Y-92177820D01*
X116813662Y-92140000D01*
X116777752Y-92185073D01*
G36*
X120681742Y-91268157D02*
X120618624Y-91378814D01*
X120551650Y-91516107D01*
X120473605Y-91673769D01*
X120404163Y-91792130D01*
X120364162Y-91840291D01*
X120357021Y-91898524D01*
X120394013Y-92013880D01*
X120461218Y-92160101D01*
X120544717Y-92310927D01*
X120630592Y-92440099D01*
X120704923Y-92521359D01*
X120732776Y-92535704D01*
X120800756Y-92504933D01*
X120882715Y-92385217D01*
X120948676Y-92250146D01*
X121018263Y-92088965D01*
X121066984Y-91964423D01*
X121083600Y-91907056D01*
X121061473Y-91837939D01*
X121004867Y-91714828D01*
X120928442Y-91565121D01*
X120846861Y-91416217D01*
X120774786Y-91295512D01*
X120726879Y-91230405D01*
X120719024Y-91225787D01*
X120681742Y-91268157D01*
X120681742Y-91268157D01*
G37*
X120681742Y-91268157D02*
X120618624Y-91378814D01*
X120551650Y-91516107D01*
X120473605Y-91673769D01*
X120404163Y-91792130D01*
X120364162Y-91840291D01*
X120357021Y-91898524D01*
X120394013Y-92013880D01*
X120461218Y-92160101D01*
X120544717Y-92310927D01*
X120630592Y-92440099D01*
X120704923Y-92521359D01*
X120732776Y-92535704D01*
X120800756Y-92504933D01*
X120882715Y-92385217D01*
X120948676Y-92250146D01*
X121018263Y-92088965D01*
X121066984Y-91964423D01*
X121083600Y-91907056D01*
X121061473Y-91837939D01*
X121004867Y-91714828D01*
X120928442Y-91565121D01*
X120846861Y-91416217D01*
X120774786Y-91295512D01*
X120726879Y-91230405D01*
X120719024Y-91225787D01*
X120681742Y-91268157D01*
G36*
X119609812Y-91312394D02*
X119513189Y-91407149D01*
X119392391Y-91540826D01*
X119382107Y-91552815D01*
X119237156Y-91706751D01*
X119127558Y-91790471D01*
X119073379Y-91801380D01*
X119019012Y-91789705D01*
X119010527Y-91819474D01*
X119052725Y-91900729D01*
X119150405Y-92043511D01*
X119261785Y-92195428D01*
X119422945Y-92398845D01*
X119549288Y-92514740D01*
X119656842Y-92543552D01*
X119761637Y-92485720D01*
X119879703Y-92341683D01*
X119963217Y-92214642D01*
X120172741Y-91882884D01*
X119939402Y-91579642D01*
X119821860Y-91433950D01*
X119724840Y-91326532D01*
X119666718Y-91277487D01*
X119662159Y-91276400D01*
X119609812Y-91312394D01*
X119609812Y-91312394D01*
G37*
X119609812Y-91312394D02*
X119513189Y-91407149D01*
X119392391Y-91540826D01*
X119382107Y-91552815D01*
X119237156Y-91706751D01*
X119127558Y-91790471D01*
X119073379Y-91801380D01*
X119019012Y-91789705D01*
X119010527Y-91819474D01*
X119052725Y-91900729D01*
X119150405Y-92043511D01*
X119261785Y-92195428D01*
X119422945Y-92398845D01*
X119549288Y-92514740D01*
X119656842Y-92543552D01*
X119761637Y-92485720D01*
X119879703Y-92341683D01*
X119963217Y-92214642D01*
X120172741Y-91882884D01*
X119939402Y-91579642D01*
X119821860Y-91433950D01*
X119724840Y-91326532D01*
X119666718Y-91277487D01*
X119662159Y-91276400D01*
X119609812Y-91312394D01*
G36*
X118128390Y-91454200D02*
X118007447Y-91596189D01*
X117894462Y-91722637D01*
X117854487Y-91764879D01*
X117749059Y-91872359D01*
X117967721Y-92209379D01*
X118110717Y-92409279D01*
X118222833Y-92521792D01*
X118282689Y-92546400D01*
X118367224Y-92505490D01*
X118485286Y-92393868D01*
X118589838Y-92267138D01*
X118699825Y-92117075D01*
X118784382Y-91993590D01*
X118824785Y-91924238D01*
X118804082Y-91859371D01*
X118727722Y-91743456D01*
X118610712Y-91598442D01*
X118572877Y-91555800D01*
X118296867Y-91251000D01*
X118128390Y-91454200D01*
X118128390Y-91454200D01*
G37*
X118128390Y-91454200D02*
X118007447Y-91596189D01*
X117894462Y-91722637D01*
X117854487Y-91764879D01*
X117749059Y-91872359D01*
X117967721Y-92209379D01*
X118110717Y-92409279D01*
X118222833Y-92521792D01*
X118282689Y-92546400D01*
X118367224Y-92505490D01*
X118485286Y-92393868D01*
X118589838Y-92267138D01*
X118699825Y-92117075D01*
X118784382Y-91993590D01*
X118824785Y-91924238D01*
X118804082Y-91859371D01*
X118727722Y-91743456D01*
X118610712Y-91598442D01*
X118572877Y-91555800D01*
X118296867Y-91251000D01*
X118128390Y-91454200D01*
G36*
X117179017Y-91317805D02*
X117104877Y-91423084D01*
X117020519Y-91563826D01*
X116942087Y-91711623D01*
X116885724Y-91838067D01*
X116867200Y-91909181D01*
X116886967Y-92001095D01*
X116937125Y-92138109D01*
X117003959Y-92290510D01*
X117073754Y-92428587D01*
X117132796Y-92522628D01*
X117161332Y-92546400D01*
X117227097Y-92511734D01*
X117282964Y-92457500D01*
X117368669Y-92339507D01*
X117455548Y-92192513D01*
X117530418Y-92043385D01*
X117580095Y-91918990D01*
X117591396Y-91846196D01*
X117586435Y-91839046D01*
X117540368Y-91780666D01*
X117468294Y-91659912D01*
X117406407Y-91543100D01*
X117327295Y-91400250D01*
X117260177Y-91303461D01*
X117226794Y-91276400D01*
X117179017Y-91317805D01*
X117179017Y-91317805D01*
G37*
X117179017Y-91317805D02*
X117104877Y-91423084D01*
X117020519Y-91563826D01*
X116942087Y-91711623D01*
X116885724Y-91838067D01*
X116867200Y-91909181D01*
X116886967Y-92001095D01*
X116937125Y-92138109D01*
X117003959Y-92290510D01*
X117073754Y-92428587D01*
X117132796Y-92522628D01*
X117161332Y-92546400D01*
X117227097Y-92511734D01*
X117282964Y-92457500D01*
X117368669Y-92339507D01*
X117455548Y-92192513D01*
X117530418Y-92043385D01*
X117580095Y-91918990D01*
X117591396Y-91846196D01*
X117586435Y-91839046D01*
X117540368Y-91780666D01*
X117468294Y-91659912D01*
X117406407Y-91543100D01*
X117327295Y-91400250D01*
X117260177Y-91303461D01*
X117226794Y-91276400D01*
X117179017Y-91317805D01*
G36*
X121237557Y-91575941D02*
X121203353Y-91694525D01*
X121190141Y-91859085D01*
X121199733Y-92042558D01*
X121233943Y-92217881D01*
X121242934Y-92246719D01*
X121303783Y-92402642D01*
X121351564Y-92460604D01*
X121390372Y-92422784D01*
X121414903Y-92338182D01*
X121443663Y-92128430D01*
X121443590Y-91919247D01*
X121418329Y-91734390D01*
X121371526Y-91597618D01*
X121306827Y-91532686D01*
X121290938Y-91530400D01*
X121237557Y-91575941D01*
X121237557Y-91575941D01*
G37*
X121237557Y-91575941D02*
X121203353Y-91694525D01*
X121190141Y-91859085D01*
X121199733Y-92042558D01*
X121233943Y-92217881D01*
X121242934Y-92246719D01*
X121303783Y-92402642D01*
X121351564Y-92460604D01*
X121390372Y-92422784D01*
X121414903Y-92338182D01*
X121443663Y-92128430D01*
X121443590Y-91919247D01*
X121418329Y-91734390D01*
X121371526Y-91597618D01*
X121306827Y-91532686D01*
X121290938Y-91530400D01*
X121237557Y-91575941D01*
G36*
X116565972Y-91524258D02*
X116519235Y-91635493D01*
X116480742Y-91779192D01*
X116461408Y-91921243D01*
X116460800Y-91946012D01*
X116475947Y-92062310D01*
X116513508Y-92204001D01*
X116561665Y-92336734D01*
X116608600Y-92426159D01*
X116632407Y-92444800D01*
X116654898Y-92399520D01*
X116688099Y-92282235D01*
X116716549Y-92156975D01*
X116748493Y-91953240D01*
X116743081Y-91796516D01*
X116712020Y-91674375D01*
X116663300Y-91552190D01*
X116619979Y-91484438D01*
X116610039Y-91479600D01*
X116565972Y-91524258D01*
X116565972Y-91524258D01*
G37*
X116565972Y-91524258D02*
X116519235Y-91635493D01*
X116480742Y-91779192D01*
X116461408Y-91921243D01*
X116460800Y-91946012D01*
X116475947Y-92062310D01*
X116513508Y-92204001D01*
X116561665Y-92336734D01*
X116608600Y-92426159D01*
X116632407Y-92444800D01*
X116654898Y-92399520D01*
X116688099Y-92282235D01*
X116716549Y-92156975D01*
X116748493Y-91953240D01*
X116743081Y-91796516D01*
X116712020Y-91674375D01*
X116663300Y-91552190D01*
X116619979Y-91484438D01*
X116610039Y-91479600D01*
X116565972Y-91524258D01*
G36*
X120959737Y-90614441D02*
X120900598Y-90718901D01*
X120861899Y-90813735D01*
X120812321Y-90962192D01*
X120798511Y-91066640D01*
X120822348Y-91173274D01*
X120882546Y-91320928D01*
X120978030Y-91521984D01*
X121054631Y-91629031D01*
X121119521Y-91646264D01*
X121179868Y-91577877D01*
X121210595Y-91512847D01*
X121262398Y-91343138D01*
X121285839Y-91175776D01*
X121285965Y-91163731D01*
X121262376Y-91029132D01*
X121203734Y-90869265D01*
X121126567Y-90718406D01*
X121047402Y-90610833D01*
X121005021Y-90581056D01*
X120959737Y-90614441D01*
X120959737Y-90614441D01*
G37*
X120959737Y-90614441D02*
X120900598Y-90718901D01*
X120861899Y-90813735D01*
X120812321Y-90962192D01*
X120798511Y-91066640D01*
X120822348Y-91173274D01*
X120882546Y-91320928D01*
X120978030Y-91521984D01*
X121054631Y-91629031D01*
X121119521Y-91646264D01*
X121179868Y-91577877D01*
X121210595Y-91512847D01*
X121262398Y-91343138D01*
X121285839Y-91175776D01*
X121285965Y-91163731D01*
X121262376Y-91029132D01*
X121203734Y-90869265D01*
X121126567Y-90718406D01*
X121047402Y-90610833D01*
X121005021Y-90581056D01*
X120959737Y-90614441D01*
G36*
X120128454Y-90602863D02*
X120033459Y-90699895D01*
X119959234Y-90791263D01*
X119854533Y-90918933D01*
X119766557Y-91007626D01*
X119728467Y-91032563D01*
X119727781Y-91074374D01*
X119779734Y-91168891D01*
X119867467Y-91294705D01*
X119974125Y-91430407D01*
X120082851Y-91554589D01*
X120176787Y-91645841D01*
X120239078Y-91682755D01*
X120240449Y-91682800D01*
X120330171Y-91645999D01*
X120356472Y-91619300D01*
X120406258Y-91538928D01*
X120480113Y-91405302D01*
X120522875Y-91323604D01*
X120641966Y-91091409D01*
X120445540Y-90828304D01*
X120335607Y-90692545D01*
X120242279Y-90597530D01*
X120189690Y-90565200D01*
X120128454Y-90602863D01*
X120128454Y-90602863D01*
G37*
X120128454Y-90602863D02*
X120033459Y-90699895D01*
X119959234Y-90791263D01*
X119854533Y-90918933D01*
X119766557Y-91007626D01*
X119728467Y-91032563D01*
X119727781Y-91074374D01*
X119779734Y-91168891D01*
X119867467Y-91294705D01*
X119974125Y-91430407D01*
X120082851Y-91554589D01*
X120176787Y-91645841D01*
X120239078Y-91682755D01*
X120240449Y-91682800D01*
X120330171Y-91645999D01*
X120356472Y-91619300D01*
X120406258Y-91538928D01*
X120480113Y-91405302D01*
X120522875Y-91323604D01*
X120641966Y-91091409D01*
X120445540Y-90828304D01*
X120335607Y-90692545D01*
X120242279Y-90597530D01*
X120189690Y-90565200D01*
X120128454Y-90602863D01*
G36*
X118910181Y-90598974D02*
X118806466Y-90686953D01*
X118696000Y-90793800D01*
X118568633Y-90913484D01*
X118461633Y-90996236D01*
X118405167Y-91022400D01*
X118403394Y-91058478D01*
X118456018Y-91154714D01*
X118552517Y-91293109D01*
X118598181Y-91352600D01*
X118741927Y-91520946D01*
X118863760Y-91635955D01*
X118947443Y-91682487D01*
X118952331Y-91682800D01*
X119031524Y-91644054D01*
X119149512Y-91539403D01*
X119286896Y-91386228D01*
X119296492Y-91374442D01*
X119545995Y-91066084D01*
X119281189Y-90815642D01*
X119144588Y-90692370D01*
X119033569Y-90602960D01*
X118970634Y-90565422D01*
X118968369Y-90565200D01*
X118910181Y-90598974D01*
X118910181Y-90598974D01*
G37*
X118910181Y-90598974D02*
X118806466Y-90686953D01*
X118696000Y-90793800D01*
X118568633Y-90913484D01*
X118461633Y-90996236D01*
X118405167Y-91022400D01*
X118403394Y-91058478D01*
X118456018Y-91154714D01*
X118552517Y-91293109D01*
X118598181Y-91352600D01*
X118741927Y-91520946D01*
X118863760Y-91635955D01*
X118947443Y-91682487D01*
X118952331Y-91682800D01*
X119031524Y-91644054D01*
X119149512Y-91539403D01*
X119286896Y-91386228D01*
X119296492Y-91374442D01*
X119545995Y-91066084D01*
X119281189Y-90815642D01*
X119144588Y-90692370D01*
X119033569Y-90602960D01*
X118970634Y-90565422D01*
X118968369Y-90565200D01*
X118910181Y-90598974D01*
G36*
X117528094Y-90807706D02*
X117272766Y-91075612D01*
X117380702Y-91290306D01*
X117507208Y-91513684D01*
X117616768Y-91641113D01*
X117715248Y-91675647D01*
X117808510Y-91620344D01*
X117865778Y-91543100D01*
X117959309Y-91411589D01*
X118077737Y-91268375D01*
X118098319Y-91245724D01*
X118244339Y-91088048D01*
X118142282Y-90966324D01*
X118037729Y-90841826D01*
X117920874Y-90702944D01*
X117911823Y-90692200D01*
X117783421Y-90539800D01*
X117528094Y-90807706D01*
X117528094Y-90807706D01*
G37*
X117528094Y-90807706D02*
X117272766Y-91075612D01*
X117380702Y-91290306D01*
X117507208Y-91513684D01*
X117616768Y-91641113D01*
X117715248Y-91675647D01*
X117808510Y-91620344D01*
X117865778Y-91543100D01*
X117959309Y-91411589D01*
X118077737Y-91268375D01*
X118098319Y-91245724D01*
X118244339Y-91088048D01*
X118142282Y-90966324D01*
X118037729Y-90841826D01*
X117920874Y-90702944D01*
X117911823Y-90692200D01*
X117783421Y-90539800D01*
X117528094Y-90807706D01*
G36*
X116898862Y-90608662D02*
X116819440Y-90718200D01*
X116743875Y-90862538D01*
X116688633Y-91010401D01*
X116670011Y-91126730D01*
X116691456Y-91362895D01*
X116734306Y-91527316D01*
X116794058Y-91611470D01*
X116866212Y-91606833D01*
X116904229Y-91570191D01*
X116957486Y-91487500D01*
X117032052Y-91353330D01*
X117067672Y-91284421D01*
X117130964Y-91150353D01*
X117152645Y-91053809D01*
X117134837Y-90948476D01*
X117089185Y-90814521D01*
X117032826Y-90674224D01*
X116985152Y-90583788D01*
X116965674Y-90565200D01*
X116898862Y-90608662D01*
X116898862Y-90608662D01*
G37*
X116898862Y-90608662D02*
X116819440Y-90718200D01*
X116743875Y-90862538D01*
X116688633Y-91010401D01*
X116670011Y-91126730D01*
X116691456Y-91362895D01*
X116734306Y-91527316D01*
X116794058Y-91611470D01*
X116866212Y-91606833D01*
X116904229Y-91570191D01*
X116957486Y-91487500D01*
X117032052Y-91353330D01*
X117067672Y-91284421D01*
X117130964Y-91150353D01*
X117152645Y-91053809D01*
X117134837Y-90948476D01*
X117089185Y-90814521D01*
X117032826Y-90674224D01*
X116985152Y-90583788D01*
X116965674Y-90565200D01*
X116898862Y-90608662D01*
G36*
X120424360Y-90059210D02*
X120337782Y-90197075D01*
X120267696Y-90285800D01*
X120222714Y-90342908D01*
X120214762Y-90395981D01*
X120252573Y-90468339D01*
X120344880Y-90583303D01*
X120405617Y-90654100D01*
X120546308Y-90810442D01*
X120640589Y-90894254D01*
X120702690Y-90914529D01*
X120746837Y-90880258D01*
X120751665Y-90872807D01*
X120786128Y-90797681D01*
X120836263Y-90668164D01*
X120853394Y-90620553D01*
X120925462Y-90416291D01*
X120489016Y-89934221D01*
X120424360Y-90059210D01*
X120424360Y-90059210D01*
G37*
X120424360Y-90059210D02*
X120337782Y-90197075D01*
X120267696Y-90285800D01*
X120222714Y-90342908D01*
X120214762Y-90395981D01*
X120252573Y-90468339D01*
X120344880Y-90583303D01*
X120405617Y-90654100D01*
X120546308Y-90810442D01*
X120640589Y-90894254D01*
X120702690Y-90914529D01*
X120746837Y-90880258D01*
X120751665Y-90872807D01*
X120786128Y-90797681D01*
X120836263Y-90668164D01*
X120853394Y-90620553D01*
X120925462Y-90416291D01*
X120489016Y-89934221D01*
X120424360Y-90059210D01*
G36*
X119340867Y-90155128D02*
X119217899Y-90258763D01*
X119123964Y-90320116D01*
X119084773Y-90327438D01*
X119052745Y-90325817D01*
X119051600Y-90335356D01*
X119086012Y-90408917D01*
X119174032Y-90523990D01*
X119292841Y-90656631D01*
X119419620Y-90782897D01*
X119531548Y-90878843D01*
X119605807Y-90920526D01*
X119609563Y-90920800D01*
X119690290Y-90880585D01*
X119800034Y-90773929D01*
X119885035Y-90666682D01*
X119980743Y-90530392D01*
X120046844Y-90430393D01*
X120067600Y-90392012D01*
X120031765Y-90351477D01*
X119938113Y-90265654D01*
X119815695Y-90160553D01*
X119563789Y-89949646D01*
X119340867Y-90155128D01*
X119340867Y-90155128D01*
G37*
X119340867Y-90155128D02*
X119217899Y-90258763D01*
X119123964Y-90320116D01*
X119084773Y-90327438D01*
X119052745Y-90325817D01*
X119051600Y-90335356D01*
X119086012Y-90408917D01*
X119174032Y-90523990D01*
X119292841Y-90656631D01*
X119419620Y-90782897D01*
X119531548Y-90878843D01*
X119605807Y-90920526D01*
X119609563Y-90920800D01*
X119690290Y-90880585D01*
X119800034Y-90773929D01*
X119885035Y-90666682D01*
X119980743Y-90530392D01*
X120046844Y-90430393D01*
X120067600Y-90392012D01*
X120031765Y-90351477D01*
X119938113Y-90265654D01*
X119815695Y-90160553D01*
X119563789Y-89949646D01*
X119340867Y-90155128D01*
G36*
X118294321Y-90039525D02*
X118166856Y-90124674D01*
X118077406Y-90200662D01*
X117869146Y-90394925D01*
X117961752Y-90543562D01*
X118090359Y-90727604D01*
X118209921Y-90858316D01*
X118304259Y-90918659D01*
X118319903Y-90920800D01*
X118384096Y-90884699D01*
X118487562Y-90790767D01*
X118590120Y-90679500D01*
X118698806Y-90543811D01*
X118773838Y-90433158D01*
X118797273Y-90378607D01*
X118759016Y-90293990D01*
X118664605Y-90186698D01*
X118545629Y-90085273D01*
X118433681Y-90018259D01*
X118385326Y-90006400D01*
X118294321Y-90039525D01*
X118294321Y-90039525D01*
G37*
X118294321Y-90039525D02*
X118166856Y-90124674D01*
X118077406Y-90200662D01*
X117869146Y-90394925D01*
X117961752Y-90543562D01*
X118090359Y-90727604D01*
X118209921Y-90858316D01*
X118304259Y-90918659D01*
X118319903Y-90920800D01*
X118384096Y-90884699D01*
X118487562Y-90790767D01*
X118590120Y-90679500D01*
X118698806Y-90543811D01*
X118773838Y-90433158D01*
X118797273Y-90378607D01*
X118759016Y-90293990D01*
X118664605Y-90186698D01*
X118545629Y-90085273D01*
X118433681Y-90018259D01*
X118385326Y-90006400D01*
X118294321Y-90039525D01*
G36*
X117429787Y-90006749D02*
X117334348Y-90078338D01*
X117234044Y-90172743D01*
X117116710Y-90296732D01*
X117058946Y-90382654D01*
X117048172Y-90463972D01*
X117071805Y-90574152D01*
X117076555Y-90591632D01*
X117145292Y-90785503D01*
X117220738Y-90897414D01*
X117272948Y-90920800D01*
X117321050Y-90883667D01*
X117410355Y-90786479D01*
X117517662Y-90655134D01*
X117724668Y-90389469D01*
X117618004Y-90210634D01*
X117542987Y-90088571D01*
X117487844Y-90005361D01*
X117479041Y-89993910D01*
X117429787Y-90006749D01*
X117429787Y-90006749D01*
G37*
X117429787Y-90006749D02*
X117334348Y-90078338D01*
X117234044Y-90172743D01*
X117116710Y-90296732D01*
X117058946Y-90382654D01*
X117048172Y-90463972D01*
X117071805Y-90574152D01*
X117076555Y-90591632D01*
X117145292Y-90785503D01*
X117220738Y-90897414D01*
X117272948Y-90920800D01*
X117321050Y-90883667D01*
X117410355Y-90786479D01*
X117517662Y-90655134D01*
X117724668Y-90389469D01*
X117618004Y-90210634D01*
X117542987Y-90088571D01*
X117487844Y-90005361D01*
X117479041Y-89993910D01*
X117429787Y-90006749D01*
G36*
X120540566Y-89668096D02*
X120515956Y-89775748D01*
X120529970Y-89862370D01*
X120594347Y-89964541D01*
X120663053Y-90049755D01*
X120788410Y-90189752D01*
X120871022Y-90248660D01*
X120923834Y-90230368D01*
X120959767Y-90138871D01*
X120952646Y-89980048D01*
X120870698Y-89798452D01*
X120726971Y-89622302D01*
X120716152Y-89612041D01*
X120593051Y-89497083D01*
X120540566Y-89668096D01*
X120540566Y-89668096D01*
G37*
X120540566Y-89668096D02*
X120515956Y-89775748D01*
X120529970Y-89862370D01*
X120594347Y-89964541D01*
X120663053Y-90049755D01*
X120788410Y-90189752D01*
X120871022Y-90248660D01*
X120923834Y-90230368D01*
X120959767Y-90138871D01*
X120952646Y-89980048D01*
X120870698Y-89798452D01*
X120726971Y-89622302D01*
X120716152Y-89612041D01*
X120593051Y-89497083D01*
X120540566Y-89668096D01*
G36*
X119761189Y-89671612D02*
X119564293Y-89849496D01*
X119797699Y-90054948D01*
X119932041Y-90164098D01*
X120043523Y-90238605D01*
X120098321Y-90260400D01*
X120165934Y-90221542D01*
X120256004Y-90123919D01*
X120290458Y-90076563D01*
X120361865Y-89951926D01*
X120393290Y-89856539D01*
X120391352Y-89835263D01*
X120337999Y-89774282D01*
X120229684Y-89684427D01*
X120162704Y-89635764D01*
X119958084Y-89493729D01*
X119761189Y-89671612D01*
X119761189Y-89671612D01*
G37*
X119761189Y-89671612D02*
X119564293Y-89849496D01*
X119797699Y-90054948D01*
X119932041Y-90164098D01*
X120043523Y-90238605D01*
X120098321Y-90260400D01*
X120165934Y-90221542D01*
X120256004Y-90123919D01*
X120290458Y-90076563D01*
X120361865Y-89951926D01*
X120393290Y-89856539D01*
X120391352Y-89835263D01*
X120337999Y-89774282D01*
X120229684Y-89684427D01*
X120162704Y-89635764D01*
X119958084Y-89493729D01*
X119761189Y-89671612D01*
G36*
X118762357Y-89634726D02*
X118687107Y-89694748D01*
X118524210Y-89840296D01*
X118690574Y-90050348D01*
X118829520Y-90197170D01*
X118948646Y-90253143D01*
X119062064Y-90223184D01*
X119102400Y-90193826D01*
X119187988Y-90112922D01*
X119293491Y-90001485D01*
X119302077Y-89991900D01*
X119425554Y-89853315D01*
X119279873Y-89701257D01*
X119112893Y-89578282D01*
X118941658Y-89556119D01*
X118762357Y-89634726D01*
X118762357Y-89634726D01*
G37*
X118762357Y-89634726D02*
X118687107Y-89694748D01*
X118524210Y-89840296D01*
X118690574Y-90050348D01*
X118829520Y-90197170D01*
X118948646Y-90253143D01*
X119062064Y-90223184D01*
X119102400Y-90193826D01*
X119187988Y-90112922D01*
X119293491Y-90001485D01*
X119302077Y-89991900D01*
X119425554Y-89853315D01*
X119279873Y-89701257D01*
X119112893Y-89578282D01*
X118941658Y-89556119D01*
X118762357Y-89634726D01*
G36*
X117527823Y-89858483D02*
X117630344Y-90059441D01*
X117718733Y-90193269D01*
X117805191Y-90257764D01*
X117822856Y-90260400D01*
X117904995Y-90225980D01*
X118025140Y-90136845D01*
X118127032Y-90042161D01*
X118341217Y-89823922D01*
X118171979Y-89659889D01*
X118002741Y-89495857D01*
X117527823Y-89858483D01*
X117527823Y-89858483D01*
G37*
X117527823Y-89858483D02*
X117630344Y-90059441D01*
X117718733Y-90193269D01*
X117805191Y-90257764D01*
X117822856Y-90260400D01*
X117904995Y-90225980D01*
X118025140Y-90136845D01*
X118127032Y-90042161D01*
X118341217Y-89823922D01*
X118171979Y-89659889D01*
X118002741Y-89495857D01*
X117527823Y-89858483D01*
G36*
X117706972Y-89214945D02*
X117588787Y-89292469D01*
X117492067Y-89381744D01*
X117451425Y-89447523D01*
X117380465Y-89542816D01*
X117321768Y-89575435D01*
X117205828Y-89646981D01*
X117100614Y-89769603D01*
X117018629Y-89916810D01*
X116972378Y-90062110D01*
X116974365Y-90179012D01*
X117012515Y-90230620D01*
X117069922Y-90213239D01*
X117169450Y-90139350D01*
X117241115Y-90072752D01*
X117364323Y-89922510D01*
X117423315Y-89790207D01*
X117426000Y-89763113D01*
X117435383Y-89678845D01*
X117475231Y-89680973D01*
X117501640Y-89701134D01*
X117561433Y-89727589D01*
X117637015Y-89700177D01*
X117753690Y-89608950D01*
X117768072Y-89596390D01*
X117904462Y-89440163D01*
X117942788Y-89298504D01*
X117882527Y-89174458D01*
X117815320Y-89168998D01*
X117706972Y-89214945D01*
X117706972Y-89214945D01*
G37*
X117706972Y-89214945D02*
X117588787Y-89292469D01*
X117492067Y-89381744D01*
X117451425Y-89447523D01*
X117380465Y-89542816D01*
X117321768Y-89575435D01*
X117205828Y-89646981D01*
X117100614Y-89769603D01*
X117018629Y-89916810D01*
X116972378Y-90062110D01*
X116974365Y-90179012D01*
X117012515Y-90230620D01*
X117069922Y-90213239D01*
X117169450Y-90139350D01*
X117241115Y-90072752D01*
X117364323Y-89922510D01*
X117423315Y-89790207D01*
X117426000Y-89763113D01*
X117435383Y-89678845D01*
X117475231Y-89680973D01*
X117501640Y-89701134D01*
X117561433Y-89727589D01*
X117637015Y-89700177D01*
X117753690Y-89608950D01*
X117768072Y-89596390D01*
X117904462Y-89440163D01*
X117942788Y-89298504D01*
X117882527Y-89174458D01*
X117815320Y-89168998D01*
X117706972Y-89214945D01*
G36*
X120038643Y-89268099D02*
X119983716Y-89367104D01*
X119989940Y-89433013D01*
X120032097Y-89487001D01*
X120131747Y-89574095D01*
X120262883Y-89663698D01*
X120267528Y-89666451D01*
X120423471Y-89758303D01*
X120478093Y-89615651D01*
X120506638Y-89488688D01*
X120470477Y-89386917D01*
X120356852Y-89285226D01*
X120286638Y-89238810D01*
X120124676Y-89136796D01*
X120038643Y-89268099D01*
X120038643Y-89268099D01*
G37*
X120038643Y-89268099D02*
X119983716Y-89367104D01*
X119989940Y-89433013D01*
X120032097Y-89487001D01*
X120131747Y-89574095D01*
X120262883Y-89663698D01*
X120267528Y-89666451D01*
X120423471Y-89758303D01*
X120478093Y-89615651D01*
X120506638Y-89488688D01*
X120470477Y-89386917D01*
X120356852Y-89285226D01*
X120286638Y-89238810D01*
X120124676Y-89136796D01*
X120038643Y-89268099D01*
G36*
X119350363Y-89215326D02*
X119226404Y-89267763D01*
X119115480Y-89331802D01*
X119054643Y-89388329D01*
X119051600Y-89399250D01*
X119089897Y-89453290D01*
X119184797Y-89537957D01*
X119306319Y-89630725D01*
X119424478Y-89709069D01*
X119509292Y-89750464D01*
X119521668Y-89752400D01*
X119594334Y-89714586D01*
X119687427Y-89620792D01*
X119710301Y-89591433D01*
X119829309Y-89430466D01*
X119691622Y-89312033D01*
X119569783Y-89231299D01*
X119458202Y-89193912D01*
X119450306Y-89193600D01*
X119350363Y-89215326D01*
X119350363Y-89215326D01*
G37*
X119350363Y-89215326D02*
X119226404Y-89267763D01*
X119115480Y-89331802D01*
X119054643Y-89388329D01*
X119051600Y-89399250D01*
X119089897Y-89453290D01*
X119184797Y-89537957D01*
X119306319Y-89630725D01*
X119424478Y-89709069D01*
X119509292Y-89750464D01*
X119521668Y-89752400D01*
X119594334Y-89714586D01*
X119687427Y-89620792D01*
X119710301Y-89591433D01*
X119829309Y-89430466D01*
X119691622Y-89312033D01*
X119569783Y-89231299D01*
X119458202Y-89193912D01*
X119450306Y-89193600D01*
X119350363Y-89215326D01*
G36*
X118331945Y-89261941D02*
X118202044Y-89363302D01*
X118157095Y-89448816D01*
X118190096Y-89545842D01*
X118241118Y-89616808D01*
X118340102Y-89717228D01*
X118435675Y-89742102D01*
X118550365Y-89689512D01*
X118683339Y-89579151D01*
X118792821Y-89474641D01*
X118836290Y-89409735D01*
X118823668Y-89356535D01*
X118780903Y-89304816D01*
X118638399Y-89197177D01*
X118486701Y-89187725D01*
X118331945Y-89261941D01*
X118331945Y-89261941D01*
G37*
X118331945Y-89261941D02*
X118202044Y-89363302D01*
X118157095Y-89448816D01*
X118190096Y-89545842D01*
X118241118Y-89616808D01*
X118340102Y-89717228D01*
X118435675Y-89742102D01*
X118550365Y-89689512D01*
X118683339Y-89579151D01*
X118792821Y-89474641D01*
X118836290Y-89409735D01*
X118823668Y-89356535D01*
X118780903Y-89304816D01*
X118638399Y-89197177D01*
X118486701Y-89187725D01*
X118331945Y-89261941D01*
G36*
X119302318Y-83965692D02*
X119225872Y-84119525D01*
X119129906Y-84370821D01*
X119017307Y-84701107D01*
X118924115Y-84979749D01*
X118856258Y-85172096D01*
X118808572Y-85288767D01*
X118775897Y-85340383D01*
X118753070Y-85337564D01*
X118734929Y-85290929D01*
X118733407Y-85285168D01*
X118675576Y-85164113D01*
X118568778Y-85015015D01*
X118478866Y-84914541D01*
X118264200Y-84697800D01*
X118248967Y-85050019D01*
X118243492Y-85237923D01*
X118254339Y-85358611D01*
X118292195Y-85446310D01*
X118367746Y-85535249D01*
X118415509Y-85583419D01*
X118527586Y-85687156D01*
X118594823Y-85722767D01*
X118637980Y-85699712D01*
X118645864Y-85688400D01*
X118684475Y-85642806D01*
X118695046Y-85692287D01*
X118695223Y-85704489D01*
X118724762Y-85799850D01*
X118798162Y-85930848D01*
X118835164Y-85983889D01*
X118886060Y-86057955D01*
X118881960Y-86071923D01*
X118817498Y-86022447D01*
X118687305Y-85906182D01*
X118638256Y-85861124D01*
X118443277Y-85693541D01*
X118229811Y-85530142D01*
X118012451Y-85379633D01*
X117805791Y-85250722D01*
X117624422Y-85152115D01*
X117482938Y-85092519D01*
X117395932Y-85080641D01*
X117375200Y-85107539D01*
X117404164Y-85189312D01*
X117493174Y-85334793D01*
X117645405Y-85548948D01*
X117729130Y-85660793D01*
X117863919Y-85850676D01*
X117986084Y-86043182D01*
X118071169Y-86199539D01*
X118076810Y-86211950D01*
X118180376Y-86380757D01*
X118354139Y-86568430D01*
X118558273Y-86746434D01*
X118724327Y-86880107D01*
X118859818Y-86985403D01*
X118946514Y-87048356D01*
X118967682Y-87060000D01*
X119000222Y-87018486D01*
X119016583Y-86971100D01*
X119033290Y-86952656D01*
X119044620Y-87021392D01*
X119045708Y-87043671D01*
X119073666Y-87183202D01*
X119129460Y-87283002D01*
X119179784Y-87359944D01*
X119153459Y-87446517D01*
X119142531Y-87464606D01*
X119111621Y-87588002D01*
X119158879Y-87691882D01*
X119266158Y-87742069D01*
X119290212Y-87742770D01*
X119357154Y-87754377D01*
X119352355Y-87813992D01*
X119336227Y-87850536D01*
X119301006Y-87912467D01*
X119265560Y-87913850D01*
X119209314Y-87844856D01*
X119156419Y-87764665D01*
X119061484Y-87646348D01*
X118970041Y-87576248D01*
X118938968Y-87568000D01*
X118859270Y-87606658D01*
X118755275Y-87705331D01*
X118695968Y-87779307D01*
X118542898Y-87990614D01*
X118575439Y-87827908D01*
X118581013Y-87687927D01*
X118519814Y-87567306D01*
X118486890Y-87527701D01*
X118365800Y-87390200D01*
X118504968Y-87512855D01*
X118602494Y-87590002D01*
X118666002Y-87602214D01*
X118733093Y-87556620D01*
X118733568Y-87556199D01*
X118849774Y-87483577D01*
X118924600Y-87458425D01*
X119015877Y-87402089D01*
X119040707Y-87299169D01*
X118999740Y-87187000D01*
X118086400Y-87187000D01*
X118061000Y-87212400D01*
X118035600Y-87187000D01*
X118061000Y-87161600D01*
X118086400Y-87187000D01*
X118999740Y-87187000D01*
X118997617Y-87181190D01*
X118957001Y-87136200D01*
X117984800Y-87136200D01*
X117959400Y-87161600D01*
X117934000Y-87136200D01*
X117959400Y-87110800D01*
X117984800Y-87136200D01*
X118957001Y-87136200D01*
X118940512Y-87117936D01*
X118549143Y-86788101D01*
X118223708Y-86517141D01*
X117953478Y-86297257D01*
X117727724Y-86120650D01*
X117535717Y-85979521D01*
X117366728Y-85866070D01*
X117210028Y-85772500D01*
X117054889Y-85691010D01*
X116890582Y-85613801D01*
X116840784Y-85591583D01*
X116645260Y-85523302D01*
X116460444Y-85489773D01*
X116313542Y-85493431D01*
X116231763Y-85536710D01*
X116231543Y-85537064D01*
X116251440Y-85588122D01*
X116341295Y-85648528D01*
X116368244Y-85660887D01*
X116456857Y-85719179D01*
X116601382Y-85837829D01*
X116787349Y-86003920D01*
X117000291Y-86204535D01*
X117222800Y-86423795D01*
X117458696Y-86663255D01*
X117627117Y-86839114D01*
X117733739Y-86958278D01*
X117784237Y-87027656D01*
X117784286Y-87054156D01*
X117739563Y-87044685D01*
X117729669Y-87040724D01*
X117590294Y-86995460D01*
X117385984Y-86943529D01*
X117149937Y-86891781D01*
X116915351Y-86847063D01*
X116715425Y-86816226D01*
X116591898Y-86806000D01*
X116485709Y-86827508D01*
X116383794Y-86878392D01*
X116317945Y-86938187D01*
X116316390Y-86983323D01*
X116385361Y-87012763D01*
X116508232Y-87039507D01*
X116519511Y-87041206D01*
X116755042Y-87104303D01*
X117034158Y-87223349D01*
X117329066Y-87381988D01*
X117611971Y-87563866D01*
X117855082Y-87752627D01*
X118028425Y-87929145D01*
X118148249Y-88080708D01*
X118012628Y-88046670D01*
X117887404Y-88034966D01*
X117732616Y-88048021D01*
X117567323Y-88079711D01*
X117410588Y-88123913D01*
X117281469Y-88174501D01*
X117199028Y-88225352D01*
X117182325Y-88270342D01*
X117229779Y-88298197D01*
X117318652Y-88323132D01*
X117461635Y-88362339D01*
X117527600Y-88380244D01*
X117679965Y-88428917D01*
X117795537Y-88478953D01*
X117822363Y-88496075D01*
X117914427Y-88541360D01*
X118053840Y-88581923D01*
X118076363Y-88586587D01*
X118163044Y-88605992D01*
X118172071Y-88618092D01*
X118095348Y-88625359D01*
X117934000Y-88630073D01*
X117600070Y-88668919D01*
X117375200Y-88747848D01*
X117146600Y-88858664D01*
X117324400Y-88873702D01*
X117592436Y-88899077D01*
X117803386Y-88924468D01*
X117944722Y-88947972D01*
X118003915Y-88967684D01*
X117997500Y-88976015D01*
X117942114Y-89040881D01*
X117944875Y-89147441D01*
X118003695Y-89255568D01*
X118012520Y-89264861D01*
X118067149Y-89305288D01*
X118132567Y-89305394D01*
X118237703Y-89260057D01*
X118333452Y-89208036D01*
X118575865Y-89072692D01*
X118767395Y-89218779D01*
X118889973Y-89305073D01*
X118970156Y-89333110D01*
X119041983Y-89311569D01*
X119068763Y-89295623D01*
X119241987Y-89190517D01*
X119361224Y-89137811D01*
X119456999Y-89133518D01*
X119559843Y-89173651D01*
X119643122Y-89220604D01*
X119786903Y-89302842D01*
X119869220Y-89336201D01*
X119916419Y-89322908D01*
X119954848Y-89265190D01*
X119964213Y-89247739D01*
X120012835Y-89106194D01*
X119993729Y-89006088D01*
X119953300Y-88976420D01*
X119967088Y-88952864D01*
X120060148Y-88910269D01*
X120213852Y-88856748D01*
X120262967Y-88841586D01*
X120436481Y-88786133D01*
X120561260Y-88740080D01*
X120615356Y-88711711D01*
X120615482Y-88708548D01*
X120536188Y-88678474D01*
X120453793Y-88665635D01*
X119610400Y-88665635D01*
X119568918Y-88683393D01*
X119534200Y-88685600D01*
X119466585Y-88659014D01*
X119458000Y-88636394D01*
X119495237Y-88608443D01*
X119534200Y-88616429D01*
X119601041Y-88652486D01*
X119610400Y-88665635D01*
X120453793Y-88665635D01*
X120373854Y-88653179D01*
X120147017Y-88635263D01*
X120067600Y-88631656D01*
X119939516Y-88622514D01*
X119887206Y-88609483D01*
X119913230Y-88597542D01*
X120015130Y-88552128D01*
X120156759Y-88456964D01*
X120291047Y-88346843D01*
X120445870Y-88215895D01*
X120593608Y-88104512D01*
X120686718Y-88045678D01*
X120806131Y-87969613D01*
X120834665Y-87915632D01*
X120780863Y-87884897D01*
X120653269Y-87878566D01*
X120460424Y-87897801D01*
X120210873Y-87943760D01*
X120108443Y-87967156D01*
X119822675Y-88046188D01*
X119626641Y-88127956D01*
X119508571Y-88219672D01*
X119456697Y-88328545D01*
X119452108Y-88369271D01*
X119442232Y-88445789D01*
X119424857Y-88425721D01*
X119422983Y-88418900D01*
X119375408Y-88344166D01*
X119285008Y-88345494D01*
X119142154Y-88423972D01*
X119097213Y-88455703D01*
X118865362Y-88602744D01*
X118681378Y-88669373D01*
X118572330Y-88669423D01*
X118520029Y-88653859D01*
X118563953Y-88644384D01*
X118607100Y-88641718D01*
X118717820Y-88612504D01*
X118736883Y-88541374D01*
X118664489Y-88429829D01*
X118566242Y-88334392D01*
X118460093Y-88234806D01*
X118422736Y-88172050D01*
X118443071Y-88120180D01*
X118464642Y-88096901D01*
X118524917Y-88045649D01*
X118542768Y-88073284D01*
X118543600Y-88105676D01*
X118573017Y-88199774D01*
X118646285Y-88326139D01*
X118673028Y-88363098D01*
X118802456Y-88532787D01*
X119015928Y-88424784D01*
X119152694Y-88345503D01*
X119249864Y-88270877D01*
X119270623Y-88246122D01*
X119330712Y-88199825D01*
X119360013Y-88205232D01*
X119428614Y-88197321D01*
X119531100Y-88138121D01*
X119541323Y-88130273D01*
X119679810Y-88047996D01*
X119851005Y-87979081D01*
X119883732Y-87969551D01*
X120031063Y-87912822D01*
X120220891Y-87816520D01*
X120413572Y-87700864D01*
X120424225Y-87693839D01*
X120628971Y-87568014D01*
X120845345Y-87450659D01*
X121023635Y-87368412D01*
X121214841Y-87288600D01*
X120220000Y-87288600D01*
X120194600Y-87314000D01*
X120169200Y-87288600D01*
X120194600Y-87263200D01*
X120220000Y-87288600D01*
X121214841Y-87288600D01*
X121326427Y-87242023D01*
X121530996Y-87140282D01*
X121637246Y-87063246D01*
X121645084Y-87010970D01*
X121637385Y-87005025D01*
X121505746Y-86965320D01*
X121308797Y-86957012D01*
X121077001Y-86977586D01*
X120840822Y-87024528D01*
X120651800Y-87086370D01*
X120458190Y-87164415D01*
X120352850Y-87201793D01*
X120331189Y-87199066D01*
X120347582Y-87187000D01*
X119356400Y-87187000D01*
X119331000Y-87212400D01*
X119305600Y-87187000D01*
X119331000Y-87161600D01*
X119356400Y-87187000D01*
X120347582Y-87187000D01*
X120388619Y-87156796D01*
X120464678Y-87109302D01*
X120567766Y-87032611D01*
X120707589Y-86909802D01*
X120870554Y-86755103D01*
X120895879Y-86729800D01*
X119737400Y-86729800D01*
X119588196Y-86894900D01*
X119479850Y-87010315D01*
X119423552Y-87056914D01*
X119407203Y-87044671D01*
X119407200Y-87044104D01*
X119441210Y-87003734D01*
X119526908Y-86920641D01*
X119572300Y-86879004D01*
X119737400Y-86729800D01*
X120895879Y-86729800D01*
X120946724Y-86679000D01*
X119864400Y-86679000D01*
X119839000Y-86704400D01*
X119813600Y-86679000D01*
X119839000Y-86653600D01*
X119864400Y-86679000D01*
X120946724Y-86679000D01*
X121043069Y-86582740D01*
X121048186Y-86577400D01*
X120016800Y-86577400D01*
X119991400Y-86602800D01*
X119966000Y-86577400D01*
X119991400Y-86552000D01*
X120016800Y-86577400D01*
X121048186Y-86577400D01*
X121211543Y-86406940D01*
X121362383Y-86241930D01*
X121481997Y-86101937D01*
X121556793Y-86001186D01*
X121573178Y-85953906D01*
X121570009Y-85952357D01*
X121490126Y-85963039D01*
X121339460Y-86005942D01*
X121140405Y-86072776D01*
X120915352Y-86155253D01*
X120686694Y-86245085D01*
X120476823Y-86333982D01*
X120308133Y-86413656D01*
X120271929Y-86432853D01*
X120044458Y-86557782D01*
X120149408Y-86440591D01*
X120241674Y-86310181D01*
X119236547Y-86310181D01*
X119211406Y-86364029D01*
X119199198Y-86384589D01*
X119147576Y-86464208D01*
X119127048Y-86486189D01*
X119101080Y-86440149D01*
X119043431Y-86340871D01*
X119033210Y-86323400D01*
X118976467Y-86224769D01*
X118972615Y-86206481D01*
X119023123Y-86261249D01*
X119041521Y-86282204D01*
X119123707Y-86354589D01*
X119186692Y-86346582D01*
X119202911Y-86333004D01*
X119236547Y-86310181D01*
X120241674Y-86310181D01*
X120243491Y-86307614D01*
X120321162Y-86154389D01*
X120351781Y-86095185D01*
X119403873Y-86095185D01*
X119391258Y-86121492D01*
X119362880Y-86158300D01*
X119288732Y-86237277D01*
X119255635Y-86236934D01*
X119254800Y-86228020D01*
X119289516Y-86185615D01*
X119343700Y-86139120D01*
X119403873Y-86095185D01*
X120351781Y-86095185D01*
X120387392Y-86026331D01*
X120494530Y-85858399D01*
X120608783Y-85701010D01*
X120661947Y-85629856D01*
X119940600Y-85629856D01*
X119815263Y-85722628D01*
X119682046Y-85826844D01*
X119561263Y-85928094D01*
X119456194Y-86016152D01*
X119419485Y-86033770D01*
X119446447Y-85981122D01*
X119480520Y-85931096D01*
X119543628Y-85806495D01*
X119565493Y-85715196D01*
X119573448Y-85649496D01*
X119589337Y-85681560D01*
X119594618Y-85701100D01*
X119619131Y-85769275D01*
X119661574Y-85781715D01*
X119750923Y-85739650D01*
X119802688Y-85709928D01*
X119940600Y-85629856D01*
X120661947Y-85629856D01*
X120718028Y-85554798D01*
X120796980Y-85438590D01*
X120829480Y-85376262D01*
X120829600Y-85374720D01*
X120787786Y-85335391D01*
X120673003Y-85342025D01*
X120501244Y-85391507D01*
X120290534Y-85479756D01*
X119980068Y-85626633D01*
X120074634Y-85322790D01*
X120140117Y-85091311D01*
X120164916Y-84939916D01*
X120149115Y-84855631D01*
X120092802Y-84825480D01*
X120077910Y-84824800D01*
X119990572Y-84860984D01*
X119872125Y-84951326D01*
X119750631Y-85068509D01*
X119654150Y-85185216D01*
X119610745Y-85274131D01*
X119610400Y-85279908D01*
X119596182Y-85327914D01*
X119584438Y-85323770D01*
X119571038Y-85266088D01*
X119552960Y-85126966D01*
X119532431Y-84926328D01*
X119511675Y-84684100D01*
X119508661Y-84645166D01*
X119479709Y-84317387D01*
X119447939Y-84085170D01*
X119410011Y-83948894D01*
X119362584Y-83908942D01*
X119302318Y-83965692D01*
X119302318Y-83965692D01*
G37*
X119302318Y-83965692D02*
X119225872Y-84119525D01*
X119129906Y-84370821D01*
X119017307Y-84701107D01*
X118924115Y-84979749D01*
X118856258Y-85172096D01*
X118808572Y-85288767D01*
X118775897Y-85340383D01*
X118753070Y-85337564D01*
X118734929Y-85290929D01*
X118733407Y-85285168D01*
X118675576Y-85164113D01*
X118568778Y-85015015D01*
X118478866Y-84914541D01*
X118264200Y-84697800D01*
X118248967Y-85050019D01*
X118243492Y-85237923D01*
X118254339Y-85358611D01*
X118292195Y-85446310D01*
X118367746Y-85535249D01*
X118415509Y-85583419D01*
X118527586Y-85687156D01*
X118594823Y-85722767D01*
X118637980Y-85699712D01*
X118645864Y-85688400D01*
X118684475Y-85642806D01*
X118695046Y-85692287D01*
X118695223Y-85704489D01*
X118724762Y-85799850D01*
X118798162Y-85930848D01*
X118835164Y-85983889D01*
X118886060Y-86057955D01*
X118881960Y-86071923D01*
X118817498Y-86022447D01*
X118687305Y-85906182D01*
X118638256Y-85861124D01*
X118443277Y-85693541D01*
X118229811Y-85530142D01*
X118012451Y-85379633D01*
X117805791Y-85250722D01*
X117624422Y-85152115D01*
X117482938Y-85092519D01*
X117395932Y-85080641D01*
X117375200Y-85107539D01*
X117404164Y-85189312D01*
X117493174Y-85334793D01*
X117645405Y-85548948D01*
X117729130Y-85660793D01*
X117863919Y-85850676D01*
X117986084Y-86043182D01*
X118071169Y-86199539D01*
X118076810Y-86211950D01*
X118180376Y-86380757D01*
X118354139Y-86568430D01*
X118558273Y-86746434D01*
X118724327Y-86880107D01*
X118859818Y-86985403D01*
X118946514Y-87048356D01*
X118967682Y-87060000D01*
X119000222Y-87018486D01*
X119016583Y-86971100D01*
X119033290Y-86952656D01*
X119044620Y-87021392D01*
X119045708Y-87043671D01*
X119073666Y-87183202D01*
X119129460Y-87283002D01*
X119179784Y-87359944D01*
X119153459Y-87446517D01*
X119142531Y-87464606D01*
X119111621Y-87588002D01*
X119158879Y-87691882D01*
X119266158Y-87742069D01*
X119290212Y-87742770D01*
X119357154Y-87754377D01*
X119352355Y-87813992D01*
X119336227Y-87850536D01*
X119301006Y-87912467D01*
X119265560Y-87913850D01*
X119209314Y-87844856D01*
X119156419Y-87764665D01*
X119061484Y-87646348D01*
X118970041Y-87576248D01*
X118938968Y-87568000D01*
X118859270Y-87606658D01*
X118755275Y-87705331D01*
X118695968Y-87779307D01*
X118542898Y-87990614D01*
X118575439Y-87827908D01*
X118581013Y-87687927D01*
X118519814Y-87567306D01*
X118486890Y-87527701D01*
X118365800Y-87390200D01*
X118504968Y-87512855D01*
X118602494Y-87590002D01*
X118666002Y-87602214D01*
X118733093Y-87556620D01*
X118733568Y-87556199D01*
X118849774Y-87483577D01*
X118924600Y-87458425D01*
X119015877Y-87402089D01*
X119040707Y-87299169D01*
X118999740Y-87187000D01*
X118086400Y-87187000D01*
X118061000Y-87212400D01*
X118035600Y-87187000D01*
X118061000Y-87161600D01*
X118086400Y-87187000D01*
X118999740Y-87187000D01*
X118997617Y-87181190D01*
X118957001Y-87136200D01*
X117984800Y-87136200D01*
X117959400Y-87161600D01*
X117934000Y-87136200D01*
X117959400Y-87110800D01*
X117984800Y-87136200D01*
X118957001Y-87136200D01*
X118940512Y-87117936D01*
X118549143Y-86788101D01*
X118223708Y-86517141D01*
X117953478Y-86297257D01*
X117727724Y-86120650D01*
X117535717Y-85979521D01*
X117366728Y-85866070D01*
X117210028Y-85772500D01*
X117054889Y-85691010D01*
X116890582Y-85613801D01*
X116840784Y-85591583D01*
X116645260Y-85523302D01*
X116460444Y-85489773D01*
X116313542Y-85493431D01*
X116231763Y-85536710D01*
X116231543Y-85537064D01*
X116251440Y-85588122D01*
X116341295Y-85648528D01*
X116368244Y-85660887D01*
X116456857Y-85719179D01*
X116601382Y-85837829D01*
X116787349Y-86003920D01*
X117000291Y-86204535D01*
X117222800Y-86423795D01*
X117458696Y-86663255D01*
X117627117Y-86839114D01*
X117733739Y-86958278D01*
X117784237Y-87027656D01*
X117784286Y-87054156D01*
X117739563Y-87044685D01*
X117729669Y-87040724D01*
X117590294Y-86995460D01*
X117385984Y-86943529D01*
X117149937Y-86891781D01*
X116915351Y-86847063D01*
X116715425Y-86816226D01*
X116591898Y-86806000D01*
X116485709Y-86827508D01*
X116383794Y-86878392D01*
X116317945Y-86938187D01*
X116316390Y-86983323D01*
X116385361Y-87012763D01*
X116508232Y-87039507D01*
X116519511Y-87041206D01*
X116755042Y-87104303D01*
X117034158Y-87223349D01*
X117329066Y-87381988D01*
X117611971Y-87563866D01*
X117855082Y-87752627D01*
X118028425Y-87929145D01*
X118148249Y-88080708D01*
X118012628Y-88046670D01*
X117887404Y-88034966D01*
X117732616Y-88048021D01*
X117567323Y-88079711D01*
X117410588Y-88123913D01*
X117281469Y-88174501D01*
X117199028Y-88225352D01*
X117182325Y-88270342D01*
X117229779Y-88298197D01*
X117318652Y-88323132D01*
X117461635Y-88362339D01*
X117527600Y-88380244D01*
X117679965Y-88428917D01*
X117795537Y-88478953D01*
X117822363Y-88496075D01*
X117914427Y-88541360D01*
X118053840Y-88581923D01*
X118076363Y-88586587D01*
X118163044Y-88605992D01*
X118172071Y-88618092D01*
X118095348Y-88625359D01*
X117934000Y-88630073D01*
X117600070Y-88668919D01*
X117375200Y-88747848D01*
X117146600Y-88858664D01*
X117324400Y-88873702D01*
X117592436Y-88899077D01*
X117803386Y-88924468D01*
X117944722Y-88947972D01*
X118003915Y-88967684D01*
X117997500Y-88976015D01*
X117942114Y-89040881D01*
X117944875Y-89147441D01*
X118003695Y-89255568D01*
X118012520Y-89264861D01*
X118067149Y-89305288D01*
X118132567Y-89305394D01*
X118237703Y-89260057D01*
X118333452Y-89208036D01*
X118575865Y-89072692D01*
X118767395Y-89218779D01*
X118889973Y-89305073D01*
X118970156Y-89333110D01*
X119041983Y-89311569D01*
X119068763Y-89295623D01*
X119241987Y-89190517D01*
X119361224Y-89137811D01*
X119456999Y-89133518D01*
X119559843Y-89173651D01*
X119643122Y-89220604D01*
X119786903Y-89302842D01*
X119869220Y-89336201D01*
X119916419Y-89322908D01*
X119954848Y-89265190D01*
X119964213Y-89247739D01*
X120012835Y-89106194D01*
X119993729Y-89006088D01*
X119953300Y-88976420D01*
X119967088Y-88952864D01*
X120060148Y-88910269D01*
X120213852Y-88856748D01*
X120262967Y-88841586D01*
X120436481Y-88786133D01*
X120561260Y-88740080D01*
X120615356Y-88711711D01*
X120615482Y-88708548D01*
X120536188Y-88678474D01*
X120453793Y-88665635D01*
X119610400Y-88665635D01*
X119568918Y-88683393D01*
X119534200Y-88685600D01*
X119466585Y-88659014D01*
X119458000Y-88636394D01*
X119495237Y-88608443D01*
X119534200Y-88616429D01*
X119601041Y-88652486D01*
X119610400Y-88665635D01*
X120453793Y-88665635D01*
X120373854Y-88653179D01*
X120147017Y-88635263D01*
X120067600Y-88631656D01*
X119939516Y-88622514D01*
X119887206Y-88609483D01*
X119913230Y-88597542D01*
X120015130Y-88552128D01*
X120156759Y-88456964D01*
X120291047Y-88346843D01*
X120445870Y-88215895D01*
X120593608Y-88104512D01*
X120686718Y-88045678D01*
X120806131Y-87969613D01*
X120834665Y-87915632D01*
X120780863Y-87884897D01*
X120653269Y-87878566D01*
X120460424Y-87897801D01*
X120210873Y-87943760D01*
X120108443Y-87967156D01*
X119822675Y-88046188D01*
X119626641Y-88127956D01*
X119508571Y-88219672D01*
X119456697Y-88328545D01*
X119452108Y-88369271D01*
X119442232Y-88445789D01*
X119424857Y-88425721D01*
X119422983Y-88418900D01*
X119375408Y-88344166D01*
X119285008Y-88345494D01*
X119142154Y-88423972D01*
X119097213Y-88455703D01*
X118865362Y-88602744D01*
X118681378Y-88669373D01*
X118572330Y-88669423D01*
X118520029Y-88653859D01*
X118563953Y-88644384D01*
X118607100Y-88641718D01*
X118717820Y-88612504D01*
X118736883Y-88541374D01*
X118664489Y-88429829D01*
X118566242Y-88334392D01*
X118460093Y-88234806D01*
X118422736Y-88172050D01*
X118443071Y-88120180D01*
X118464642Y-88096901D01*
X118524917Y-88045649D01*
X118542768Y-88073284D01*
X118543600Y-88105676D01*
X118573017Y-88199774D01*
X118646285Y-88326139D01*
X118673028Y-88363098D01*
X118802456Y-88532787D01*
X119015928Y-88424784D01*
X119152694Y-88345503D01*
X119249864Y-88270877D01*
X119270623Y-88246122D01*
X119330712Y-88199825D01*
X119360013Y-88205232D01*
X119428614Y-88197321D01*
X119531100Y-88138121D01*
X119541323Y-88130273D01*
X119679810Y-88047996D01*
X119851005Y-87979081D01*
X119883732Y-87969551D01*
X120031063Y-87912822D01*
X120220891Y-87816520D01*
X120413572Y-87700864D01*
X120424225Y-87693839D01*
X120628971Y-87568014D01*
X120845345Y-87450659D01*
X121023635Y-87368412D01*
X121214841Y-87288600D01*
X120220000Y-87288600D01*
X120194600Y-87314000D01*
X120169200Y-87288600D01*
X120194600Y-87263200D01*
X120220000Y-87288600D01*
X121214841Y-87288600D01*
X121326427Y-87242023D01*
X121530996Y-87140282D01*
X121637246Y-87063246D01*
X121645084Y-87010970D01*
X121637385Y-87005025D01*
X121505746Y-86965320D01*
X121308797Y-86957012D01*
X121077001Y-86977586D01*
X120840822Y-87024528D01*
X120651800Y-87086370D01*
X120458190Y-87164415D01*
X120352850Y-87201793D01*
X120331189Y-87199066D01*
X120347582Y-87187000D01*
X119356400Y-87187000D01*
X119331000Y-87212400D01*
X119305600Y-87187000D01*
X119331000Y-87161600D01*
X119356400Y-87187000D01*
X120347582Y-87187000D01*
X120388619Y-87156796D01*
X120464678Y-87109302D01*
X120567766Y-87032611D01*
X120707589Y-86909802D01*
X120870554Y-86755103D01*
X120895879Y-86729800D01*
X119737400Y-86729800D01*
X119588196Y-86894900D01*
X119479850Y-87010315D01*
X119423552Y-87056914D01*
X119407203Y-87044671D01*
X119407200Y-87044104D01*
X119441210Y-87003734D01*
X119526908Y-86920641D01*
X119572300Y-86879004D01*
X119737400Y-86729800D01*
X120895879Y-86729800D01*
X120946724Y-86679000D01*
X119864400Y-86679000D01*
X119839000Y-86704400D01*
X119813600Y-86679000D01*
X119839000Y-86653600D01*
X119864400Y-86679000D01*
X120946724Y-86679000D01*
X121043069Y-86582740D01*
X121048186Y-86577400D01*
X120016800Y-86577400D01*
X119991400Y-86602800D01*
X119966000Y-86577400D01*
X119991400Y-86552000D01*
X120016800Y-86577400D01*
X121048186Y-86577400D01*
X121211543Y-86406940D01*
X121362383Y-86241930D01*
X121481997Y-86101937D01*
X121556793Y-86001186D01*
X121573178Y-85953906D01*
X121570009Y-85952357D01*
X121490126Y-85963039D01*
X121339460Y-86005942D01*
X121140405Y-86072776D01*
X120915352Y-86155253D01*
X120686694Y-86245085D01*
X120476823Y-86333982D01*
X120308133Y-86413656D01*
X120271929Y-86432853D01*
X120044458Y-86557782D01*
X120149408Y-86440591D01*
X120241674Y-86310181D01*
X119236547Y-86310181D01*
X119211406Y-86364029D01*
X119199198Y-86384589D01*
X119147576Y-86464208D01*
X119127048Y-86486189D01*
X119101080Y-86440149D01*
X119043431Y-86340871D01*
X119033210Y-86323400D01*
X118976467Y-86224769D01*
X118972615Y-86206481D01*
X119023123Y-86261249D01*
X119041521Y-86282204D01*
X119123707Y-86354589D01*
X119186692Y-86346582D01*
X119202911Y-86333004D01*
X119236547Y-86310181D01*
X120241674Y-86310181D01*
X120243491Y-86307614D01*
X120321162Y-86154389D01*
X120351781Y-86095185D01*
X119403873Y-86095185D01*
X119391258Y-86121492D01*
X119362880Y-86158300D01*
X119288732Y-86237277D01*
X119255635Y-86236934D01*
X119254800Y-86228020D01*
X119289516Y-86185615D01*
X119343700Y-86139120D01*
X119403873Y-86095185D01*
X120351781Y-86095185D01*
X120387392Y-86026331D01*
X120494530Y-85858399D01*
X120608783Y-85701010D01*
X120661947Y-85629856D01*
X119940600Y-85629856D01*
X119815263Y-85722628D01*
X119682046Y-85826844D01*
X119561263Y-85928094D01*
X119456194Y-86016152D01*
X119419485Y-86033770D01*
X119446447Y-85981122D01*
X119480520Y-85931096D01*
X119543628Y-85806495D01*
X119565493Y-85715196D01*
X119573448Y-85649496D01*
X119589337Y-85681560D01*
X119594618Y-85701100D01*
X119619131Y-85769275D01*
X119661574Y-85781715D01*
X119750923Y-85739650D01*
X119802688Y-85709928D01*
X119940600Y-85629856D01*
X120661947Y-85629856D01*
X120718028Y-85554798D01*
X120796980Y-85438590D01*
X120829480Y-85376262D01*
X120829600Y-85374720D01*
X120787786Y-85335391D01*
X120673003Y-85342025D01*
X120501244Y-85391507D01*
X120290534Y-85479756D01*
X119980068Y-85626633D01*
X120074634Y-85322790D01*
X120140117Y-85091311D01*
X120164916Y-84939916D01*
X120149115Y-84855631D01*
X120092802Y-84825480D01*
X120077910Y-84824800D01*
X119990572Y-84860984D01*
X119872125Y-84951326D01*
X119750631Y-85068509D01*
X119654150Y-85185216D01*
X119610745Y-85274131D01*
X119610400Y-85279908D01*
X119596182Y-85327914D01*
X119584438Y-85323770D01*
X119571038Y-85266088D01*
X119552960Y-85126966D01*
X119532431Y-84926328D01*
X119511675Y-84684100D01*
X119508661Y-84645166D01*
X119479709Y-84317387D01*
X119447939Y-84085170D01*
X119410011Y-83948894D01*
X119362584Y-83908942D01*
X119302318Y-83965692D01*
D14*
X119859524Y-116161905D02*
X119859524Y-116809524D01*
X119821429Y-116885714D01*
X119783333Y-116923810D01*
X119707143Y-116961905D01*
X119554762Y-116961905D01*
X119478571Y-116923810D01*
X119440476Y-116885714D01*
X119402381Y-116809524D01*
X119402381Y-116161905D01*
X118602381Y-116961905D02*
X119059524Y-116961905D01*
X118830953Y-116961905D02*
X118830953Y-116161905D01*
X118907143Y-116276190D01*
X118983334Y-116352381D01*
X119059524Y-116390476D01*
X102959524Y-84561905D02*
X102959524Y-85209524D01*
X102921429Y-85285714D01*
X102883333Y-85323810D01*
X102807143Y-85361905D01*
X102654762Y-85361905D01*
X102578571Y-85323810D01*
X102540476Y-85285714D01*
X102502381Y-85209524D01*
X102502381Y-84561905D01*
X102159524Y-84638095D02*
X102121429Y-84600000D01*
X102045238Y-84561905D01*
X101854762Y-84561905D01*
X101778572Y-84600000D01*
X101740476Y-84638095D01*
X101702381Y-84714286D01*
X101702381Y-84790476D01*
X101740476Y-84904762D01*
X102197619Y-85361905D01*
X101702381Y-85361905D01*
X97383333Y-89285714D02*
X97421428Y-89323810D01*
X97535714Y-89361905D01*
X97611904Y-89361905D01*
X97726190Y-89323810D01*
X97802381Y-89247619D01*
X97840476Y-89171429D01*
X97878571Y-89019048D01*
X97878571Y-88904762D01*
X97840476Y-88752381D01*
X97802381Y-88676190D01*
X97726190Y-88600000D01*
X97611904Y-88561905D01*
X97535714Y-88561905D01*
X97421428Y-88600000D01*
X97383333Y-88638095D01*
X96659523Y-88561905D02*
X97040476Y-88561905D01*
X97078571Y-88942857D01*
X97040476Y-88904762D01*
X96964285Y-88866667D01*
X96773809Y-88866667D01*
X96697619Y-88904762D01*
X96659523Y-88942857D01*
X96621428Y-89019048D01*
X96621428Y-89209524D01*
X96659523Y-89285714D01*
X96697619Y-89323810D01*
X96773809Y-89361905D01*
X96964285Y-89361905D01*
X97040476Y-89323810D01*
X97078571Y-89285714D01*
X102433333Y-89285714D02*
X102471428Y-89323810D01*
X102585714Y-89361905D01*
X102661904Y-89361905D01*
X102776190Y-89323810D01*
X102852381Y-89247619D01*
X102890476Y-89171429D01*
X102928571Y-89019048D01*
X102928571Y-88904762D01*
X102890476Y-88752381D01*
X102852381Y-88676190D01*
X102776190Y-88600000D01*
X102661904Y-88561905D01*
X102585714Y-88561905D01*
X102471428Y-88600000D01*
X102433333Y-88638095D01*
X101747619Y-88828571D02*
X101747619Y-89361905D01*
X101938095Y-88523810D02*
X102128571Y-89095238D01*
X101633333Y-89095238D01*
X99283333Y-114185714D02*
X99321428Y-114223810D01*
X99435714Y-114261905D01*
X99511904Y-114261905D01*
X99626190Y-114223810D01*
X99702381Y-114147619D01*
X99740476Y-114071429D01*
X99778571Y-113919048D01*
X99778571Y-113804762D01*
X99740476Y-113652381D01*
X99702381Y-113576190D01*
X99626190Y-113500000D01*
X99511904Y-113461905D01*
X99435714Y-113461905D01*
X99321428Y-113500000D01*
X99283333Y-113538095D01*
X99016666Y-113461905D02*
X98521428Y-113461905D01*
X98788095Y-113766667D01*
X98673809Y-113766667D01*
X98597619Y-113804762D01*
X98559523Y-113842857D01*
X98521428Y-113919048D01*
X98521428Y-114109524D01*
X98559523Y-114185714D01*
X98597619Y-114223810D01*
X98673809Y-114261905D01*
X98902381Y-114261905D01*
X98978571Y-114223810D01*
X99016666Y-114185714D01*
X121283333Y-117735714D02*
X121321428Y-117773810D01*
X121435714Y-117811905D01*
X121511904Y-117811905D01*
X121626190Y-117773810D01*
X121702381Y-117697619D01*
X121740476Y-117621429D01*
X121778571Y-117469048D01*
X121778571Y-117354762D01*
X121740476Y-117202381D01*
X121702381Y-117126190D01*
X121626190Y-117050000D01*
X121511904Y-117011905D01*
X121435714Y-117011905D01*
X121321428Y-117050000D01*
X121283333Y-117088095D01*
X120978571Y-117088095D02*
X120940476Y-117050000D01*
X120864285Y-117011905D01*
X120673809Y-117011905D01*
X120597619Y-117050000D01*
X120559523Y-117088095D01*
X120521428Y-117164286D01*
X120521428Y-117240476D01*
X120559523Y-117354762D01*
X121016666Y-117811905D01*
X120521428Y-117811905D01*
X112771209Y-121446311D02*
X112771209Y-121500186D01*
X112825084Y-121607936D01*
X112878958Y-121661810D01*
X112986708Y-121715685D01*
X113094458Y-121715685D01*
X113175270Y-121688748D01*
X113309957Y-121607936D01*
X113390769Y-121527123D01*
X113471582Y-121392437D01*
X113498520Y-121311624D01*
X113498519Y-121203874D01*
X113444644Y-121096125D01*
X113390769Y-121042250D01*
X113283020Y-120988375D01*
X113229145Y-120988375D01*
X112178586Y-120961438D02*
X112501835Y-121284687D01*
X112340211Y-121123063D02*
X112905896Y-120557377D01*
X112878959Y-120692064D01*
X112878959Y-120799814D01*
X112905896Y-120880626D01*
X86766666Y-121092857D02*
X87033333Y-121092857D01*
X87033333Y-121511905D02*
X87033333Y-120711905D01*
X86652380Y-120711905D01*
X85928571Y-121511905D02*
X86385714Y-121511905D01*
X86157143Y-121511905D02*
X86157143Y-120711905D01*
X86233333Y-120826190D01*
X86309524Y-120902381D01*
X86385714Y-120940476D01*
X79476190Y-103438095D02*
X79552381Y-103400000D01*
X79628571Y-103323810D01*
X79742857Y-103209524D01*
X79819048Y-103171429D01*
X79895238Y-103171429D01*
X79857143Y-103361905D02*
X79933333Y-103323810D01*
X80009524Y-103247619D01*
X80047619Y-103095238D01*
X80047619Y-102828571D01*
X80009524Y-102676190D01*
X79933333Y-102600000D01*
X79857143Y-102561905D01*
X79704762Y-102561905D01*
X79628571Y-102600000D01*
X79552381Y-102676190D01*
X79514286Y-102828571D01*
X79514286Y-103095238D01*
X79552381Y-103247619D01*
X79628571Y-103323810D01*
X79704762Y-103361905D01*
X79857143Y-103361905D01*
X78752381Y-103361905D02*
X79209524Y-103361905D01*
X78980953Y-103361905D02*
X78980953Y-102561905D01*
X79057143Y-102676190D01*
X79133334Y-102752381D01*
X79209524Y-102790476D01*
X99233333Y-82185714D02*
X99271428Y-82223810D01*
X99385714Y-82261905D01*
X99461904Y-82261905D01*
X99576190Y-82223810D01*
X99652381Y-82147619D01*
X99690476Y-82071429D01*
X99728571Y-81919048D01*
X99728571Y-81804762D01*
X99690476Y-81652381D01*
X99652381Y-81576190D01*
X99576190Y-81500000D01*
X99461904Y-81461905D01*
X99385714Y-81461905D01*
X99271428Y-81500000D01*
X99233333Y-81538095D01*
X98547619Y-81461905D02*
X98700000Y-81461905D01*
X98776190Y-81500000D01*
X98814285Y-81538095D01*
X98890476Y-81652381D01*
X98928571Y-81804762D01*
X98928571Y-82109524D01*
X98890476Y-82185714D01*
X98852381Y-82223810D01*
X98776190Y-82261905D01*
X98623809Y-82261905D01*
X98547619Y-82223810D01*
X98509523Y-82185714D01*
X98471428Y-82109524D01*
X98471428Y-81919048D01*
X98509523Y-81842857D01*
X98547619Y-81804762D01*
X98623809Y-81766667D01*
X98776190Y-81766667D01*
X98852381Y-81804762D01*
X98890476Y-81842857D01*
X98928571Y-81919048D01*
X85590476Y-117411905D02*
X85590476Y-116611905D01*
X85285714Y-116611905D01*
X85209523Y-116650000D01*
X85171428Y-116688095D01*
X85133333Y-116764286D01*
X85133333Y-116878571D01*
X85171428Y-116954762D01*
X85209523Y-116992857D01*
X85285714Y-117030952D01*
X85590476Y-117030952D01*
X84409523Y-116611905D02*
X84790476Y-116611905D01*
X84828571Y-116992857D01*
X84790476Y-116954762D01*
X84714285Y-116916667D01*
X84523809Y-116916667D01*
X84447619Y-116954762D01*
X84409523Y-116992857D01*
X84371428Y-117069048D01*
X84371428Y-117259524D01*
X84409523Y-117335714D01*
X84447619Y-117373810D01*
X84523809Y-117411905D01*
X84714285Y-117411905D01*
X84790476Y-117373810D01*
X84828571Y-117335714D01*
X99014286Y-109811905D02*
X99280953Y-109430952D01*
X99471429Y-109811905D02*
X99471429Y-109011905D01*
X99166667Y-109011905D01*
X99090476Y-109050000D01*
X99052381Y-109088095D01*
X99014286Y-109164286D01*
X99014286Y-109278571D01*
X99052381Y-109354762D01*
X99090476Y-109392857D01*
X99166667Y-109430952D01*
X99471429Y-109430952D01*
X98747619Y-109011905D02*
X98252381Y-109011905D01*
X98519048Y-109316667D01*
X98404762Y-109316667D01*
X98328572Y-109354762D01*
X98290476Y-109392857D01*
X98252381Y-109469048D01*
X98252381Y-109659524D01*
X98290476Y-109735714D01*
X98328572Y-109773810D01*
X98404762Y-109811905D01*
X98633334Y-109811905D01*
X98709524Y-109773810D01*
X98747619Y-109735714D01*
X97795238Y-109354762D02*
X97871429Y-109316667D01*
X97909524Y-109278571D01*
X97947619Y-109202381D01*
X97947619Y-109164286D01*
X97909524Y-109088095D01*
X97871429Y-109050000D01*
X97795238Y-109011905D01*
X97642857Y-109011905D01*
X97566667Y-109050000D01*
X97528571Y-109088095D01*
X97490476Y-109164286D01*
X97490476Y-109202381D01*
X97528571Y-109278571D01*
X97566667Y-109316667D01*
X97642857Y-109354762D01*
X97795238Y-109354762D01*
X97871429Y-109392857D01*
X97909524Y-109430952D01*
X97947619Y-109507143D01*
X97947619Y-109659524D01*
X97909524Y-109735714D01*
X97871429Y-109773810D01*
X97795238Y-109811905D01*
X97642857Y-109811905D01*
X97566667Y-109773810D01*
X97528571Y-109735714D01*
X97490476Y-109659524D01*
X97490476Y-109507143D01*
X97528571Y-109430952D01*
X97566667Y-109392857D01*
X97642857Y-109354762D01*
X100564286Y-111711905D02*
X100830953Y-111330952D01*
X101021429Y-111711905D02*
X101021429Y-110911905D01*
X100716667Y-110911905D01*
X100640476Y-110950000D01*
X100602381Y-110988095D01*
X100564286Y-111064286D01*
X100564286Y-111178571D01*
X100602381Y-111254762D01*
X100640476Y-111292857D01*
X100716667Y-111330952D01*
X101021429Y-111330952D01*
X100297619Y-110911905D02*
X99802381Y-110911905D01*
X100069048Y-111216667D01*
X99954762Y-111216667D01*
X99878572Y-111254762D01*
X99840476Y-111292857D01*
X99802381Y-111369048D01*
X99802381Y-111559524D01*
X99840476Y-111635714D01*
X99878572Y-111673810D01*
X99954762Y-111711905D01*
X100183334Y-111711905D01*
X100259524Y-111673810D01*
X100297619Y-111635714D01*
X99535714Y-110911905D02*
X99002381Y-110911905D01*
X99345238Y-111711905D01*
X100664286Y-105811905D02*
X100930953Y-105430952D01*
X101121429Y-105811905D02*
X101121429Y-105011905D01*
X100816667Y-105011905D01*
X100740476Y-105050000D01*
X100702381Y-105088095D01*
X100664286Y-105164286D01*
X100664286Y-105278571D01*
X100702381Y-105354762D01*
X100740476Y-105392857D01*
X100816667Y-105430952D01*
X101121429Y-105430952D01*
X100359524Y-105088095D02*
X100321429Y-105050000D01*
X100245238Y-105011905D01*
X100054762Y-105011905D01*
X99978572Y-105050000D01*
X99940476Y-105088095D01*
X99902381Y-105164286D01*
X99902381Y-105240476D01*
X99940476Y-105354762D01*
X100397619Y-105811905D01*
X99902381Y-105811905D01*
X99216667Y-105278571D02*
X99216667Y-105811905D01*
X99407143Y-104973810D02*
X99597619Y-105545238D01*
X99102381Y-105545238D01*
X110664286Y-103561905D02*
X110930953Y-103180952D01*
X111121429Y-103561905D02*
X111121429Y-102761905D01*
X110816667Y-102761905D01*
X110740476Y-102800000D01*
X110702381Y-102838095D01*
X110664286Y-102914286D01*
X110664286Y-103028571D01*
X110702381Y-103104762D01*
X110740476Y-103142857D01*
X110816667Y-103180952D01*
X111121429Y-103180952D01*
X109902381Y-103561905D02*
X110359524Y-103561905D01*
X110130953Y-103561905D02*
X110130953Y-102761905D01*
X110207143Y-102876190D01*
X110283334Y-102952381D01*
X110359524Y-102990476D01*
X109178571Y-102761905D02*
X109559524Y-102761905D01*
X109597619Y-103142857D01*
X109559524Y-103104762D01*
X109483333Y-103066667D01*
X109292857Y-103066667D01*
X109216667Y-103104762D01*
X109178571Y-103142857D01*
X109140476Y-103219048D01*
X109140476Y-103409524D01*
X109178571Y-103485714D01*
X109216667Y-103523810D01*
X109292857Y-103561905D01*
X109483333Y-103561905D01*
X109559524Y-103523810D01*
X109597619Y-103485714D01*
X96483333Y-90811905D02*
X96750000Y-90430952D01*
X96940476Y-90811905D02*
X96940476Y-90011905D01*
X96635714Y-90011905D01*
X96559523Y-90050000D01*
X96521428Y-90088095D01*
X96483333Y-90164286D01*
X96483333Y-90278571D01*
X96521428Y-90354762D01*
X96559523Y-90392857D01*
X96635714Y-90430952D01*
X96940476Y-90430952D01*
X95797619Y-90278571D02*
X95797619Y-90811905D01*
X95988095Y-89973810D02*
X96178571Y-90545238D01*
X95683333Y-90545238D01*
X111361905Y-115085714D02*
X110980952Y-114819047D01*
X111361905Y-114628571D02*
X110561905Y-114628571D01*
X110561905Y-114933333D01*
X110600000Y-115009524D01*
X110638095Y-115047619D01*
X110714286Y-115085714D01*
X110828571Y-115085714D01*
X110904762Y-115047619D01*
X110942857Y-115009524D01*
X110980952Y-114933333D01*
X110980952Y-114628571D01*
X110638095Y-115390476D02*
X110600000Y-115428571D01*
X110561905Y-115504762D01*
X110561905Y-115695238D01*
X110600000Y-115771428D01*
X110638095Y-115809524D01*
X110714286Y-115847619D01*
X110790476Y-115847619D01*
X110904762Y-115809524D01*
X111361905Y-115352381D01*
X111361905Y-115847619D01*
X110561905Y-116533333D02*
X110561905Y-116380952D01*
X110600000Y-116304762D01*
X110638095Y-116266667D01*
X110752381Y-116190476D01*
X110904762Y-116152381D01*
X111209524Y-116152381D01*
X111285714Y-116190476D01*
X111323810Y-116228571D01*
X111361905Y-116304762D01*
X111361905Y-116457143D01*
X111323810Y-116533333D01*
X111285714Y-116571429D01*
X111209524Y-116609524D01*
X111019048Y-116609524D01*
X110942857Y-116571429D01*
X110904762Y-116533333D01*
X110866667Y-116457143D01*
X110866667Y-116304762D01*
X110904762Y-116228571D01*
X110942857Y-116190476D01*
X111019048Y-116152381D01*
X110664286Y-101811905D02*
X110930953Y-101430952D01*
X111121429Y-101811905D02*
X111121429Y-101011905D01*
X110816667Y-101011905D01*
X110740476Y-101050000D01*
X110702381Y-101088095D01*
X110664286Y-101164286D01*
X110664286Y-101278571D01*
X110702381Y-101354762D01*
X110740476Y-101392857D01*
X110816667Y-101430952D01*
X111121429Y-101430952D01*
X109902381Y-101811905D02*
X110359524Y-101811905D01*
X110130953Y-101811905D02*
X110130953Y-101011905D01*
X110207143Y-101126190D01*
X110283334Y-101202381D01*
X110359524Y-101240476D01*
X109635714Y-101011905D02*
X109140476Y-101011905D01*
X109407143Y-101316667D01*
X109292857Y-101316667D01*
X109216667Y-101354762D01*
X109178571Y-101392857D01*
X109140476Y-101469048D01*
X109140476Y-101659524D01*
X109178571Y-101735714D01*
X109216667Y-101773810D01*
X109292857Y-101811905D01*
X109521429Y-101811905D01*
X109597619Y-101773810D01*
X109635714Y-101735714D01*
X100114286Y-107811905D02*
X100380953Y-107430952D01*
X100571429Y-107811905D02*
X100571429Y-107011905D01*
X100266667Y-107011905D01*
X100190476Y-107050000D01*
X100152381Y-107088095D01*
X100114286Y-107164286D01*
X100114286Y-107278571D01*
X100152381Y-107354762D01*
X100190476Y-107392857D01*
X100266667Y-107430952D01*
X100571429Y-107430952D01*
X99809524Y-107088095D02*
X99771429Y-107050000D01*
X99695238Y-107011905D01*
X99504762Y-107011905D01*
X99428572Y-107050000D01*
X99390476Y-107088095D01*
X99352381Y-107164286D01*
X99352381Y-107240476D01*
X99390476Y-107354762D01*
X99847619Y-107811905D01*
X99352381Y-107811905D01*
X99085714Y-107011905D02*
X98590476Y-107011905D01*
X98857143Y-107316667D01*
X98742857Y-107316667D01*
X98666667Y-107354762D01*
X98628571Y-107392857D01*
X98590476Y-107469048D01*
X98590476Y-107659524D01*
X98628571Y-107735714D01*
X98666667Y-107773810D01*
X98742857Y-107811905D01*
X98971429Y-107811905D01*
X99047619Y-107773810D01*
X99085714Y-107735714D01*
X111361905Y-107185714D02*
X110980952Y-106919047D01*
X111361905Y-106728571D02*
X110561905Y-106728571D01*
X110561905Y-107033333D01*
X110600000Y-107109524D01*
X110638095Y-107147619D01*
X110714286Y-107185714D01*
X110828571Y-107185714D01*
X110904762Y-107147619D01*
X110942857Y-107109524D01*
X110980952Y-107033333D01*
X110980952Y-106728571D01*
X110638095Y-107490476D02*
X110600000Y-107528571D01*
X110561905Y-107604762D01*
X110561905Y-107795238D01*
X110600000Y-107871428D01*
X110638095Y-107909524D01*
X110714286Y-107947619D01*
X110790476Y-107947619D01*
X110904762Y-107909524D01*
X111361905Y-107452381D01*
X111361905Y-107947619D01*
X110638095Y-108252381D02*
X110600000Y-108290476D01*
X110561905Y-108366667D01*
X110561905Y-108557143D01*
X110600000Y-108633333D01*
X110638095Y-108671429D01*
X110714286Y-108709524D01*
X110790476Y-108709524D01*
X110904762Y-108671429D01*
X111361905Y-108214286D01*
X111361905Y-108709524D01*
X119711905Y-113435714D02*
X119330952Y-113169047D01*
X119711905Y-112978571D02*
X118911905Y-112978571D01*
X118911905Y-113283333D01*
X118950000Y-113359524D01*
X118988095Y-113397619D01*
X119064286Y-113435714D01*
X119178571Y-113435714D01*
X119254762Y-113397619D01*
X119292857Y-113359524D01*
X119330952Y-113283333D01*
X119330952Y-112978571D01*
X118988095Y-113740476D02*
X118950000Y-113778571D01*
X118911905Y-113854762D01*
X118911905Y-114045238D01*
X118950000Y-114121428D01*
X118988095Y-114159524D01*
X119064286Y-114197619D01*
X119140476Y-114197619D01*
X119254762Y-114159524D01*
X119711905Y-113702381D01*
X119711905Y-114197619D01*
X119711905Y-114959524D02*
X119711905Y-114502381D01*
X119711905Y-114730952D02*
X118911905Y-114730952D01*
X119026190Y-114654762D01*
X119102381Y-114578571D01*
X119140476Y-114502381D01*
X111361905Y-104635714D02*
X110980952Y-104369047D01*
X111361905Y-104178571D02*
X110561905Y-104178571D01*
X110561905Y-104483333D01*
X110600000Y-104559524D01*
X110638095Y-104597619D01*
X110714286Y-104635714D01*
X110828571Y-104635714D01*
X110904762Y-104597619D01*
X110942857Y-104559524D01*
X110980952Y-104483333D01*
X110980952Y-104178571D01*
X111361905Y-105397619D02*
X111361905Y-104940476D01*
X111361905Y-105169047D02*
X110561905Y-105169047D01*
X110676190Y-105092857D01*
X110752381Y-105016666D01*
X110790476Y-104940476D01*
X110828571Y-106083333D02*
X111361905Y-106083333D01*
X110523810Y-105892857D02*
X111095238Y-105702381D01*
X111095238Y-106197619D01*
X110883333Y-95461905D02*
X111150000Y-95080952D01*
X111340476Y-95461905D02*
X111340476Y-94661905D01*
X111035714Y-94661905D01*
X110959523Y-94700000D01*
X110921428Y-94738095D01*
X110883333Y-94814286D01*
X110883333Y-94928571D01*
X110921428Y-95004762D01*
X110959523Y-95042857D01*
X111035714Y-95080952D01*
X111340476Y-95080952D01*
X110159523Y-94661905D02*
X110540476Y-94661905D01*
X110578571Y-95042857D01*
X110540476Y-95004762D01*
X110464285Y-94966667D01*
X110273809Y-94966667D01*
X110197619Y-95004762D01*
X110159523Y-95042857D01*
X110121428Y-95119048D01*
X110121428Y-95309524D01*
X110159523Y-95385714D01*
X110197619Y-95423810D01*
X110273809Y-95461905D01*
X110464285Y-95461905D01*
X110540476Y-95423810D01*
X110578571Y-95385714D01*
X100183333Y-95461905D02*
X100450000Y-95080952D01*
X100640476Y-95461905D02*
X100640476Y-94661905D01*
X100335714Y-94661905D01*
X100259523Y-94700000D01*
X100221428Y-94738095D01*
X100183333Y-94814286D01*
X100183333Y-94928571D01*
X100221428Y-95004762D01*
X100259523Y-95042857D01*
X100335714Y-95080952D01*
X100640476Y-95080952D01*
X99726190Y-95004762D02*
X99802381Y-94966667D01*
X99840476Y-94928571D01*
X99878571Y-94852381D01*
X99878571Y-94814286D01*
X99840476Y-94738095D01*
X99802381Y-94700000D01*
X99726190Y-94661905D01*
X99573809Y-94661905D01*
X99497619Y-94700000D01*
X99459523Y-94738095D01*
X99421428Y-94814286D01*
X99421428Y-94852381D01*
X99459523Y-94928571D01*
X99497619Y-94966667D01*
X99573809Y-95004762D01*
X99726190Y-95004762D01*
X99802381Y-95042857D01*
X99840476Y-95080952D01*
X99878571Y-95157143D01*
X99878571Y-95309524D01*
X99840476Y-95385714D01*
X99802381Y-95423810D01*
X99726190Y-95461905D01*
X99573809Y-95461905D01*
X99497619Y-95423810D01*
X99459523Y-95385714D01*
X99421428Y-95309524D01*
X99421428Y-95157143D01*
X99459523Y-95080952D01*
X99497619Y-95042857D01*
X99573809Y-95004762D01*
X99214286Y-80711905D02*
X99480953Y-80330952D01*
X99671429Y-80711905D02*
X99671429Y-79911905D01*
X99366667Y-79911905D01*
X99290476Y-79950000D01*
X99252381Y-79988095D01*
X99214286Y-80064286D01*
X99214286Y-80178571D01*
X99252381Y-80254762D01*
X99290476Y-80292857D01*
X99366667Y-80330952D01*
X99671429Y-80330952D01*
X98528572Y-80178571D02*
X98528572Y-80711905D01*
X98719048Y-79873810D02*
X98909524Y-80445238D01*
X98414286Y-80445238D01*
X98071429Y-80711905D02*
X97919048Y-80711905D01*
X97842857Y-80673810D01*
X97804762Y-80635714D01*
X97728571Y-80521429D01*
X97690476Y-80369048D01*
X97690476Y-80064286D01*
X97728571Y-79988095D01*
X97766667Y-79950000D01*
X97842857Y-79911905D01*
X97995238Y-79911905D01*
X98071429Y-79950000D01*
X98109524Y-79988095D01*
X98147619Y-80064286D01*
X98147619Y-80254762D01*
X98109524Y-80330952D01*
X98071429Y-80369048D01*
X97995238Y-80407143D01*
X97842857Y-80407143D01*
X97766667Y-80369048D01*
X97728571Y-80330952D01*
X97690476Y-80254762D01*
X96514286Y-119661905D02*
X96780953Y-119280952D01*
X96971429Y-119661905D02*
X96971429Y-118861905D01*
X96666667Y-118861905D01*
X96590476Y-118900000D01*
X96552381Y-118938095D01*
X96514286Y-119014286D01*
X96514286Y-119128571D01*
X96552381Y-119204762D01*
X96590476Y-119242857D01*
X96666667Y-119280952D01*
X96971429Y-119280952D01*
X95828572Y-119128571D02*
X95828572Y-119661905D01*
X96019048Y-118823810D02*
X96209524Y-119395238D01*
X95714286Y-119395238D01*
X95485714Y-118861905D02*
X94990476Y-118861905D01*
X95257143Y-119166667D01*
X95142857Y-119166667D01*
X95066667Y-119204762D01*
X95028571Y-119242857D01*
X94990476Y-119319048D01*
X94990476Y-119509524D01*
X95028571Y-119585714D01*
X95066667Y-119623810D01*
X95142857Y-119661905D01*
X95371429Y-119661905D01*
X95447619Y-119623810D01*
X95485714Y-119585714D01*
X109864286Y-121011905D02*
X110130953Y-120630952D01*
X110321429Y-121011905D02*
X110321429Y-120211905D01*
X110016667Y-120211905D01*
X109940476Y-120250000D01*
X109902381Y-120288095D01*
X109864286Y-120364286D01*
X109864286Y-120478571D01*
X109902381Y-120554762D01*
X109940476Y-120592857D01*
X110016667Y-120630952D01*
X110321429Y-120630952D01*
X109597619Y-120211905D02*
X109102381Y-120211905D01*
X109369048Y-120516667D01*
X109254762Y-120516667D01*
X109178572Y-120554762D01*
X109140476Y-120592857D01*
X109102381Y-120669048D01*
X109102381Y-120859524D01*
X109140476Y-120935714D01*
X109178572Y-120973810D01*
X109254762Y-121011905D01*
X109483334Y-121011905D01*
X109559524Y-120973810D01*
X109597619Y-120935714D01*
X108721429Y-121011905D02*
X108569048Y-121011905D01*
X108492857Y-120973810D01*
X108454762Y-120935714D01*
X108378571Y-120821429D01*
X108340476Y-120669048D01*
X108340476Y-120364286D01*
X108378571Y-120288095D01*
X108416667Y-120250000D01*
X108492857Y-120211905D01*
X108645238Y-120211905D01*
X108721429Y-120250000D01*
X108759524Y-120288095D01*
X108797619Y-120364286D01*
X108797619Y-120554762D01*
X108759524Y-120630952D01*
X108721429Y-120669048D01*
X108645238Y-120707143D01*
X108492857Y-120707143D01*
X108416667Y-120669048D01*
X108378571Y-120630952D01*
X108340476Y-120554762D01*
X102864286Y-99361905D02*
X103130953Y-98980952D01*
X103321429Y-99361905D02*
X103321429Y-98561905D01*
X103016667Y-98561905D01*
X102940476Y-98600000D01*
X102902381Y-98638095D01*
X102864286Y-98714286D01*
X102864286Y-98828571D01*
X102902381Y-98904762D01*
X102940476Y-98942857D01*
X103016667Y-98980952D01*
X103321429Y-98980952D01*
X102102381Y-99361905D02*
X102559524Y-99361905D01*
X102330953Y-99361905D02*
X102330953Y-98561905D01*
X102407143Y-98676190D01*
X102483334Y-98752381D01*
X102559524Y-98790476D01*
X101797619Y-98638095D02*
X101759524Y-98600000D01*
X101683333Y-98561905D01*
X101492857Y-98561905D01*
X101416667Y-98600000D01*
X101378571Y-98638095D01*
X101340476Y-98714286D01*
X101340476Y-98790476D01*
X101378571Y-98904762D01*
X101835714Y-99361905D01*
X101340476Y-99361905D01*
X110083333Y-99361905D02*
X110350000Y-98980952D01*
X110540476Y-99361905D02*
X110540476Y-98561905D01*
X110235714Y-98561905D01*
X110159523Y-98600000D01*
X110121428Y-98638095D01*
X110083333Y-98714286D01*
X110083333Y-98828571D01*
X110121428Y-98904762D01*
X110159523Y-98942857D01*
X110235714Y-98980952D01*
X110540476Y-98980952D01*
X109702381Y-99361905D02*
X109550000Y-99361905D01*
X109473809Y-99323810D01*
X109435714Y-99285714D01*
X109359523Y-99171429D01*
X109321428Y-99019048D01*
X109321428Y-98714286D01*
X109359523Y-98638095D01*
X109397619Y-98600000D01*
X109473809Y-98561905D01*
X109626190Y-98561905D01*
X109702381Y-98600000D01*
X109740476Y-98638095D01*
X109778571Y-98714286D01*
X109778571Y-98904762D01*
X109740476Y-98980952D01*
X109702381Y-99019048D01*
X109626190Y-99057143D01*
X109473809Y-99057143D01*
X109397619Y-99019048D01*
X109359523Y-98980952D01*
X109321428Y-98904762D01*
X79583333Y-111311905D02*
X79850000Y-110930952D01*
X80040476Y-111311905D02*
X80040476Y-110511905D01*
X79735714Y-110511905D01*
X79659523Y-110550000D01*
X79621428Y-110588095D01*
X79583333Y-110664286D01*
X79583333Y-110778571D01*
X79621428Y-110854762D01*
X79659523Y-110892857D01*
X79735714Y-110930952D01*
X80040476Y-110930952D01*
X79316666Y-110511905D02*
X78821428Y-110511905D01*
X79088095Y-110816667D01*
X78973809Y-110816667D01*
X78897619Y-110854762D01*
X78859523Y-110892857D01*
X78821428Y-110969048D01*
X78821428Y-111159524D01*
X78859523Y-111235714D01*
X78897619Y-111273810D01*
X78973809Y-111311905D01*
X79202381Y-111311905D01*
X79278571Y-111273810D01*
X79316666Y-111235714D01*
X101361905Y-102085714D02*
X100980952Y-101819047D01*
X101361905Y-101628571D02*
X100561905Y-101628571D01*
X100561905Y-101933333D01*
X100600000Y-102009524D01*
X100638095Y-102047619D01*
X100714286Y-102085714D01*
X100828571Y-102085714D01*
X100904762Y-102047619D01*
X100942857Y-102009524D01*
X100980952Y-101933333D01*
X100980952Y-101628571D01*
X100638095Y-102390476D02*
X100600000Y-102428571D01*
X100561905Y-102504762D01*
X100561905Y-102695238D01*
X100600000Y-102771428D01*
X100638095Y-102809524D01*
X100714286Y-102847619D01*
X100790476Y-102847619D01*
X100904762Y-102809524D01*
X101361905Y-102352381D01*
X101361905Y-102847619D01*
X100561905Y-103571429D02*
X100561905Y-103190476D01*
X100942857Y-103152381D01*
X100904762Y-103190476D01*
X100866667Y-103266667D01*
X100866667Y-103457143D01*
X100904762Y-103533333D01*
X100942857Y-103571429D01*
X101019048Y-103609524D01*
X101209524Y-103609524D01*
X101285714Y-103571429D01*
X101323810Y-103533333D01*
X101361905Y-103457143D01*
X101361905Y-103266667D01*
X101323810Y-103190476D01*
X101285714Y-103152381D01*
X120914286Y-111661905D02*
X121180953Y-111280952D01*
X121371429Y-111661905D02*
X121371429Y-110861905D01*
X121066667Y-110861905D01*
X120990476Y-110900000D01*
X120952381Y-110938095D01*
X120914286Y-111014286D01*
X120914286Y-111128571D01*
X120952381Y-111204762D01*
X120990476Y-111242857D01*
X121066667Y-111280952D01*
X121371429Y-111280952D01*
X120152381Y-111661905D02*
X120609524Y-111661905D01*
X120380953Y-111661905D02*
X120380953Y-110861905D01*
X120457143Y-110976190D01*
X120533334Y-111052381D01*
X120609524Y-111090476D01*
X119771429Y-111661905D02*
X119619048Y-111661905D01*
X119542857Y-111623810D01*
X119504762Y-111585714D01*
X119428571Y-111471429D01*
X119390476Y-111319048D01*
X119390476Y-111014286D01*
X119428571Y-110938095D01*
X119466667Y-110900000D01*
X119542857Y-110861905D01*
X119695238Y-110861905D01*
X119771429Y-110900000D01*
X119809524Y-110938095D01*
X119847619Y-111014286D01*
X119847619Y-111204762D01*
X119809524Y-111280952D01*
X119771429Y-111319048D01*
X119695238Y-111357143D01*
X119542857Y-111357143D01*
X119466667Y-111319048D01*
X119428571Y-111280952D01*
X119390476Y-111204762D01*
X121014286Y-106161905D02*
X121280953Y-105780952D01*
X121471429Y-106161905D02*
X121471429Y-105361905D01*
X121166667Y-105361905D01*
X121090476Y-105400000D01*
X121052381Y-105438095D01*
X121014286Y-105514286D01*
X121014286Y-105628571D01*
X121052381Y-105704762D01*
X121090476Y-105742857D01*
X121166667Y-105780952D01*
X121471429Y-105780952D01*
X120252381Y-106161905D02*
X120709524Y-106161905D01*
X120480953Y-106161905D02*
X120480953Y-105361905D01*
X120557143Y-105476190D01*
X120633334Y-105552381D01*
X120709524Y-105590476D01*
X119795238Y-105704762D02*
X119871429Y-105666667D01*
X119909524Y-105628571D01*
X119947619Y-105552381D01*
X119947619Y-105514286D01*
X119909524Y-105438095D01*
X119871429Y-105400000D01*
X119795238Y-105361905D01*
X119642857Y-105361905D01*
X119566667Y-105400000D01*
X119528571Y-105438095D01*
X119490476Y-105514286D01*
X119490476Y-105552381D01*
X119528571Y-105628571D01*
X119566667Y-105666667D01*
X119642857Y-105704762D01*
X119795238Y-105704762D01*
X119871429Y-105742857D01*
X119909524Y-105780952D01*
X119947619Y-105857143D01*
X119947619Y-106009524D01*
X119909524Y-106085714D01*
X119871429Y-106123810D01*
X119795238Y-106161905D01*
X119642857Y-106161905D01*
X119566667Y-106123810D01*
X119528571Y-106085714D01*
X119490476Y-106009524D01*
X119490476Y-105857143D01*
X119528571Y-105780952D01*
X119566667Y-105742857D01*
X119642857Y-105704762D01*
X102611905Y-102085714D02*
X102230952Y-101819047D01*
X102611905Y-101628571D02*
X101811905Y-101628571D01*
X101811905Y-101933333D01*
X101850000Y-102009524D01*
X101888095Y-102047619D01*
X101964286Y-102085714D01*
X102078571Y-102085714D01*
X102154762Y-102047619D01*
X102192857Y-102009524D01*
X102230952Y-101933333D01*
X102230952Y-101628571D01*
X102611905Y-102847619D02*
X102611905Y-102390476D01*
X102611905Y-102619047D02*
X101811905Y-102619047D01*
X101926190Y-102542857D01*
X102002381Y-102466666D01*
X102040476Y-102390476D01*
X101811905Y-103533333D02*
X101811905Y-103380952D01*
X101850000Y-103304762D01*
X101888095Y-103266667D01*
X102002381Y-103190476D01*
X102154762Y-103152381D01*
X102459524Y-103152381D01*
X102535714Y-103190476D01*
X102573810Y-103228571D01*
X102611905Y-103304762D01*
X102611905Y-103457143D01*
X102573810Y-103533333D01*
X102535714Y-103571429D01*
X102459524Y-103609524D01*
X102269048Y-103609524D01*
X102192857Y-103571429D01*
X102154762Y-103533333D01*
X102116667Y-103457143D01*
X102116667Y-103304762D01*
X102154762Y-103228571D01*
X102192857Y-103190476D01*
X102269048Y-103152381D01*
X121283333Y-113361905D02*
X121550000Y-112980952D01*
X121740476Y-113361905D02*
X121740476Y-112561905D01*
X121435714Y-112561905D01*
X121359523Y-112600000D01*
X121321428Y-112638095D01*
X121283333Y-112714286D01*
X121283333Y-112828571D01*
X121321428Y-112904762D01*
X121359523Y-112942857D01*
X121435714Y-112980952D01*
X121740476Y-112980952D01*
X120978571Y-112638095D02*
X120940476Y-112600000D01*
X120864285Y-112561905D01*
X120673809Y-112561905D01*
X120597619Y-112600000D01*
X120559523Y-112638095D01*
X120521428Y-112714286D01*
X120521428Y-112790476D01*
X120559523Y-112904762D01*
X121016666Y-113361905D01*
X120521428Y-113361905D01*
X121583333Y-108961905D02*
X121850000Y-108580952D01*
X122040476Y-108961905D02*
X122040476Y-108161905D01*
X121735714Y-108161905D01*
X121659523Y-108200000D01*
X121621428Y-108238095D01*
X121583333Y-108314286D01*
X121583333Y-108428571D01*
X121621428Y-108504762D01*
X121659523Y-108542857D01*
X121735714Y-108580952D01*
X122040476Y-108580952D01*
X120821428Y-108961905D02*
X121278571Y-108961905D01*
X121050000Y-108961905D02*
X121050000Y-108161905D01*
X121126190Y-108276190D01*
X121202381Y-108352381D01*
X121278571Y-108390476D01*
X119910476Y-97161905D02*
X119910476Y-96361905D01*
X119605714Y-96361905D01*
X119529523Y-96400000D01*
X119491428Y-96438095D01*
X119453333Y-96514286D01*
X119453333Y-96628571D01*
X119491428Y-96704762D01*
X119529523Y-96742857D01*
X119605714Y-96780952D01*
X119910476Y-96780952D01*
X118691428Y-97161905D02*
X119148571Y-97161905D01*
X118920000Y-97161905D02*
X118920000Y-96361905D01*
X118996190Y-96476190D01*
X119072381Y-96552381D01*
X119148571Y-96590476D01*
X114520476Y-97161905D02*
X114520476Y-96361905D01*
X114215714Y-96361905D01*
X114139523Y-96400000D01*
X114101428Y-96438095D01*
X114063333Y-96514286D01*
X114063333Y-96628571D01*
X114101428Y-96704762D01*
X114139523Y-96742857D01*
X114215714Y-96780952D01*
X114520476Y-96780952D01*
X113377619Y-96628571D02*
X113377619Y-97161905D01*
X113568095Y-96323810D02*
X113758571Y-96895238D01*
X113263333Y-96895238D01*
X103214286Y-91811905D02*
X103480953Y-91430952D01*
X103671429Y-91811905D02*
X103671429Y-91011905D01*
X103366667Y-91011905D01*
X103290476Y-91050000D01*
X103252381Y-91088095D01*
X103214286Y-91164286D01*
X103214286Y-91278571D01*
X103252381Y-91354762D01*
X103290476Y-91392857D01*
X103366667Y-91430952D01*
X103671429Y-91430952D01*
X102490476Y-91011905D02*
X102871429Y-91011905D01*
X102909524Y-91392857D01*
X102871429Y-91354762D01*
X102795238Y-91316667D01*
X102604762Y-91316667D01*
X102528572Y-91354762D01*
X102490476Y-91392857D01*
X102452381Y-91469048D01*
X102452381Y-91659524D01*
X102490476Y-91735714D01*
X102528572Y-91773810D01*
X102604762Y-91811905D01*
X102795238Y-91811905D01*
X102871429Y-91773810D01*
X102909524Y-91735714D01*
X101957143Y-91011905D02*
X101880952Y-91011905D01*
X101804762Y-91050000D01*
X101766667Y-91088095D01*
X101728571Y-91164286D01*
X101690476Y-91316667D01*
X101690476Y-91507143D01*
X101728571Y-91659524D01*
X101766667Y-91735714D01*
X101804762Y-91773810D01*
X101880952Y-91811905D01*
X101957143Y-91811905D01*
X102033333Y-91773810D01*
X102071429Y-91735714D01*
X102109524Y-91659524D01*
X102147619Y-91507143D01*
X102147619Y-91316667D01*
X102109524Y-91164286D01*
X102071429Y-91088095D01*
X102033333Y-91050000D01*
X101957143Y-91011905D01*
X98014286Y-116511905D02*
X98280953Y-116130952D01*
X98471429Y-116511905D02*
X98471429Y-115711905D01*
X98166667Y-115711905D01*
X98090476Y-115750000D01*
X98052381Y-115788095D01*
X98014286Y-115864286D01*
X98014286Y-115978571D01*
X98052381Y-116054762D01*
X98090476Y-116092857D01*
X98166667Y-116130952D01*
X98471429Y-116130952D01*
X97328572Y-115978571D02*
X97328572Y-116511905D01*
X97519048Y-115673810D02*
X97709524Y-116245238D01*
X97214286Y-116245238D01*
X96566667Y-115978571D02*
X96566667Y-116511905D01*
X96757143Y-115673810D02*
X96947619Y-116245238D01*
X96452381Y-116245238D01*
M02*
