M48
;DRILL file {KiCad 4.0.4-stable} date Monday, August 28, 2017 'PMt' 10:13:43 PM
;FORMAT={-:-/ absolute / inch / decimal}
FMAT,2
INCH,TZ
T1C0.013
T2C0.040
T3C0.051
T4C0.217
%
G90
G05
M72
T1
X3.5059Y-4.7382
X3.5827Y-4.7382
T2
X4.4354Y-3.8795
X4.4354Y-3.9795
X4.4354Y-4.0795
X4.4354Y-4.1795
X4.4354Y-4.2795
X4.4354Y-4.3795
X4.4354Y-4.4795
X4.4354Y-4.5795
X4.4354Y-4.6795
X4.5354Y-3.8795
X4.5354Y-3.9795
X4.5354Y-4.0795
X4.5354Y-4.1795
X4.5354Y-4.2795
X4.5354Y-4.3795
X4.5354Y-4.4795
X4.5354Y-4.5795
X4.5354Y-4.6795
X4.6476Y-3.8795
X4.6476Y-3.9795
X4.6476Y-4.0795
X4.7476Y-3.8795
X4.7476Y-3.9795
X4.7476Y-4.0795
T3
X3.4646Y-4.6083
X3.6614Y-4.6083
T4
X3.562Y-3.3543
X4.312Y-3.3543
T0
M30
